%FSLAX23Y23*%
%MOIN*%
%SFA1B1*%

%IPPOS*%
%ADD15C,0.010000*%
%ADD18C,0.007090*%
%ADD74R,0.165350X0.053150*%
%ADD110C,0.061810*%
%ADD111R,0.061810X0.061810*%
%ADD119C,0.005910*%
%ADD127C,0.060000*%
%ADD128C,0.055120*%
%ADD129C,0.065550*%
%ADD130R,0.065550X0.065550*%
%ADD131R,0.061020X0.061020*%
%ADD132C,0.061020*%
%ADD133C,0.023620*%
%ADD134C,0.031500*%
%ADD135C,0.030000*%
%LNconcentrator_pcb-1*%
%LPD*%
G36*
X736Y2361D02*
X736Y2362D01*
X736Y2363*
X736Y2364*
X735Y2365*
X735Y2366*
X734Y2367*
X734Y2368*
X733Y2369*
X732Y2370*
X731Y2371*
X748*
X747Y2370*
X746Y2369*
X745Y2368*
X745Y2367*
X744Y2366*
X744Y2365*
X743Y2364*
X743Y2363*
X743Y2362*
X743Y2361*
X736*
G37*
G36*
X1458Y2045D02*
X1458Y2044D01*
X1458Y2043*
X1458Y2042*
X1458Y2041*
X1459Y2040*
X1459Y2039*
X1460Y2038*
X1461Y2037*
X1462Y2036*
X1463Y2035*
X1446*
X1447Y2036*
X1449Y2038*
X1450Y2039*
X1450Y2040*
X1451Y2041*
X1451Y2042*
X1451Y2043*
X1452Y2044*
X1452Y2045*
X1458*
G37*
G36*
X1601Y2412D02*
X1602Y2413D01*
X1603Y2413*
X1604Y2413*
X1605Y2413*
X1606Y2414*
X1607Y2414*
X1608Y2415*
X1609Y2416*
X1610Y2417*
X1611Y2418*
Y2401*
X1610Y2402*
X1608Y2404*
X1607Y2405*
X1606Y2405*
X1605Y2406*
X1604Y2406*
X1603Y2406*
X1602Y2406*
X1601Y2407*
Y2412*
G37*
G36*
X1671Y2482D02*
X1672Y2483D01*
X1673Y2483*
X1674Y2483*
X1675Y2483*
X1676Y2484*
X1677Y2484*
X1678Y2485*
X1679Y2486*
X1680Y2487*
X1681Y2488*
Y2471*
X1680Y2472*
X1678Y2474*
X1677Y2475*
X1676Y2475*
X1675Y2476*
X1674Y2476*
X1673Y2476*
X1672Y2476*
X1671Y2477*
Y2482*
G37*
G36*
X1711Y2572D02*
X1712Y2573D01*
X1713Y2573*
X1714Y2573*
X1715Y2573*
X1716Y2574*
X1717Y2574*
X1718Y2575*
X1719Y2576*
X1720Y2577*
X1721Y2578*
Y2561*
X1720Y2562*
X1718Y2564*
X1717Y2565*
X1716Y2565*
X1715Y2566*
X1714Y2566*
X1713Y2566*
X1712Y2566*
X1711Y2567*
Y2572*
G37*
G36*
X1903Y1548D02*
X1903Y1547D01*
X1903Y1546*
X1903Y1545*
X1904Y1544*
X1904Y1543*
X1905Y1542*
X1905Y1541*
X1906Y1540*
X1907Y1539*
X1908Y1538*
X1891*
X1892Y1539*
X1893Y1540*
X1894Y1541*
X1894Y1542*
X1895Y1543*
X1895Y1544*
X1896Y1545*
X1896Y1546*
X1896Y1547*
X1896Y1548*
X1903*
G37*
G36*
X2103Y1828D02*
X2103Y1827D01*
X2103Y1826*
X2104Y1825*
X2104Y1824*
X2104Y1823*
X2105Y1822*
X2106Y1821*
X2106Y1820*
X2107Y1819*
X2108Y1817*
X2092Y1818*
X2093Y1819*
X2094Y1820*
X2095Y1821*
X2095Y1822*
X2096Y1823*
X2096Y1824*
X2097Y1825*
X2097Y1826*
X2097Y1827*
X2097Y1828*
X2103Y1828*
G37*
G36*
X1914Y1919D02*
X1915Y1920D01*
X1915Y1921*
X1916Y1922*
X1916Y1922*
X1917Y1923*
X1917Y1925*
X1917Y1926*
X1918Y1927*
X1918Y1928*
X1918Y1929*
X1929Y1918*
X1928Y1918*
X1927Y1918*
X1926Y1917*
X1925Y1917*
X1923Y1917*
X1922Y1916*
X1922Y1916*
X1921Y1915*
X1920Y1915*
X1919Y1914*
X1914Y1919*
G37*
G36*
X1734Y2038D02*
X1735Y2039D01*
X1736Y2040*
X1736Y2041*
X1737Y2042*
X1737Y2043*
X1737Y2044*
X1737Y2045*
X1738Y2047*
X1738Y2048*
X1738Y2049*
X1749Y2038*
X1748Y2038*
X1745Y2037*
X1744Y2037*
X1743Y2037*
X1742Y2037*
X1741Y2036*
X1740Y2036*
X1739Y2035*
X1738Y2034*
X1734Y2038*
G37*
G36*
X2258Y2257D02*
X2257Y2256D01*
X2256Y2256*
X2255Y2256*
X2254Y2256*
X2253Y2255*
X2252Y2255*
X2251Y2254*
X2250Y2253*
X2249Y2252*
X2248Y2251*
Y2268*
X2249Y2267*
X2251Y2265*
X2252Y2264*
X2253Y2264*
X2254Y2263*
X2255Y2263*
X2256Y2263*
X2257Y2263*
X2258Y2262*
Y2257*
G37*
G36*
X1405Y2651D02*
X1404Y2650D01*
X1403Y2649*
X1403Y2648*
X1402Y2647*
X1402Y2646*
X1402Y2645*
X1402Y2644*
X1401Y2642*
X1401Y2641*
X1401Y2640*
X1390Y2651*
X1391Y2651*
X1394Y2652*
X1395Y2652*
X1396Y2652*
X1397Y2652*
X1398Y2653*
X1399Y2653*
X1400Y2654*
X1401Y2655*
X1405Y2651*
G37*
G36*
X1751Y2642D02*
X1752Y2643D01*
X1753Y2643*
X1754Y2643*
X1755Y2643*
X1756Y2644*
X1757Y2644*
X1758Y2645*
X1759Y2646*
X1760Y2647*
X1761Y2648*
Y2631*
X1760Y2632*
X1758Y2634*
X1757Y2635*
X1756Y2635*
X1755Y2636*
X1754Y2636*
X1753Y2636*
X1752Y2636*
X1751Y2637*
Y2642*
G37*
G36*
X1791Y2722D02*
X1792Y2723D01*
X1793Y2723*
X1794Y2723*
X1795Y2723*
X1796Y2724*
X1797Y2724*
X1798Y2725*
X1799Y2726*
X1800Y2727*
X1801Y2728*
Y2711*
X1800Y2712*
X1798Y2714*
X1797Y2715*
X1796Y2715*
X1795Y2716*
X1794Y2716*
X1793Y2716*
X1792Y2716*
X1791Y2717*
Y2722*
G37*
G36*
X1819Y2975D02*
X1820Y2974D01*
X1821Y2974*
X1822Y2973*
X1822Y2973*
X1823Y2972*
X1825Y2972*
X1826Y2972*
X1827Y2971*
X1828Y2971*
X1829Y2971*
X1818Y2960*
X1818Y2961*
X1818Y2962*
X1817Y2963*
X1817Y2964*
X1817Y2966*
X1816Y2967*
X1816Y2967*
X1815Y2968*
X1815Y2969*
X1814Y2970*
X1819Y2975*
G37*
G36*
X2031Y3163D02*
X2032Y3163D01*
X2033Y3163*
X2034Y3163*
X2035Y3164*
X2036Y3164*
X2037Y3165*
X2038Y3165*
X2039Y3166*
X2040Y3167*
X2041Y3168*
Y3151*
X2040Y3152*
X2039Y3153*
X2038Y3154*
X2037Y3154*
X2036Y3155*
X2035Y3155*
X2034Y3156*
X2033Y3156*
X2032Y3156*
X2031Y3156*
Y3163*
G37*
G36*
X1476Y3347D02*
X1477Y3346D01*
X1477Y3345*
X1477Y3344*
X1477Y3343*
X1478Y3342*
X1478Y3341*
X1479Y3340*
X1480Y3339*
X1481Y3338*
X1482Y3337*
X1465*
X1466Y3338*
X1468Y3340*
X1469Y3341*
X1469Y3342*
X1470Y3343*
X1470Y3344*
X1470Y3345*
X1470Y3346*
X1471Y3347*
X1476*
G37*
G36*
X1720Y3214D02*
X1719Y3215D01*
X1718Y3215*
X1717Y3216*
X1717Y3216*
X1716Y3217*
X1714Y3217*
X1713Y3217*
X1712Y3218*
X1711Y3218*
X1710Y3218*
X1721Y3229*
X1721Y3228*
X1721Y3227*
X1722Y3226*
X1722Y3225*
X1722Y3223*
X1723Y3222*
X1723Y3222*
X1724Y3221*
X1724Y3220*
X1725Y3219*
X1720Y3214*
G37*
G36*
X1532Y3567D02*
X1533Y3568D01*
X1534Y3569*
X1534Y3570*
X1535Y3571*
X1535Y3572*
X1535Y3573*
X1535Y3574*
X1536Y3576*
X1536Y3577*
X1536Y3578*
X1547Y3567*
X1546Y3567*
X1543Y3566*
X1542Y3566*
X1541Y3566*
X1540Y3566*
X1539Y3565*
X1538Y3565*
X1537Y3564*
X1536Y3563*
X1532Y3567*
G37*
G36*
X1790Y3344D02*
X1789Y3345D01*
X1788Y3345*
X1787Y3346*
X1787Y3346*
X1786Y3347*
X1784Y3347*
X1783Y3347*
X1782Y3348*
X1781Y3348*
X1780Y3348*
X1791Y3359*
X1791Y3358*
X1791Y3357*
X1792Y3356*
X1792Y3355*
X1792Y3353*
X1793Y3352*
X1793Y3352*
X1794Y3351*
X1794Y3350*
X1795Y3349*
X1790Y3344*
G37*
G36*
X2051Y3473D02*
X2052Y3473D01*
X2053Y3473*
X2054Y3473*
X2055Y3474*
X2056Y3474*
X2057Y3475*
X2058Y3475*
X2059Y3476*
X2060Y3477*
X2061Y3478*
Y3461*
X2060Y3462*
X2059Y3463*
X2058Y3464*
X2057Y3464*
X2056Y3465*
X2055Y3465*
X2054Y3466*
X2053Y3466*
X2052Y3466*
X2051Y3466*
Y3473*
G37*
G36*
X3461Y1901D02*
X3460Y1902D01*
X3458Y1904*
X3457Y1905*
X3456Y1905*
X3455Y1906*
X3454Y1906*
X3453Y1906*
X3452Y1906*
X3451Y1907*
Y1912*
X3452Y1913*
X3453Y1913*
X3454Y1913*
X3455Y1913*
X3456Y1914*
X3457Y1914*
X3458Y1915*
X3459Y1916*
X3460Y1917*
X3461Y1918*
Y1901*
G37*
G36*
X3289Y1917D02*
X3291Y1915D01*
X3292Y1914*
X3293Y1914*
X3294Y1913*
X3295Y1913*
X3296Y1913*
X3297Y1913*
X3298Y1912*
Y1907*
X3297Y1906*
X3296Y1906*
X3295Y1906*
X3294Y1906*
X3293Y1905*
X3292Y1905*
X3291Y1904*
X3290Y1903*
X3289Y1902*
X3288Y1901*
Y1918*
X3289Y1917*
G37*
G36*
X2617Y1525D02*
X2615Y1525D01*
X2613Y1525*
X2611Y1525*
X2610Y1524*
X2609Y1524*
X2608Y1523*
X2607Y1523*
X2607Y1522*
X2606Y1522*
X2602Y1526*
X2602Y1527*
X2603Y1527*
X2603Y1528*
X2604Y1529*
X2604Y1530*
X2605Y1531*
X2605Y1533*
X2605Y1534*
X2605Y1535*
X2605Y1537*
X2617Y1525*
G37*
G36*
X2419Y1527D02*
X2421Y1525D01*
X2422Y1524*
X2423Y1524*
X2424Y1523*
X2425Y1523*
X2426Y1523*
X2427Y1523*
X2428Y1522*
Y1517*
X2427Y1516*
X2426Y1516*
X2425Y1516*
X2424Y1516*
X2423Y1515*
X2422Y1515*
X2421Y1514*
X2420Y1513*
X2419Y1512*
X2418Y1511*
Y1528*
X2419Y1527*
G37*
G36*
X2451Y1461D02*
X2450Y1462D01*
X2448Y1464*
X2447Y1465*
X2446Y1465*
X2445Y1466*
X2444Y1466*
X2443Y1466*
X2442Y1466*
X2441Y1467*
Y1472*
X2442Y1473*
X2443Y1473*
X2444Y1473*
X2445Y1473*
X2446Y1474*
X2447Y1474*
X2448Y1475*
X2449Y1476*
X2450Y1477*
X2451Y1478*
Y1461*
G37*
G36*
X2364Y1425D02*
X2364Y1423D01*
X2364Y1422*
X2364Y1422*
X2364Y1421*
X2365Y1421*
X2365Y1420*
X2365Y1420*
X2366Y1420*
X2355Y1421*
X2356Y1421*
X2356Y1421*
X2357Y1421*
X2357Y1422*
X2357Y1422*
X2357Y1423*
X2358Y1423*
X2358Y1424*
X2358Y1425*
X2358Y1426*
X2364*
X2364Y1425*
G37*
G36*
X2677Y1340D02*
X2675Y1338D01*
X2674Y1337*
X2674Y1336*
X2673Y1335*
X2673Y1334*
X2673Y1333*
X2673Y1332*
X2672Y1331*
X2667*
X2666Y1332*
X2666Y1333*
X2666Y1334*
X2666Y1335*
X2665Y1336*
X2665Y1337*
X2664Y1338*
X2663Y1339*
X2662Y1340*
X2661Y1341*
X2678*
X2677Y1340*
G37*
G36*
X2673Y1214D02*
X2673Y1213D01*
X2673Y1212*
X2673Y1211*
X2674Y1210*
X2674Y1209*
X2675Y1207*
X2676Y1206*
X2677Y1205*
X2678Y1204*
X2661*
X2662Y1205*
X2664Y1207*
X2665Y1209*
X2665Y1210*
X2666Y1211*
X2666Y1212*
X2666Y1213*
X2666Y1214*
X2667Y1214*
X2672*
X2673Y1214*
G37*
G36*
X2841Y1021D02*
X2840Y1022D01*
X2839Y1023*
X2838Y1024*
X2837Y1024*
X2836Y1025*
X2835Y1025*
X2834Y1026*
X2833Y1026*
X2832Y1026*
X2831Y1026*
Y1033*
X2832Y1033*
X2833Y1033*
X2834Y1033*
X2835Y1034*
X2836Y1034*
X2837Y1035*
X2838Y1035*
X2839Y1036*
X2840Y1037*
X2841Y1038*
Y1021*
G37*
G36*
X2831Y921D02*
X2830Y922D01*
X2829Y923*
X2828Y924*
X2827Y924*
X2826Y925*
X2825Y925*
X2824Y926*
X2823Y926*
X2822Y926*
X2821Y926*
Y933*
X2822Y933*
X2823Y933*
X2824Y933*
X2825Y934*
X2826Y934*
X2827Y935*
X2828Y935*
X2829Y936*
X2830Y937*
X2831Y938*
Y921*
G37*
G36*
X2761Y2551D02*
X2760Y2552D01*
X2758Y2554*
X2757Y2555*
X2756Y2555*
X2755Y2556*
X2754Y2556*
X2753Y2556*
X2752Y2556*
X2751Y2557*
Y2562*
X2752Y2563*
X2753Y2563*
X2754Y2563*
X2755Y2563*
X2756Y2564*
X2757Y2564*
X2758Y2565*
X2759Y2566*
X2760Y2567*
X2761Y2568*
Y2551*
G37*
G36*
X2315Y2331D02*
X2314Y2330D01*
X2313Y2329*
X2313Y2328*
X2312Y2327*
X2312Y2326*
X2312Y2325*
X2312Y2324*
X2311Y2322*
X2311Y2321*
X2311Y2320*
X2300Y2331*
X2301Y2331*
X2304Y2332*
X2305Y2332*
X2306Y2332*
X2307Y2332*
X2308Y2333*
X2309Y2333*
X2310Y2334*
X2311Y2335*
X2315Y2331*
G37*
G36*
X2395Y2321D02*
X2394Y2320D01*
X2393Y2319*
X2393Y2318*
X2392Y2317*
X2392Y2316*
X2392Y2315*
X2392Y2314*
X2391Y2312*
X2391Y2311*
X2391Y2310*
X2380Y2321*
X2381Y2321*
X2384Y2322*
X2385Y2322*
X2386Y2322*
X2387Y2322*
X2388Y2323*
X2389Y2323*
X2390Y2324*
X2391Y2325*
X2395Y2321*
G37*
G36*
X2751Y2251D02*
X2750Y2252D01*
X2748Y2254*
X2747Y2255*
X2746Y2255*
X2745Y2256*
X2744Y2256*
X2743Y2256*
X2742Y2256*
X2741Y2257*
Y2262*
X2742Y2263*
X2743Y2263*
X2744Y2263*
X2745Y2263*
X2746Y2264*
X2747Y2264*
X2748Y2265*
X2749Y2266*
X2750Y2267*
X2751Y2268*
Y2251*
G37*
G36*
X2825Y2231D02*
X2824Y2230D01*
X2823Y2229*
X2823Y2228*
X2822Y2227*
X2822Y2226*
X2822Y2225*
X2822Y2224*
X2821Y2222*
X2821Y2221*
X2821Y2220*
X2810Y2231*
X2811Y2231*
X2814Y2232*
X2815Y2232*
X2816Y2232*
X2817Y2232*
X2818Y2233*
X2819Y2233*
X2820Y2234*
X2821Y2235*
X2825Y2231*
G37*
G36*
X2761Y2622D02*
X2762Y2623D01*
X2763Y2623*
X2764Y2623*
X2765Y2623*
X2766Y2624*
X2767Y2624*
X2768Y2625*
X2769Y2626*
X2770Y2627*
X2771Y2628*
Y2611*
X2770Y2612*
X2768Y2614*
X2767Y2615*
X2766Y2615*
X2765Y2616*
X2764Y2616*
X2763Y2616*
X2762Y2616*
X2761Y2617*
Y2622*
G37*
G36*
X2721Y2682D02*
X2722Y2683D01*
X2723Y2683*
X2724Y2683*
X2725Y2683*
X2726Y2684*
X2727Y2684*
X2728Y2685*
X2729Y2686*
X2730Y2687*
X2731Y2688*
Y2671*
X2730Y2672*
X2728Y2674*
X2727Y2675*
X2726Y2675*
X2725Y2676*
X2724Y2676*
X2723Y2676*
X2722Y2676*
X2721Y2677*
Y2682*
G37*
G36*
X3543Y2718D02*
X3543Y2717D01*
X3543Y2716*
X3543Y2715*
X3544Y2714*
X3544Y2713*
X3545Y2712*
X3545Y2711*
X3546Y2710*
X3547Y2709*
X3548Y2708*
X3531*
X3532Y2709*
X3533Y2710*
X3534Y2711*
X3534Y2712*
X3535Y2713*
X3535Y2714*
X3536Y2715*
X3536Y2716*
X3536Y2717*
X3536Y2718*
X3543*
G37*
G36*
X2653Y3348D02*
X2653Y3347D01*
X2653Y3346*
X2653Y3345*
X2654Y3344*
X2654Y3343*
X2655Y3342*
X2655Y3341*
X2656Y3340*
X2657Y3339*
X2658Y3338*
X2641*
X2642Y3339*
X2643Y3340*
X2644Y3341*
X2644Y3342*
X2645Y3343*
X2645Y3344*
X2646Y3345*
X2646Y3346*
X2646Y3347*
X2646Y3348*
X2653*
G37*
G36*
X2608Y3616D02*
X2607Y3616D01*
X2606Y3616*
X2605Y3616*
X2604Y3615*
X2603Y3615*
X2602Y3614*
X2601Y3614*
X2600Y3613*
X2599Y3612*
X2598Y3611*
Y3628*
X2599Y3627*
X2600Y3626*
X2601Y3625*
X2602Y3625*
X2603Y3624*
X2604Y3624*
X2605Y3623*
X2606Y3623*
X2607Y3623*
X2608Y3623*
Y3616*
G37*
G54D15*
X1329Y2789D02*
X1560Y3020D01*
X1600Y3005D02*
Y3525D01*
X1179Y2689D02*
X1284D01*
X1560Y3020D02*
Y3525D01*
X1179Y2789D02*
X1329D01*
X1284Y2689D02*
X1600Y3005D01*
X1560Y3525D02*
X1685Y3650D01*
X1600Y3525D02*
X1705Y3630D01*
X2275D02*
X2375Y3730D01*
X1685Y3650D02*
X2195D01*
X1705Y3630D02*
X2275D01*
X2195Y3650D02*
X2275Y3730D01*
G54D18*
X1900Y1530D02*
Y1900D01*
X1585Y3670D02*
X1690D01*
X1740Y3720*
X1338Y3423D02*
X1585Y3670D01*
X1740Y3720D02*
X1765D01*
X3540Y2700D02*
Y2870D01*
X1710Y3230D02*
X1930Y3010D01*
X3400*
X3540Y2870*
X1655Y3135D02*
Y3400D01*
X1725Y3470D02*
X2070D01*
X1655Y3400D02*
X1725Y3470D01*
X1655Y3135D02*
X1830Y2960D01*
X2440Y930D02*
X2840D01*
X2220Y1300D02*
X2490Y1030D01*
X2850*
X2110Y1260D02*
X2440Y930D01*
X992Y3340D02*
X1075Y3423D01*
X992Y2976D02*
Y3340D01*
Y2976D02*
X1079Y2889D01*
X1900Y1900D02*
X1930Y1930D01*
X2590Y3620D02*
X2630D01*
X630Y1090D02*
Y2630D01*
X889Y2889D02*
X1079D01*
X630Y2630D02*
X889Y2889D01*
X740Y1070D02*
X920Y890D01*
X740Y1070D02*
Y2380D01*
X920Y890D02*
X1250D01*
X1380Y1020*
Y1200*
X1480Y1300D02*
X2220D01*
X1380Y1200D02*
X1480Y1300D01*
X630Y1090D02*
X890Y830D01*
X1270*
X1440Y1000*
Y1160*
X1540Y1260*
X2110*
X1980Y3160D02*
X2060D01*
X1780Y3360D02*
X1980Y3160D01*
X2630Y3620D02*
X2650Y3600D01*
Y3330D02*
Y3600D01*
G54D74*
X3852Y3591D03*
Y3368D03*
X3842Y551D03*
Y328D03*
G54D110*
X3475Y3830D03*
X3375D03*
X3275D03*
X3175D03*
X3075D03*
X2975D03*
X2875D03*
X2775D03*
X2675D03*
X2575D03*
X2475D03*
X2375D03*
X2275D03*
X2175D03*
X2075D03*
X1975D03*
X1875D03*
X1775D03*
X1675D03*
X1575D03*
X3475Y3730D03*
X3375D03*
X3275D03*
X3175D03*
X3075D03*
X2975D03*
X2875D03*
X2775D03*
X2675D03*
X2575D03*
X2475D03*
X2375D03*
X2275D03*
X2175D03*
X2075D03*
X1975D03*
X1875D03*
X1775D03*
X1675D03*
G54D111*
X1575Y3730D03*
G54D119*
X2853Y2544D02*
X2856Y2548D01*
X2853Y2537D02*
Y2544D01*
X2851Y2261D02*
Y2535D01*
X2853Y2537*
X2810Y2220D02*
X2851Y2261D01*
X2240Y2260D02*
X2760D01*
X1474Y3505D02*
X1548Y3579D01*
X1474Y3329D02*
Y3505D01*
X3280Y1910D02*
X3470D01*
X2100Y1830D02*
X2160Y1890D01*
Y2270*
X2570Y2680*
X2670Y1196D02*
Y1350D01*
X2360Y1410D02*
X2361Y1411D01*
Y1426D02*
X2405Y1470D01*
X2460*
X2361Y1411D02*
Y1426D01*
X2600Y1520D02*
X2617Y1537D01*
X1075Y3423D02*
X1338D01*
X1765Y3720D02*
X1775Y3730D01*
X1390Y2640D02*
X1470Y2720D01*
X1810*
X1330Y1960D02*
X1660D01*
X1750Y2050*
X1179Y2079D02*
Y2089D01*
X1010Y2040D02*
X1140D01*
X1179Y2079*
X960Y1990D02*
X1010Y2040D01*
X960Y1920D02*
Y1990D01*
Y1920D02*
X1039Y1840D01*
X1210*
X1330Y1960*
X1079Y1989D02*
X1129Y1940D01*
X1240D02*
X1330Y2030D01*
X1079Y1989D02*
Y2019D01*
X1330Y2030D02*
Y2270D01*
X1129Y1940D02*
X1240D01*
X1455Y2027D02*
Y2105D01*
X1330Y2270D02*
X1540Y2480D01*
X1030Y2139D02*
Y2310D01*
X1079Y2089D02*
D01*
X1030Y2139D02*
X1079Y2089D01*
X1250Y2240D02*
X1580Y2570D01*
X1079Y2199D02*
X1120Y2240D01*
X1250*
X1079Y2189D02*
Y2199D01*
X2410Y1520D02*
X2600D01*
X1262Y2340D02*
X1562Y2640D01*
X1060Y2340D02*
X1262D01*
X1030Y2310D02*
X1060Y2340D01*
X1562Y2640D02*
X1770D01*
X1580Y2570D02*
X1730D01*
X1540Y2480D02*
X1690D01*
X1490Y2140D02*
Y2323D01*
X1576Y2410*
X1620*
X1455Y2105D02*
X1490Y2140D01*
X2380Y2310D02*
X2630Y2560D01*
X2300Y2320D02*
X2600Y2620D01*
X2780*
X2100Y1810D02*
X2100Y1810D01*
Y1830*
X2630Y2560D02*
X2770D01*
X2570Y2680D02*
X2740D01*
G54D127*
X157Y3779D03*
X3779D03*
Y157D03*
X157D03*
G54D128*
X1141Y998D03*
X236D03*
Y3281D03*
X1141D03*
G54D129*
X879Y1189D03*
X979Y1289D03*
X1179Y1189D03*
X1079D03*
X1179Y1289D03*
X1079D03*
X1179Y1389D03*
X1079D03*
X1179Y1489D03*
X1079D03*
X1179Y1589D03*
X1079D03*
X1179Y1689D03*
X1079D03*
X1179Y1789D03*
X1079D03*
X1179Y1889D03*
X1079D03*
X1179Y1989D03*
X1079D03*
X1179Y2089D03*
X1079D03*
X1179Y2189D03*
X1079D03*
X1179Y2289D03*
X1079D03*
X1179Y2389D03*
X1079D03*
X1179Y2489D03*
X1079D03*
X1179Y2589D03*
X1079D03*
X1179Y2689D03*
X1079D03*
X1179Y2789D03*
X1079D03*
X1179Y2889D03*
X1079D03*
X1179Y2989D03*
X1079D03*
X1179Y3089D03*
G54D130*
X879Y1289D03*
X979Y1189D03*
X1079Y3089D03*
G54D131*
X1570Y660D03*
X600Y260D03*
G54D132*
X1470Y660D03*
X1370D03*
X500Y260D03*
X400D03*
G54D133*
X2320Y3300D03*
X1380Y305D03*
X965Y3705D03*
X960Y3820D03*
X430Y3610D03*
X470Y3750D03*
X380D03*
X390Y3670D03*
X468Y3675D03*
X380Y3840D03*
X470D03*
X1750Y2280D03*
X2300Y1699D03*
X2310Y2120D03*
Y2170D03*
X2615Y2045D03*
X2400Y2120D03*
X1470Y387D03*
X1990Y1990D03*
X550Y3840D03*
X2710Y3330D03*
X1510Y3280D03*
X1520Y3510D03*
X2280Y610D03*
X2190D03*
X2292Y521D03*
X2190Y530D03*
X2200Y430D03*
X2310D03*
X2220Y340D03*
X2270Y680D03*
X2180D03*
X2100D03*
X2020D03*
X1920D03*
X1830D03*
X1510Y2030D03*
X1900Y1530D03*
X1970D03*
X1750Y2000D03*
X2810Y2280D03*
X2760Y2200D03*
X3430Y1950D03*
X3280Y1970D03*
X2570Y1580D03*
X2610Y1170D03*
Y1350D03*
X2530Y3620D03*
X1970Y3440D03*
X2060Y3220D03*
X1820Y3400D03*
X1710Y3290D03*
X1780Y2930D03*
X3600Y2700D03*
X2250Y2310D03*
X2530Y1470D03*
X2410Y1360D03*
X2840Y870D03*
X2910Y1030D03*
X700Y2330D03*
X1370Y2700D03*
X1680Y2390D03*
X1670Y2530D03*
X1680Y2610D03*
X1720Y2680D03*
X1760Y2760D03*
X1548Y3579D03*
X1474Y3329D03*
X2170Y810D03*
X3005Y3040D03*
X2082Y2314D03*
X2735Y1845D03*
X2606Y1850D03*
X2390Y1683D03*
X2571Y1970D03*
X2470Y2195D03*
X2965Y1190D03*
X2670Y1196D03*
X2915Y2685D03*
X3105Y1335D03*
X1340Y1905D03*
X1710Y2155D03*
X1745Y1930D03*
X2020Y1750D03*
X2080Y1135D03*
X1930Y1130D03*
X1820Y1125D03*
X2110Y1950D03*
X2617Y1537D03*
X1424Y3565D03*
X1820Y3535D03*
X2115Y3570D03*
X1140Y3715D03*
X1046Y3700D03*
Y3825D03*
X1140Y3820D03*
X2390Y1580D03*
X2310D03*
X2865Y3050D03*
X2745Y3055D03*
X2625D03*
X2510Y3060D03*
X1750Y2050D03*
X1580Y210D03*
X1600Y1190D03*
X1525Y1100D03*
Y1190D03*
X582Y3679D03*
X590Y3530D03*
X3285Y1160D03*
X3580Y2000D03*
X3120Y2653D03*
X2730Y2835D03*
X2420Y3620D03*
X2590D03*
X2600Y3550D03*
X1065Y3495D03*
X985D03*
X3120Y2890D03*
X2770D03*
X1400Y2270D03*
X1455Y2027D03*
X1940Y1670D03*
X890Y460D03*
X1080Y450D03*
X2590Y250D03*
Y350D03*
Y130D03*
X2480Y350D03*
X1500Y910D03*
Y990D03*
X1930Y910D03*
X1600D03*
X2640Y3250D03*
X2740D03*
X2860Y3270D03*
X3000Y3320D03*
X1990Y3070D03*
X1900Y2840D03*
X2090Y2870D03*
X2280Y2830D03*
X3040Y2050D03*
X3220Y2400D03*
X3280Y2650D03*
X2800Y2350D03*
X2810Y2220D03*
X740Y2380D03*
X2850Y1030D03*
X2840Y930D03*
X2410Y1520D03*
X1930Y1930D03*
X3470Y2190D03*
X3680Y2290D03*
X3570Y2210D03*
X3660Y1880D03*
X3790Y2000D03*
Y2080D03*
X2070Y3470D03*
X1830Y2960D03*
X3750Y2870D03*
X1390Y2640D03*
X1810Y2720D03*
X1770Y2640D03*
X1730Y2570D03*
X1690Y2480D03*
X3540Y2700D03*
X1620Y2410D03*
X1710Y3230D03*
X2050Y3160D03*
X1780Y3360D03*
X2650Y3330D03*
X3310Y3380D03*
X3660Y3220D03*
X3700Y3590D03*
Y3370D03*
X3852Y3368D03*
Y3591D03*
X2450Y3250D03*
X2430Y3489D03*
X3280Y1910D03*
X3470D03*
X2380Y2310D03*
X2300Y2320D03*
X2100Y1810D03*
X2770Y2560D03*
X2740Y2680D03*
X2780Y2620D03*
X2856Y2548D03*
X2240Y2260D03*
X2760D03*
X3380Y1160D03*
X2410Y1840D03*
X2340D03*
X2410Y1910D03*
X2340D03*
X2270Y1840D03*
Y1910D03*
X2340Y1980D03*
X2410D03*
X2270D03*
X2670Y1350D03*
X2360Y1410D03*
X2460Y1470D03*
X2850Y450D03*
Y520D03*
G54D134*
X3830Y555D03*
X1580Y430D03*
X3830Y320D03*
X3030Y990D03*
X3010Y1580D03*
X3090Y1650D03*
X3470Y1540D03*
X2850Y740D03*
X3460Y350D03*
X3440Y490D03*
X3720Y650D03*
X3700Y330D03*
Y550D03*
G54D135*
X3240Y1450D03*
M02*