%FSLAX23Y23*%
%MOIN*%
%SFA1B1*%

%IPPOS*%
%ADD10C,0.009840*%
%ADD11C,0.003940*%
%ADD12C,0.006890*%
%ADD13C,0.007870*%
%ADD14C,0.015750*%
%ADD15C,0.010000*%
%ADD16C,0.006000*%
%ADD17C,0.005000*%
%ADD18C,0.007090*%
%LNconcentrator_pcb-1*%
%LPD*%
G36*
X2496Y3488D02*
X2506D01*
Y3473*
X2496*
Y3488*
G37*
G54D10*
X3194Y1120D02*
D01*
X3194Y1120*
X3194Y1120*
X3194Y1121*
X3194Y1121*
X3194Y1121*
X3193Y1122*
X3193Y1122*
X3193Y1122*
X3193Y1123*
X3193Y1123*
X3192Y1123*
X3192Y1123*
X3192Y1124*
X3192Y1124*
X3191Y1124*
X3191Y1124*
X3191Y1124*
X3190Y1124*
X3190Y1124*
X3190Y1125*
X3189Y1125*
X3189Y1125*
X3189*
X3188Y1125*
X3188Y1125*
X3188Y1124*
X3187Y1124*
X3187Y1124*
X3187Y1124*
X3187Y1124*
X3186Y1124*
X3186Y1124*
X3186Y1123*
X3185Y1123*
X3185Y1123*
X3185Y1123*
X3185Y1122*
X3185Y1122*
X3184Y1122*
X3184Y1121*
X3184Y1121*
X3184Y1121*
X3184Y1120*
X3184Y1120*
X3184Y1120*
X3184Y1119*
X3184Y1119*
X3184Y1119*
X3184Y1118*
X3184Y1118*
X3184Y1118*
X3185Y1117*
X3185Y1117*
X3185Y1117*
X3185Y1116*
X3185Y1116*
X3186Y1116*
X3186Y1116*
X3186Y1116*
X3187Y1115*
X3187Y1115*
X3187Y1115*
X3187Y1115*
X3188Y1115*
X3188Y1115*
X3188Y1115*
X3189Y1115*
X3189*
X3189Y1115*
X3190Y1115*
X3190Y1115*
X3190Y1115*
X3191Y1115*
X3191Y1115*
X3191Y1115*
X3192Y1116*
X3192Y1116*
X3192Y1116*
X3192Y1116*
X3193Y1116*
X3193Y1117*
X3193Y1117*
X3193Y1117*
X3193Y1118*
X3194Y1118*
X3194Y1118*
X3194Y1119*
X3194Y1119*
X3194Y1119*
X3194Y1120*
X2976Y2440D02*
D01*
X2976Y2440*
X2976Y2440*
X2976Y2441*
X2976Y2441*
X2976Y2441*
X2976Y2442*
X2975Y2442*
X2975Y2442*
X2975Y2442*
X2975Y2443*
X2975Y2443*
X2974Y2443*
X2974Y2443*
X2974Y2444*
X2974Y2444*
X2973Y2444*
X2973Y2444*
X2973Y2444*
X2972Y2444*
X2972Y2444*
X2972Y2444*
X2971Y2444*
X2971*
X2971Y2444*
X2970Y2444*
X2970Y2444*
X2970Y2444*
X2969Y2444*
X2969Y2444*
X2969Y2444*
X2968Y2444*
X2968Y2443*
X2968Y2443*
X2968Y2443*
X2967Y2443*
X2967Y2442*
X2967Y2442*
X2967Y2442*
X2967Y2442*
X2967Y2441*
X2966Y2441*
X2966Y2441*
X2966Y2440*
X2966Y2440*
X2966Y2440*
X2966Y2439*
X2966Y2439*
X2966Y2438*
X2966Y2438*
X2967Y2438*
X2967Y2437*
X2967Y2437*
X2967Y2437*
X2967Y2437*
X2967Y2436*
X2968Y2436*
X2968Y2436*
X2968Y2436*
X2968Y2435*
X2969Y2435*
X2969Y2435*
X2969Y2435*
X2970Y2435*
X2970Y2435*
X2970Y2435*
X2971Y2435*
X2971Y2435*
X2971*
X2972Y2435*
X2972Y2435*
X2972Y2435*
X2973Y2435*
X2973Y2435*
X2973Y2435*
X2974Y2435*
X2974Y2435*
X2974Y2436*
X2974Y2436*
X2975Y2436*
X2975Y2436*
X2975Y2437*
X2975Y2437*
X2975Y2437*
X2976Y2437*
X2976Y2438*
X2976Y2438*
X2976Y2438*
X2976Y2439*
X2976Y2439*
X2976Y2440*
X645Y3887D02*
D01*
X645Y3888*
X645Y3888*
X645Y3888*
X645Y3889*
X644Y3889*
X644Y3889*
X644Y3890*
X644Y3890*
X644Y3890*
X644Y3890*
X643Y3891*
X643Y3891*
X643Y3891*
X643Y3891*
X642Y3892*
X642Y3892*
X642Y3892*
X641Y3892*
X641Y3892*
X641Y3892*
X640Y3892*
X640Y3892*
X640*
X639Y3892*
X639Y3892*
X639Y3892*
X638Y3892*
X638Y3892*
X638Y3892*
X637Y3892*
X637Y3891*
X637Y3891*
X636Y3891*
X636Y3891*
X636Y3890*
X636Y3890*
X636Y3890*
X635Y3890*
X635Y3889*
X635Y3889*
X635Y3889*
X635Y3888*
X635Y3888*
X635Y3888*
X635Y3887*
X635Y3887*
X635Y3887*
X635Y3886*
X635Y3886*
X635Y3886*
X635Y3885*
X635Y3885*
X636Y3885*
X636Y3884*
X636Y3884*
X636Y3884*
X636Y3884*
X637Y3883*
X637Y3883*
X637Y3883*
X638Y3883*
X638Y3883*
X638Y3883*
X639Y3883*
X639Y3882*
X639Y3882*
X640Y3882*
X640*
X640Y3882*
X641Y3882*
X641Y3883*
X641Y3883*
X642Y3883*
X642Y3883*
X642Y3883*
X643Y3883*
X643Y3883*
X643Y3884*
X643Y3884*
X644Y3884*
X644Y3884*
X644Y3885*
X644Y3885*
X644Y3885*
X644Y3886*
X645Y3886*
X645Y3886*
X645Y3887*
X645Y3887*
X645Y3887*
X2205Y3160D02*
D01*
X2205Y3160*
X2205Y3160*
X2205Y3161*
X2205Y3161*
X2205Y3161*
X2204Y3162*
X2204Y3162*
X2204Y3162*
X2204Y3162*
X2204Y3163*
X2204Y3163*
X2203Y3163*
X2203Y3163*
X2203Y3164*
X2202Y3164*
X2202Y3164*
X2202Y3164*
X2202Y3164*
X2201Y3164*
X2201Y3164*
X2200Y3164*
X2200Y3164*
X2200*
X2199Y3164*
X2199Y3164*
X2199Y3164*
X2198Y3164*
X2198Y3164*
X2198Y3164*
X2198Y3164*
X2197Y3164*
X2197Y3163*
X2197Y3163*
X2196Y3163*
X2196Y3163*
X2196Y3162*
X2196Y3162*
X2196Y3162*
X2195Y3162*
X2195Y3161*
X2195Y3161*
X2195Y3161*
X2195Y3160*
X2195Y3160*
X2195Y3160*
X2195Y3159*
X2195Y3159*
X2195Y3158*
X2195Y3158*
X2195Y3158*
X2195Y3157*
X2196Y3157*
X2196Y3157*
X2196Y3157*
X2196Y3156*
X2196Y3156*
X2197Y3156*
X2197Y3156*
X2197Y3155*
X2198Y3155*
X2198Y3155*
X2198Y3155*
X2198Y3155*
X2199Y3155*
X2199Y3155*
X2199Y3155*
X2200Y3155*
X2200*
X2200Y3155*
X2201Y3155*
X2201Y3155*
X2202Y3155*
X2202Y3155*
X2202Y3155*
X2202Y3155*
X2203Y3155*
X2203Y3156*
X2203Y3156*
X2204Y3156*
X2204Y3156*
X2204Y3157*
X2204Y3157*
X2204Y3157*
X2204Y3157*
X2205Y3158*
X2205Y3158*
X2205Y3158*
X2205Y3159*
X2205Y3159*
X2205Y3160*
X1900Y2795D02*
D01*
X1900Y2795*
X1900Y2796*
X1900Y2796*
X1900Y2796*
X1900Y2797*
X1899Y2797*
X1899Y2797*
X1899Y2797*
X1899Y2798*
X1899Y2798*
X1899Y2798*
X1898Y2799*
X1898Y2799*
X1898Y2799*
X1897Y2799*
X1897Y2799*
X1897Y2799*
X1896Y2800*
X1896Y2800*
X1896Y2800*
X1895Y2800*
X1895Y2800*
X1895*
X1894Y2800*
X1894Y2800*
X1894Y2800*
X1893Y2800*
X1893Y2799*
X1893Y2799*
X1893Y2799*
X1892Y2799*
X1892Y2799*
X1892Y2799*
X1891Y2798*
X1891Y2798*
X1891Y2798*
X1891Y2797*
X1891Y2797*
X1890Y2797*
X1890Y2797*
X1890Y2796*
X1890Y2796*
X1890Y2796*
X1890Y2795*
X1890Y2795*
X1890Y2795*
X1890Y2794*
X1890Y2794*
X1890Y2793*
X1890Y2793*
X1890Y2793*
X1891Y2793*
X1891Y2792*
X1891Y2792*
X1891Y2792*
X1891Y2791*
X1892Y2791*
X1892Y2791*
X1892Y2791*
X1893Y2791*
X1893Y2790*
X1893Y2790*
X1893Y2790*
X1894Y2790*
X1894Y2790*
X1894Y2790*
X1895Y2790*
X1895*
X1895Y2790*
X1896Y2790*
X1896Y2790*
X1896Y2790*
X1897Y2790*
X1897Y2790*
X1897Y2791*
X1898Y2791*
X1898Y2791*
X1898Y2791*
X1899Y2791*
X1899Y2792*
X1899Y2792*
X1899Y2792*
X1899Y2793*
X1899Y2793*
X1900Y2793*
X1900Y2793*
X1900Y2794*
X1900Y2794*
X1900Y2795*
X1900Y2795*
X2281Y2789D02*
D01*
X2281Y2789*
X2281Y2789*
X2281Y2790*
X2281Y2790*
X2281Y2790*
X2281Y2791*
X2281Y2791*
X2281Y2791*
X2280Y2792*
X2280Y2792*
X2280Y2792*
X2280Y2792*
X2279Y2793*
X2279Y2793*
X2279Y2793*
X2279Y2793*
X2278Y2793*
X2278Y2793*
X2278Y2793*
X2277Y2793*
X2277Y2794*
X2277Y2794*
X2276*
X2276Y2794*
X2276Y2793*
X2275Y2793*
X2275Y2793*
X2275Y2793*
X2274Y2793*
X2274Y2793*
X2274Y2793*
X2273Y2793*
X2273Y2792*
X2273Y2792*
X2273Y2792*
X2272Y2792*
X2272Y2791*
X2272Y2791*
X2272Y2791*
X2272Y2790*
X2272Y2790*
X2272Y2790*
X2272Y2789*
X2272Y2789*
X2272Y2789*
X2272Y2788*
X2272Y2788*
X2272Y2788*
X2272Y2787*
X2272Y2787*
X2272Y2787*
X2272Y2786*
X2272Y2786*
X2272Y2786*
X2273Y2785*
X2273Y2785*
X2273Y2785*
X2273Y2785*
X2274Y2785*
X2274Y2784*
X2274Y2784*
X2275Y2784*
X2275Y2784*
X2275Y2784*
X2276Y2784*
X2276Y2784*
X2276Y2784*
X2277*
X2277Y2784*
X2277Y2784*
X2278Y2784*
X2278Y2784*
X2278Y2784*
X2279Y2784*
X2279Y2784*
X2279Y2785*
X2279Y2785*
X2280Y2785*
X2280Y2785*
X2280Y2785*
X2280Y2786*
X2281Y2786*
X2281Y2786*
X2281Y2787*
X2281Y2787*
X2281Y2787*
X2281Y2788*
X2281Y2788*
X2281Y2788*
X2281Y2789*
X1715Y1095D02*
D01*
X1715Y1096*
X1715Y1096*
X1715Y1096*
X1715Y1097*
X1715Y1097*
X1715Y1097*
X1715Y1098*
X1715Y1098*
X1714Y1098*
X1714Y1099*
X1714Y1099*
X1714Y1099*
X1713Y1099*
X1713Y1099*
X1713Y1100*
X1713Y1100*
X1712Y1100*
X1712Y1100*
X1712Y1100*
X1711Y1100*
X1711Y1100*
X1711Y1100*
X1710*
X1710Y1100*
X1710Y1100*
X1709Y1100*
X1709Y1100*
X1709Y1100*
X1708Y1100*
X1708Y1100*
X1708Y1099*
X1707Y1099*
X1707Y1099*
X1707Y1099*
X1707Y1099*
X1706Y1098*
X1706Y1098*
X1706Y1098*
X1706Y1097*
X1706Y1097*
X1706Y1097*
X1706Y1096*
X1705Y1096*
X1705Y1096*
X1705Y1095*
X1705Y1095*
X1705Y1095*
X1706Y1094*
X1706Y1094*
X1706Y1094*
X1706Y1093*
X1706Y1093*
X1706Y1093*
X1706Y1092*
X1707Y1092*
X1707Y1092*
X1707Y1092*
X1707Y1091*
X1708Y1091*
X1708Y1091*
X1708Y1091*
X1709Y1091*
X1709Y1091*
X1709Y1091*
X1710Y1091*
X1710Y1090*
X1710Y1090*
X1711*
X1711Y1090*
X1711Y1091*
X1712Y1091*
X1712Y1091*
X1712Y1091*
X1713Y1091*
X1713Y1091*
X1713Y1091*
X1713Y1091*
X1714Y1092*
X1714Y1092*
X1714Y1092*
X1714Y1092*
X1715Y1093*
X1715Y1093*
X1715Y1093*
X1715Y1094*
X1715Y1094*
X1715Y1094*
X1715Y1095*
X1715Y1095*
X1715Y1095*
X1579Y3659D02*
D01*
X1579Y3659*
X1579Y3659*
X1579Y3660*
X1579Y3660*
X1579Y3660*
X1579Y3661*
X1579Y3661*
X1579Y3661*
X1578Y3662*
X1578Y3662*
X1578Y3662*
X1578Y3662*
X1578Y3663*
X1577Y3663*
X1577Y3663*
X1577Y3663*
X1576Y3663*
X1576Y3663*
X1576Y3663*
X1575Y3663*
X1575Y3664*
X1575Y3664*
X1574*
X1574Y3664*
X1574Y3663*
X1573Y3663*
X1573Y3663*
X1573Y3663*
X1572Y3663*
X1572Y3663*
X1572Y3663*
X1571Y3663*
X1571Y3662*
X1571Y3662*
X1571Y3662*
X1571Y3662*
X1570Y3661*
X1570Y3661*
X1570Y3661*
X1570Y3660*
X1570Y3660*
X1570Y3660*
X1570Y3659*
X1570Y3659*
X1570Y3659*
X1570Y3658*
X1570Y3658*
X1570Y3658*
X1570Y3657*
X1570Y3657*
X1570Y3657*
X1570Y3656*
X1570Y3656*
X1571Y3656*
X1571Y3655*
X1571Y3655*
X1571Y3655*
X1571Y3655*
X1572Y3655*
X1572Y3654*
X1572Y3654*
X1573Y3654*
X1573Y3654*
X1573Y3654*
X1574Y3654*
X1574Y3654*
X1574Y3654*
X1575*
X1575Y3654*
X1575Y3654*
X1576Y3654*
X1576Y3654*
X1576Y3654*
X1577Y3654*
X1577Y3654*
X1577Y3655*
X1578Y3655*
X1578Y3655*
X1578Y3655*
X1578Y3655*
X1578Y3656*
X1579Y3656*
X1579Y3656*
X1579Y3657*
X1579Y3657*
X1579Y3657*
X1579Y3658*
X1579Y3658*
X1579Y3658*
X1579Y3659*
X2094Y2828D02*
D01*
X2094Y2828*
X2094Y2829*
X2094Y2829*
X2094Y2829*
X2094Y2830*
X2094Y2830*
X2094Y2830*
X2094Y2831*
X2093Y2831*
X2093Y2831*
X2093Y2831*
X2093Y2832*
X2093Y2832*
X2092Y2832*
X2092Y2832*
X2092Y2833*
X2091Y2833*
X2091Y2833*
X2091Y2833*
X2090Y2833*
X2090Y2833*
X2090Y2833*
X2089*
X2089Y2833*
X2089Y2833*
X2088Y2833*
X2088Y2833*
X2088Y2833*
X2087Y2833*
X2087Y2832*
X2087Y2832*
X2086Y2832*
X2086Y2832*
X2086Y2831*
X2086Y2831*
X2086Y2831*
X2085Y2831*
X2085Y2830*
X2085Y2830*
X2085Y2830*
X2085Y2829*
X2085Y2829*
X2085Y2829*
X2085Y2828*
X2085Y2828*
X2085Y2828*
X2085Y2827*
X2085Y2827*
X2085Y2827*
X2085Y2826*
X2085Y2826*
X2085Y2826*
X2085Y2825*
X2086Y2825*
X2086Y2825*
X2086Y2825*
X2086Y2824*
X2086Y2824*
X2087Y2824*
X2087Y2824*
X2087Y2824*
X2088Y2824*
X2088Y2823*
X2088Y2823*
X2089Y2823*
X2089Y2823*
X2089Y2823*
X2090*
X2090Y2823*
X2090Y2823*
X2091Y2823*
X2091Y2823*
X2091Y2824*
X2092Y2824*
X2092Y2824*
X2092Y2824*
X2093Y2824*
X2093Y2824*
X2093Y2825*
X2093Y2825*
X2093Y2825*
X2094Y2825*
X2094Y2826*
X2094Y2826*
X2094Y2826*
X2094Y2827*
X2094Y2827*
X2094Y2827*
X2094Y2828*
X2094Y2828*
X3758Y3480D02*
D01*
X3758Y3480*
X3758Y3480*
X3758Y3481*
X3758Y3481*
X3758Y3481*
X3758Y3482*
X3758Y3482*
X3757Y3482*
X3757Y3482*
X3757Y3483*
X3757Y3483*
X3756Y3483*
X3756Y3483*
X3756Y3484*
X3756Y3484*
X3755Y3484*
X3755Y3484*
X3755Y3484*
X3754Y3484*
X3754Y3484*
X3754Y3484*
X3753Y3484*
X3753*
X3753Y3484*
X3752Y3484*
X3752Y3484*
X3752Y3484*
X3751Y3484*
X3751Y3484*
X3751Y3484*
X3750Y3484*
X3750Y3483*
X3750Y3483*
X3750Y3483*
X3749Y3483*
X3749Y3482*
X3749Y3482*
X3749Y3482*
X3749Y3482*
X3749Y3481*
X3748Y3481*
X3748Y3481*
X3748Y3480*
X3748Y3480*
X3748Y3480*
X3748Y3479*
X3748Y3479*
X3748Y3478*
X3748Y3478*
X3749Y3478*
X3749Y3477*
X3749Y3477*
X3749Y3477*
X3749Y3477*
X3749Y3476*
X3750Y3476*
X3750Y3476*
X3750Y3476*
X3750Y3475*
X3751Y3475*
X3751Y3475*
X3751Y3475*
X3752Y3475*
X3752Y3475*
X3752Y3475*
X3753Y3475*
X3753Y3475*
X3753*
X3754Y3475*
X3754Y3475*
X3754Y3475*
X3755Y3475*
X3755Y3475*
X3755Y3475*
X3756Y3475*
X3756Y3475*
X3756Y3476*
X3756Y3476*
X3757Y3476*
X3757Y3476*
X3757Y3477*
X3757Y3477*
X3758Y3477*
X3758Y3477*
X3758Y3478*
X3758Y3478*
X3758Y3478*
X3758Y3479*
X3758Y3479*
X3758Y3480*
X3016Y2604D02*
D01*
X3016Y2604*
X3016Y2604*
X3016Y2605*
X3016Y2605*
X3016Y2605*
X3016Y2606*
X3016Y2606*
X3016Y2606*
X3015Y2606*
X3015Y2607*
X3015Y2607*
X3015Y2607*
X3014Y2607*
X3014Y2608*
X3014Y2608*
X3014Y2608*
X3013Y2608*
X3013Y2608*
X3013Y2608*
X3012Y2608*
X3012Y2608*
X3012Y2609*
X3011*
X3011Y2608*
X3011Y2608*
X3010Y2608*
X3010Y2608*
X3010Y2608*
X3009Y2608*
X3009Y2608*
X3009Y2608*
X3008Y2607*
X3008Y2607*
X3008Y2607*
X3008Y2607*
X3007Y2606*
X3007Y2606*
X3007Y2606*
X3007Y2606*
X3007Y2605*
X3007Y2605*
X3007Y2605*
X3007Y2604*
X3007Y2604*
X3007Y2604*
X3007Y2603*
X3007Y2603*
X3007Y2603*
X3007Y2602*
X3007Y2602*
X3007Y2602*
X3007Y2601*
X3007Y2601*
X3007Y2601*
X3008Y2600*
X3008Y2600*
X3008Y2600*
X3008Y2600*
X3009Y2600*
X3009Y2599*
X3009Y2599*
X3010Y2599*
X3010Y2599*
X3010Y2599*
X3011Y2599*
X3011Y2599*
X3011Y2599*
X3012*
X3012Y2599*
X3012Y2599*
X3013Y2599*
X3013Y2599*
X3013Y2599*
X3014Y2599*
X3014Y2599*
X3014Y2600*
X3014Y2600*
X3015Y2600*
X3015Y2600*
X3015Y2600*
X3015Y2601*
X3016Y2601*
X3016Y2601*
X3016Y2602*
X3016Y2602*
X3016Y2602*
X3016Y2603*
X3016Y2603*
X3016Y2603*
X3016Y2604*
X3518Y500D02*
D01*
X3518Y500*
X3518Y500*
X3518Y501*
X3518Y501*
X3518Y501*
X3518Y502*
X3517Y502*
X3517Y502*
X3517Y503*
X3517Y503*
X3517Y503*
X3516Y503*
X3516Y504*
X3516Y504*
X3516Y504*
X3515Y504*
X3515Y504*
X3515Y504*
X3514Y504*
X3514Y505*
X3514Y505*
X3513Y505*
X3513*
X3513Y505*
X3512Y505*
X3512Y504*
X3512Y504*
X3511Y504*
X3511Y504*
X3511Y504*
X3510Y504*
X3510Y504*
X3510Y503*
X3510Y503*
X3509Y503*
X3509Y503*
X3509Y502*
X3509Y502*
X3509Y502*
X3508Y501*
X3508Y501*
X3508Y501*
X3508Y500*
X3508Y500*
X3508Y500*
X3508Y499*
X3508Y499*
X3508Y499*
X3508Y498*
X3508Y498*
X3509Y498*
X3509Y497*
X3509Y497*
X3509Y497*
X3509Y497*
X3510Y496*
X3510Y496*
X3510Y496*
X3510Y496*
X3511Y495*
X3511Y495*
X3511Y495*
X3512Y495*
X3512Y495*
X3512Y495*
X3513Y495*
X3513Y495*
X3513*
X3514Y495*
X3514Y495*
X3514Y495*
X3515Y495*
X3515Y495*
X3515Y495*
X3516Y495*
X3516Y496*
X3516Y496*
X3516Y496*
X3517Y496*
X3517Y497*
X3517Y497*
X3517Y497*
X3517Y497*
X3518Y498*
X3518Y498*
X3518Y498*
X3518Y499*
X3518Y499*
X3518Y499*
X3518Y500*
X3748Y440D02*
D01*
X3748Y440*
X3748Y440*
X3748Y441*
X3748Y441*
X3748Y441*
X3748Y442*
X3748Y442*
X3747Y442*
X3747Y442*
X3747Y443*
X3747Y443*
X3746Y443*
X3746Y443*
X3746Y444*
X3746Y444*
X3745Y444*
X3745Y444*
X3745Y444*
X3744Y444*
X3744Y444*
X3744Y444*
X3743Y444*
X3743*
X3743Y444*
X3742Y444*
X3742Y444*
X3742Y444*
X3741Y444*
X3741Y444*
X3741Y444*
X3740Y444*
X3740Y443*
X3740Y443*
X3740Y443*
X3739Y443*
X3739Y442*
X3739Y442*
X3739Y442*
X3739Y442*
X3739Y441*
X3738Y441*
X3738Y441*
X3738Y440*
X3738Y440*
X3738Y440*
X3738Y439*
X3738Y439*
X3738Y438*
X3738Y438*
X3739Y438*
X3739Y437*
X3739Y437*
X3739Y437*
X3739Y437*
X3739Y436*
X3740Y436*
X3740Y436*
X3740Y436*
X3740Y435*
X3741Y435*
X3741Y435*
X3741Y435*
X3742Y435*
X3742Y435*
X3742Y435*
X3743Y435*
X3743Y435*
X3743*
X3744Y435*
X3744Y435*
X3744Y435*
X3745Y435*
X3745Y435*
X3745Y435*
X3746Y435*
X3746Y435*
X3746Y436*
X3746Y436*
X3747Y436*
X3747Y436*
X3747Y437*
X3747Y437*
X3748Y437*
X3748Y437*
X3748Y438*
X3748Y438*
X3748Y438*
X3748Y439*
X3748Y439*
X3748Y440*
X3203Y1256D02*
D01*
X3203Y1256*
X3203Y1257*
X3203Y1257*
X3203Y1257*
X3203Y1258*
X3203Y1258*
X3203Y1258*
X3202Y1259*
X3202Y1259*
X3202Y1259*
X3202Y1259*
X3202Y1260*
X3201Y1260*
X3201Y1260*
X3201Y1260*
X3200Y1260*
X3200Y1261*
X3200Y1261*
X3199Y1261*
X3199Y1261*
X3199Y1261*
X3198Y1261*
X3198*
X3198Y1261*
X3197Y1261*
X3197Y1261*
X3197Y1261*
X3196Y1261*
X3196Y1260*
X3196Y1260*
X3196Y1260*
X3195Y1260*
X3195Y1260*
X3195Y1259*
X3195Y1259*
X3194Y1259*
X3194Y1259*
X3194Y1258*
X3194Y1258*
X3194Y1258*
X3194Y1257*
X3193Y1257*
X3193Y1257*
X3193Y1256*
X3193Y1256*
X3193Y1256*
X3193Y1255*
X3193Y1255*
X3194Y1255*
X3194Y1254*
X3194Y1254*
X3194Y1254*
X3194Y1253*
X3194Y1253*
X3195Y1253*
X3195Y1253*
X3195Y1252*
X3195Y1252*
X3196Y1252*
X3196Y1252*
X3196Y1252*
X3196Y1251*
X3197Y1251*
X3197Y1251*
X3197Y1251*
X3198Y1251*
X3198Y1251*
X3198*
X3199Y1251*
X3199Y1251*
X3199Y1251*
X3200Y1251*
X3200Y1251*
X3200Y1252*
X3201Y1252*
X3201Y1252*
X3201Y1252*
X3202Y1252*
X3202Y1253*
X3202Y1253*
X3202Y1253*
X3202Y1253*
X3203Y1254*
X3203Y1254*
X3203Y1254*
X3203Y1255*
X3203Y1255*
X3203Y1255*
X3203Y1256*
X3203Y1256*
G54D11*
X3672Y3480D02*
D01*
X3672Y3481*
X3672Y3481*
X3672Y3481*
X3672Y3481*
X3672Y3481*
X3672Y3481*
X3672Y3481*
X3672Y3481*
X3672Y3482*
X3672Y3482*
X3672Y3482*
X3671Y3482*
X3671Y3482*
X3671Y3482*
X3671Y3482*
X3671Y3482*
X3671Y3482*
X3671Y3482*
X3671Y3482*
X3671Y3482*
X3670Y3482*
X3670Y3482*
X3670*
X3670Y3482*
X3670Y3482*
X3670Y3482*
X3670Y3482*
X3669Y3482*
X3669Y3482*
X3669Y3482*
X3669Y3482*
X3669Y3482*
X3669Y3482*
X3669Y3482*
X3669Y3482*
X3669Y3482*
X3668Y3481*
X3668Y3481*
X3668Y3481*
X3668Y3481*
X3668Y3481*
X3668Y3481*
X3668Y3481*
X3668Y3481*
X3668Y3480*
X3668Y3480*
X3668Y3480*
X3668Y3480*
X3668Y3480*
X3668Y3480*
X3668Y3480*
X3668Y3479*
X3668Y3479*
X3669Y3479*
X3669Y3479*
X3669Y3479*
X3669Y3479*
X3669Y3479*
X3669Y3479*
X3669Y3479*
X3669Y3479*
X3669Y3479*
X3670Y3479*
X3670Y3478*
X3670Y3478*
X3670Y3478*
X3670Y3478*
X3670*
X3670Y3478*
X3671Y3478*
X3671Y3478*
X3671Y3479*
X3671Y3479*
X3671Y3479*
X3671Y3479*
X3671Y3479*
X3671Y3479*
X3671Y3479*
X3672Y3479*
X3672Y3479*
X3672Y3479*
X3672Y3479*
X3672Y3479*
X3672Y3480*
X3672Y3480*
X3672Y3480*
X3672Y3480*
X3672Y3480*
X3672Y3480*
X3672Y3480*
X1279Y3321D02*
D01*
X1279Y3327*
X1278Y3334*
X1277Y3341*
X1275Y3348*
X1273Y3354*
X1271Y3361*
X1268Y3367*
X1264Y3373*
X1260Y3378*
X1256Y3384*
X1251Y3389*
X1246Y3394*
X1241Y3398*
X1236Y3402*
X1230Y3406*
X1224Y3409*
X1217Y3412*
X1211Y3414*
X1204Y3416*
X1198Y3418*
X1191Y3418*
X1184Y3419*
X1179Y3419*
X1179Y860D02*
D01*
X1186Y860*
X1193Y861*
X1200Y862*
X1207Y864*
X1213Y866*
X1220Y869*
X1226Y872*
X1232Y875*
X1238Y879*
X1243Y883*
X1249Y888*
X1253Y893*
X1258Y898*
X1262Y904*
X1266Y910*
X1269Y916*
X1272Y922*
X1274Y929*
X1276Y936*
X1278Y943*
X1278Y949*
X1279Y956*
X1279Y958*
X98Y958D02*
D01*
X98Y952*
X99Y945*
X100Y938*
X102Y931*
X104Y925*
X106Y918*
X109Y912*
X113Y906*
X117Y901*
X121Y895*
X126Y890*
X131Y885*
X136Y881*
X141Y877*
X147Y873*
X153Y870*
X159Y867*
X166Y865*
X173Y863*
X179Y861*
X186Y860*
X193Y860*
X198Y860*
X198Y3419D02*
D01*
X191Y3419*
X184Y3418*
X177Y3417*
X170Y3415*
X164Y3413*
X157Y3410*
X151Y3407*
X145Y3404*
X139Y3400*
X134Y3396*
X128Y3391*
X124Y3386*
X119Y3381*
X115Y3375*
X111Y3369*
X108Y3363*
X105Y3356*
X103Y3350*
X101Y3343*
X99Y3336*
X98Y3329*
X98Y3322*
X98Y3321*
X1080Y3436D02*
D01*
X1080Y3436*
X1080Y3437*
X1080Y3437*
X1080Y3437*
X1080Y3437*
X1080Y3437*
X1080Y3437*
X1080Y3437*
X1079Y3437*
X1079Y3438*
X1079Y3438*
X1079Y3438*
X1079Y3438*
X1079Y3438*
X1079Y3438*
X1079Y3438*
X1079Y3438*
X1078Y3438*
X1078Y3438*
X1078Y3438*
X1078Y3438*
X1078Y3438*
X1078*
X1078Y3438*
X1077Y3438*
X1077Y3438*
X1077Y3438*
X1077Y3438*
X1077Y3438*
X1077Y3438*
X1077Y3438*
X1077Y3438*
X1077Y3438*
X1076Y3438*
X1076Y3438*
X1076Y3437*
X1076Y3437*
X1076Y3437*
X1076Y3437*
X1076Y3437*
X1076Y3437*
X1076Y3437*
X1076Y3437*
X1076Y3436*
X1076Y3436*
D01*
X1076Y3436*
X1076Y3436*
X1076Y3436*
X1076Y3436*
X1076Y3436*
X1076Y3436*
X1076Y3435*
X1076Y3435*
X1076Y3435*
X1076Y3435*
X1076Y3435*
X1077Y3435*
X1077Y3435*
X1077Y3435*
X1077Y3435*
X1077Y3435*
X1077Y3434*
X1077Y3434*
X1077Y3434*
X1078Y3434*
X1078Y3434*
X1078Y3434*
X1078*
X1078Y3434*
X1078Y3434*
X1078Y3434*
X1078Y3434*
X1079Y3434*
X1079Y3435*
X1079Y3435*
X1079Y3435*
X1079Y3435*
X1079Y3435*
X1079Y3435*
X1079Y3435*
X1079Y3435*
X1080Y3435*
X1080Y3435*
X1080Y3436*
X1080Y3436*
X1080Y3436*
X1080Y3436*
X1080Y3436*
X1080Y3436*
X1080Y3436*
X2919Y742D02*
X2923D01*
X2919*
X1279Y958D02*
Y3321D01*
X198Y860D02*
X1179D01*
X98Y958D02*
Y3321D01*
X198Y3419D02*
X1179D01*
X836Y1330D02*
X922D01*
X836Y1149D02*
Y1330D01*
Y1149D02*
X922D01*
Y1330*
X936D02*
X1022D01*
X936Y1149D02*
Y1330D01*
Y1149D02*
X1022D01*
Y1330*
G54D12*
X2190Y2040D02*
D01*
X2190Y2041*
X2190Y2041*
X2190Y2041*
X2190Y2041*
X2190Y2042*
X2190Y2042*
X2190Y2042*
X2190Y2042*
X2190Y2042*
X2190Y2043*
X2189Y2043*
X2189Y2043*
X2189Y2043*
X2189Y2043*
X2189Y2043*
X2188Y2044*
X2188Y2044*
X2188Y2044*
X2188Y2044*
X2188Y2044*
X2187Y2044*
X2187Y2044*
X2187*
X2187Y2044*
X2186Y2044*
X2186Y2044*
X2186Y2044*
X2186Y2044*
X2185Y2044*
X2185Y2043*
X2185Y2043*
X2185Y2043*
X2185Y2043*
X2184Y2043*
X2184Y2043*
X2184Y2042*
X2184Y2042*
X2184Y2042*
X2184Y2042*
X2184Y2042*
X2184Y2041*
X2184Y2041*
X2184Y2041*
X2183Y2041*
X2183Y2040*
X2183Y2040*
X2184Y2040*
X2184Y2040*
X2184Y2039*
X2184Y2039*
X2184Y2039*
X2184Y2039*
X2184Y2039*
X2184Y2038*
X2184Y2038*
X2184Y2038*
X2185Y2038*
X2185Y2038*
X2185Y2038*
X2185Y2037*
X2185Y2037*
X2186Y2037*
X2186Y2037*
X2186Y2037*
X2186Y2037*
X2187Y2037*
X2187Y2037*
X2187*
X2187Y2037*
X2188Y2037*
X2188Y2037*
X2188Y2037*
X2188Y2037*
X2188Y2037*
X2189Y2037*
X2189Y2038*
X2189Y2038*
X2189Y2038*
X2189Y2038*
X2190Y2038*
X2190Y2038*
X2190Y2039*
X2190Y2039*
X2190Y2039*
X2190Y2039*
X2190Y2039*
X2190Y2040*
X2190Y2040*
X2190Y2040*
X2190Y2040*
G54D13*
X2509Y3320D02*
D01*
X2509Y3320*
X2509Y3320*
X2509Y3320*
X2509Y3320*
X2509Y3320*
X2509Y3320*
X2509Y3320*
X2509Y3321*
X2508Y3321*
X2508Y3321*
X2508Y3321*
X2508Y3321*
X2508Y3321*
X2508Y3321*
X2508Y3321*
X2508Y3321*
X2508Y3321*
X2508Y3321*
X2507Y3321*
X2507Y3321*
X2507Y3321*
X2507Y3321*
X2507*
X2507Y3321*
X2507Y3321*
X2506Y3321*
X2506Y3321*
X2506Y3321*
X2506Y3321*
X2506Y3321*
X2506Y3321*
X2506Y3321*
X2506Y3321*
X2505Y3321*
X2505Y3321*
X2505Y3321*
X2505Y3321*
X2505Y3320*
X2505Y3320*
X2505Y3320*
X2505Y3320*
X2505Y3320*
X2505Y3320*
X2505Y3320*
X2505Y3320*
D01*
X2505Y3319*
X2505Y3319*
X2505Y3319*
X2505Y3319*
X2505Y3319*
X2505Y3319*
X2505Y3319*
X2505Y3318*
X2505Y3318*
X2505Y3318*
X2505Y3318*
X2506Y3318*
X2506Y3318*
X2506Y3318*
X2506Y3318*
X2506Y3318*
X2506Y3318*
X2506Y3318*
X2506Y3318*
X2507Y3318*
X2507Y3318*
X2507Y3318*
X2507*
X2507Y3318*
X2507Y3318*
X2507Y3318*
X2508Y3318*
X2508Y3318*
X2508Y3318*
X2508Y3318*
X2508Y3318*
X2508Y3318*
X2508Y3318*
X2508Y3318*
X2508Y3318*
X2508Y3318*
X2509Y3318*
X2509Y3319*
X2509Y3319*
X2509Y3319*
X2509Y3319*
X2509Y3319*
X2509Y3319*
X2509Y3319*
X2509Y3320*
D01*
X2509Y3320*
X2509Y3320*
X2509Y3320*
X2509Y3320*
X2509Y3320*
X2509Y3320*
X2509Y3320*
X2509Y3321*
X2508Y3321*
X2508Y3321*
X2508Y3321*
X2508Y3321*
X2508Y3321*
X2508Y3321*
X2508Y3321*
X2508Y3321*
X2508Y3321*
X2508Y3321*
X2507Y3321*
X2507Y3321*
X2507Y3321*
X2507Y3321*
X2507*
X2507Y3321*
X2507Y3321*
X2506Y3321*
X2506Y3321*
X2506Y3321*
X2506Y3321*
X2506Y3321*
X2506Y3321*
X2506Y3321*
X2506Y3321*
X2505Y3321*
X2505Y3321*
X2505Y3321*
X2505Y3321*
X2505Y3320*
X2505Y3320*
X2505Y3320*
X2505Y3320*
X2505Y3320*
X2505Y3320*
X2505Y3320*
X2505Y3320*
X3648Y2909D02*
D01*
X3648Y2909*
X3648Y2909*
X3648Y2909*
X3648Y2908*
X3648Y2908*
X3647Y2908*
X3647Y2908*
X3647Y2908*
X3647Y2908*
X3647Y2908*
X3647Y2908*
X3647Y2908*
X3647Y2908*
X3647Y2908*
X3646Y2908*
X3646Y2907*
X3646Y2907*
X3646Y2907*
X3646Y2907*
X3646Y2907*
X3646Y2907*
X3646Y2907*
Y2907*
X3646Y2906*
X3646Y2906*
X3646Y2906*
X3646Y2906*
X3646Y2906*
X3646Y2906*
X3646Y2906*
X3647Y2905*
X3647Y2905*
X3647Y2905*
X3647Y2905*
X3647Y2905*
X3647Y2905*
X3647Y2905*
X3647Y2905*
X3647Y2905*
X3648Y2905*
X3648Y2905*
X3648Y2905*
X3648Y2905*
X3648Y2905*
X3648Y2905*
D01*
X3648Y2905*
X3648Y2905*
X3649Y2905*
X3649Y2905*
X3649Y2905*
X3649Y2905*
X3649Y2905*
X3649Y2905*
X3649Y2905*
X3649Y2905*
X3650Y2905*
X3650Y2905*
X3650Y2905*
X3650Y2905*
X3650Y2906*
X3650Y2906*
X3650Y2906*
X3650Y2906*
X3650Y2906*
X3650Y2906*
X3650Y2906*
X3650Y2907*
Y2907*
X3650Y2907*
X3650Y2907*
X3650Y2907*
X3650Y2907*
X3650Y2907*
X3650Y2907*
X3650Y2908*
X3650Y2908*
X3650Y2908*
X3650Y2908*
X3650Y2908*
X3649Y2908*
X3649Y2908*
X3649Y2908*
X3649Y2908*
X3649Y2908*
X3649Y2908*
X3649Y2908*
X3649Y2909*
X3648Y2909*
X3648Y2909*
X3648Y2909*
D01*
X3648Y2909*
X3648Y2909*
X3648Y2909*
X3648Y2908*
X3648Y2908*
X3647Y2908*
X3647Y2908*
X3647Y2908*
X3647Y2908*
X3647Y2908*
X3647Y2908*
X3647Y2908*
X3647Y2908*
X3647Y2908*
X3646Y2908*
X3646Y2907*
X3646Y2907*
X3646Y2907*
X3646Y2907*
X3646Y2907*
X3646Y2907*
X3646Y2907*
Y2907*
X3646Y2906*
X3646Y2906*
X3646Y2906*
X3646Y2906*
X3646Y2906*
X3646Y2906*
X3646Y2906*
X3647Y2905*
X3647Y2905*
X3647Y2905*
X3647Y2905*
X3647Y2905*
X3647Y2905*
X3647Y2905*
X3647Y2905*
X3647Y2905*
X3648Y2905*
X3648Y2905*
X3648Y2905*
X3648Y2905*
X3648Y2905*
X3648Y2905*
X3727Y1965D02*
D01*
X3727Y1965*
X3727Y1965*
X3727Y1966*
X3727Y1966*
X3727Y1966*
X3727Y1966*
X3726Y1967*
X3726Y1967*
X3726Y1967*
X3726Y1967*
X3726Y1967*
X3726Y1968*
X3725Y1968*
X3725Y1968*
X3725Y1968*
X3725Y1968*
X3724Y1968*
X3724Y1968*
X3724Y1969*
X3724Y1969*
X3723Y1969*
X3723Y1969*
X3723*
X3723Y1969*
X3722Y1969*
X3722Y1969*
X3722Y1968*
X3721Y1968*
X3721Y1968*
X3721Y1968*
X3721Y1968*
X3721Y1968*
X3720Y1968*
X3720Y1967*
X3720Y1967*
X3720Y1967*
X3720Y1967*
X3719Y1967*
X3719Y1966*
X3719Y1966*
X3719Y1966*
X3719Y1966*
X3719Y1965*
X3719Y1965*
X3719Y1965*
X3719Y1964*
X3719Y1964*
X3719Y1964*
X3719Y1964*
X3719Y1963*
X3719Y1963*
X3719Y1963*
X3720Y1963*
X3720Y1962*
X3720Y1962*
X3720Y1962*
X3720Y1962*
X3721Y1962*
X3721Y1961*
X3721Y1961*
X3721Y1961*
X3721Y1961*
X3722Y1961*
X3722Y1961*
X3722Y1961*
X3723Y1961*
X3723Y1961*
X3723*
X3723Y1961*
X3724Y1961*
X3724Y1961*
X3724Y1961*
X3724Y1961*
X3725Y1961*
X3725Y1961*
X3725Y1961*
X3725Y1962*
X3726Y1962*
X3726Y1962*
X3726Y1962*
X3726Y1962*
X3726Y1963*
X3726Y1963*
X3727Y1963*
X3727Y1963*
X3727Y1964*
X3727Y1964*
X3727Y1964*
X3727Y1964*
X3727Y1965*
X3510Y2300D02*
D01*
X3510Y2299*
X3510Y2299*
X3510Y2299*
X3511Y2299*
X3511Y2299*
X3511Y2299*
X3511Y2299*
X3511Y2298*
X3511Y2298*
X3511Y2298*
X3511Y2298*
X3511Y2298*
X3511Y2298*
X3511Y2298*
X3511Y2298*
X3512Y2298*
X3512Y2298*
X3512Y2298*
X3512Y2298*
X3512Y2298*
X3512Y2298*
X3512Y2298*
X3512*
X3513Y2298*
X3513Y2298*
X3513Y2298*
X3513Y2298*
X3513Y2298*
X3513Y2298*
X3513Y2298*
X3514Y2298*
X3514Y2298*
X3514Y2298*
X3514Y2298*
X3514Y2298*
X3514Y2298*
X3514Y2298*
X3514Y2299*
X3514Y2299*
X3514Y2299*
X3514Y2299*
X3514Y2299*
X3514Y2299*
X3514Y2299*
X3514Y2300*
D01*
X3514Y2300*
X3514Y2300*
X3514Y2300*
X3514Y2300*
X3514Y2300*
X3514Y2300*
X3514Y2300*
X3514Y2301*
X3514Y2301*
X3514Y2301*
X3514Y2301*
X3514Y2301*
X3514Y2301*
X3514Y2301*
X3513Y2301*
X3513Y2301*
X3513Y2301*
X3513Y2301*
X3513Y2301*
X3513Y2301*
X3513Y2301*
X3512Y2301*
X3512*
X3512Y2301*
X3512Y2301*
X3512Y2301*
X3512Y2301*
X3512Y2301*
X3512Y2301*
X3511Y2301*
X3511Y2301*
X3511Y2301*
X3511Y2301*
X3511Y2301*
X3511Y2301*
X3511Y2301*
X3511Y2301*
X3511Y2300*
X3511Y2300*
X3511Y2300*
X3511Y2300*
X3510Y2300*
X3510Y2300*
X3510Y2300*
X3510Y2300*
D01*
X3510Y2299*
X3510Y2299*
X3510Y2299*
X3511Y2299*
X3511Y2299*
X3511Y2299*
X3511Y2299*
X3511Y2298*
X3511Y2298*
X3511Y2298*
X3511Y2298*
X3511Y2298*
X3511Y2298*
X3511Y2298*
X3511Y2298*
X3512Y2298*
X3512Y2298*
X3512Y2298*
X3512Y2298*
X3512Y2298*
X3512Y2298*
X3512Y2298*
X3512*
X3513Y2298*
X3513Y2298*
X3513Y2298*
X3513Y2298*
X3513Y2298*
X3513Y2298*
X3513Y2298*
X3514Y2298*
X3514Y2298*
X3514Y2298*
X3514Y2298*
X3514Y2298*
X3514Y2298*
X3514Y2298*
X3514Y2299*
X3514Y2299*
X3514Y2299*
X3514Y2299*
X3514Y2299*
X3514Y2299*
X3514Y2299*
X3514Y2300*
X1925Y290D02*
Y320D01*
X1791Y290D02*
Y320D01*
X2074Y3043D02*
X2125D01*
X2074Y3096D02*
X2125D01*
X3426Y2274D02*
Y2325D01*
X3373Y2274D02*
Y2325D01*
X2305Y3144D02*
Y3255D01*
X2234Y3144D02*
Y3255D01*
X2953Y3104D02*
Y3235D01*
X3046Y3104D02*
Y3235D01*
X1516Y284D02*
Y415D01*
X1423Y284D02*
Y415D01*
X3500Y1291D02*
X3611D01*
X3500Y1363D02*
X3611D01*
X3127Y2716D02*
X3238D01*
X3127Y2787D02*
X3238D01*
X3274Y1296D02*
X3405D01*
X3274Y1203D02*
X3405D01*
X3094Y2696D02*
X3225D01*
X3094Y2603D02*
X3225D01*
X1646Y974D02*
Y1105D01*
X1553Y974D02*
Y1105D01*
X1966Y954D02*
Y1085D01*
X1873Y954D02*
Y1085D01*
X1016Y504D02*
Y635D01*
X923Y504D02*
Y635D01*
X2066Y1654D02*
Y1785D01*
X1973Y1654D02*
Y1785D01*
X2990Y2525D02*
X3059D01*
X2990Y2466D02*
X3059D01*
X3096Y1091D02*
X3161D01*
X3096Y1149D02*
X3161D01*
X2878Y2411D02*
X2944D01*
X2878Y2468D02*
X2944D01*
X474Y3564D02*
X585D01*
X474Y3635D02*
X585D01*
X701Y3621D02*
Y3878D01*
Y3621D02*
X839D01*
Y3878*
X701D02*
X839D01*
X411Y503D02*
X461D01*
X436Y528D02*
X461Y503D01*
X411D02*
X436Y528D01*
X411D02*
X461D01*
X688Y661D02*
X734D01*
X688Y378D02*
X734D01*
X485Y661D02*
X531D01*
X485Y378D02*
X531D01*
X734D02*
Y661D01*
X485Y378D02*
Y661D01*
X1859Y2079D02*
X1897D01*
Y1960D02*
Y1993D01*
Y2046D02*
Y2079D01*
X1859Y1960D02*
X1897D01*
X1842Y2009D02*
Y2030D01*
X2107Y3131D02*
X2172D01*
X2107Y3188D02*
X2172D01*
X2350Y3132D02*
X2409D01*
X2350Y3187D02*
X2409D01*
X3426Y3404D02*
Y3455D01*
X3373Y3404D02*
Y3455D01*
X3175Y2434D02*
Y2545D01*
X3104Y2434D02*
Y2545D01*
X3123Y1506D02*
Y1573D01*
X3056Y1506D02*
Y1573D01*
X3546Y1876D02*
Y1943D01*
X3613Y1876D02*
Y1943D01*
X2873Y2826D02*
Y2893D01*
X2806Y2826D02*
Y2893D01*
X2356Y1626D02*
Y1693D01*
X2423Y1626D02*
Y1693D01*
X2266Y1636D02*
Y1703D01*
X2333Y1636D02*
Y1703D01*
X2353Y2106D02*
Y2173D01*
X2286Y2106D02*
Y2173D01*
X2046Y1983D02*
X2113D01*
X2046Y1916D02*
X2113D01*
X2076Y1686D02*
Y1753D01*
X2143Y1686D02*
Y1753D01*
X2606Y1816D02*
X2673D01*
X2606Y1883D02*
X2673D01*
X2566Y1936D02*
X2633D01*
X2566Y2003D02*
X2633D01*
X1853Y1836D02*
Y1903D01*
X1786Y1836D02*
Y1903D01*
X2433Y2116D02*
Y2183D01*
X2366Y2116D02*
Y2183D01*
X1862Y2693D02*
Y2764D01*
X1926Y2692D02*
Y2763D01*
X2259Y2716D02*
Y2720D01*
X2294Y2716D02*
Y2720D01*
X1721Y1900D02*
X1758D01*
X1597Y2042D02*
X1712D01*
X1597Y2127D02*
X1712D01*
X1767Y2112D02*
Y2227D01*
X1852Y2112D02*
Y2227D01*
X2129Y2163D02*
Y2277D01*
X2044Y2163D02*
Y2277D01*
X3494Y569D02*
X3532D01*
X2537Y3128D02*
Y3171D01*
X2482Y3128D02*
Y3171D01*
X2222Y3596D02*
X2274D01*
X2222Y3541D02*
X2274D01*
X3317Y2278D02*
Y2321D01*
X3262Y2278D02*
Y2321D01*
X1784Y963D02*
Y1086D01*
X1745Y963D02*
Y1086D01*
Y963D02*
X1784D01*
X1745Y1086D02*
X1784D01*
X3148Y2234D02*
X3243D01*
X3148Y2166D02*
X3243D01*
X3282Y1580D02*
X3393D01*
X3282Y1509D02*
X3393D01*
X3002Y2814D02*
Y2925D01*
X3074Y2814D02*
Y2925D01*
X1929Y3523D02*
X2060D01*
X1929Y3616D02*
X2060D01*
X2573Y3094D02*
Y3225D01*
X2666Y3094D02*
Y3225D01*
X3263Y2444D02*
Y2507D01*
X3324Y2444D02*
Y2507D01*
X3174Y3486D02*
X3225D01*
X3174Y3433D02*
X3225D01*
X2990Y2323D02*
X3069D01*
X2990Y2376D02*
X3069D01*
X3057Y1071D02*
Y1121D01*
X3003Y1071D02*
Y1121D01*
X3273Y1036D02*
Y1086D01*
X3220Y1036D02*
Y1086D01*
X2816Y2424D02*
Y2475D01*
X2763Y2424D02*
Y2475D01*
X2946Y2309D02*
Y2359D01*
X2893Y2309D02*
Y2359D01*
X3554Y2394D02*
Y2505D01*
X3625Y2394D02*
Y2505D01*
X1506Y3677D02*
Y3882D01*
Y3677D02*
X3543D01*
Y3882*
X1506D02*
X3543D01*
X3474Y3515D02*
X3585D01*
X3474Y3444D02*
X3585D01*
X2164Y3505D02*
X2275D01*
X2164Y3434D02*
X2275D01*
X1372Y1740D02*
X1483D01*
X1372Y1811D02*
X1483D01*
X1372Y1866D02*
X1483D01*
X1372Y1938D02*
X1483D01*
X1357Y2144D02*
X1468D01*
X1357Y2215D02*
X1468D01*
X3491Y3193D02*
X3569D01*
X3491Y3246D02*
X3569D01*
X2973Y3390D02*
Y3469D01*
X3026Y3390D02*
Y3469D01*
X2824Y3094D02*
Y3205D01*
X2895Y3094D02*
Y3205D01*
X3521Y3347D02*
Y3352D01*
X3478Y3347D02*
Y3352D01*
X3197Y3298D02*
X3202D01*
X3197Y3341D02*
X3202D01*
X2055Y847D02*
Y852D01*
X2104Y847D02*
Y852D01*
X1312Y610D02*
X1627D01*
Y710*
X1312D02*
X1627D01*
X1312Y610D02*
Y710D01*
X2048Y2698D02*
Y2781D01*
X2131Y2698D02*
Y2781D01*
X2997Y2251D02*
X3040D01*
X2997Y2306D02*
X3040D01*
X3754Y3503D02*
Y3633D01*
X3905*
X3754Y3326D02*
X3905D01*
X3754D02*
Y3456D01*
X2896Y2825D02*
X2983D01*
X2896Y2914D02*
X2983D01*
X1377Y3664D02*
X1382D01*
X1377Y3615D02*
X1382D01*
X3144Y1589D02*
X3231D01*
X3144Y1500D02*
X3231D01*
X3487Y426D02*
Y476D01*
X3540Y426D02*
Y476D01*
X3744Y463D02*
Y593D01*
X3895*
X3744Y286D02*
X3895D01*
X3744D02*
Y416D01*
X2437Y105D02*
X2442D01*
X2437Y154D02*
X2442D01*
X2970Y370D02*
X3348D01*
X2970Y768D02*
X3348D01*
X1557Y369D02*
X1604D01*
X1618Y252D02*
Y367D01*
Y252D02*
X1641D01*
Y367*
X1618D02*
X1641D01*
X342Y210D02*
X657D01*
Y310*
X342D02*
X657D01*
X342Y210D02*
Y310D01*
G54D14*
X2055Y765D02*
X2105D01*
X1465Y3615D02*
Y3665D01*
X2525Y105D02*
Y155D01*
G54D15*
X1570Y730D02*
Y785D01*
X1470D02*
X1570D01*
X1470Y730D02*
Y785D01*
X1370D02*
X1470D01*
X1370Y730D02*
Y785D01*
X1470Y505D02*
Y590D01*
Y505D02*
X1570D01*
X1575Y510*
Y595*
X160Y3087D02*
Y3044D01*
X162Y3035*
X168Y3030*
X177Y3027*
X182*
X191Y3030*
X197Y3035*
X199Y3044*
Y3087*
X216D02*
Y3027D01*
Y3087D02*
X256Y3027D01*
Y3087D02*
Y3027D01*
X273Y3087D02*
Y3027D01*
Y3087D02*
X298D01*
X307Y3084*
X310Y3081*
X313Y3075*
Y3070*
X310Y3064*
X307Y3061*
X298Y3058*
X273*
X293D02*
X313Y3027D01*
X326Y3050D02*
X360D01*
Y3055*
X357Y3061*
X355Y3064*
X349Y3067*
X340*
X335Y3064*
X329Y3058*
X326Y3050*
Y3044*
X329Y3035*
X335Y3030*
X340Y3027*
X349*
X355Y3030*
X360Y3035*
X373Y3087D02*
Y3027D01*
X407*
X428Y3067D02*
X423Y3064D01*
X417Y3058*
X414Y3050*
Y3044*
X417Y3035*
X423Y3030*
X428Y3027*
X437*
X443Y3030*
X448Y3035*
X451Y3044*
Y3050*
X448Y3058*
X443Y3064*
X437Y3067*
X428*
X526Y3087D02*
X517Y3084D01*
X514Y3078*
Y3072*
X517Y3067*
X523Y3064*
X534Y3061*
X543Y3058*
X549Y3052*
X551Y3047*
Y3038*
X549Y3032*
X546Y3030*
X537Y3027*
X526*
X517Y3030*
X514Y3032*
X511Y3038*
Y3047*
X514Y3052*
X520Y3058*
X529Y3061*
X540Y3064*
X546Y3067*
X549Y3072*
Y3078*
X546Y3084*
X537Y3087*
X526*
X599Y3078D02*
X596Y3084D01*
X588Y3087*
X582*
X573Y3084*
X568Y3075*
X565Y3061*
Y3047*
X568Y3035*
X573Y3030*
X582Y3027*
X585*
X593Y3030*
X599Y3035*
X602Y3044*
Y3047*
X599Y3055*
X593Y3061*
X585Y3064*
X582*
X573Y3061*
X568Y3055*
X565Y3047*
X629Y3087D02*
X621Y3084D01*
X618Y3078*
Y3072*
X621Y3067*
X627Y3064*
X638Y3061*
X647Y3058*
X652Y3052*
X655Y3047*
Y3038*
X652Y3032*
X649Y3030*
X641Y3027*
X629*
X621Y3030*
X618Y3032*
X615Y3038*
Y3047*
X618Y3052*
X624Y3058*
X632Y3061*
X644Y3064*
X649Y3067*
X652Y3072*
Y3078*
X649Y3084*
X641Y3087*
X629*
X669D02*
Y3027D01*
Y3087D02*
X691Y3027D01*
X714Y3087D02*
X691Y3027D01*
X714Y3087D02*
Y3027D01*
X731Y3087D02*
Y3027D01*
X771Y3087D02*
Y3027D01*
X731Y3058D02*
X771D01*
X819Y3067D02*
X788Y3027D01*
Y3067D02*
X819D01*
X788Y3027D02*
X819D01*
X202Y2976D02*
X199Y2982D01*
X194Y2988*
X188Y2991*
X177*
X171Y2988*
X165Y2982*
X162Y2976*
X160Y2968*
Y2954*
X162Y2945*
X165Y2939*
X171Y2934*
X177Y2931*
X188*
X194Y2934*
X199Y2939*
X202Y2945*
X233Y2971D02*
X228Y2968D01*
X222Y2962*
X219Y2954*
Y2948*
X222Y2939*
X228Y2934*
X233Y2931*
X242*
X248Y2934*
X253Y2939*
X256Y2948*
Y2954*
X253Y2962*
X248Y2968*
X242Y2971*
X233*
X269D02*
Y2931D01*
Y2959D02*
X278Y2968D01*
X284Y2971*
X292*
X298Y2968*
X301Y2959*
Y2931*
X351Y2962D02*
X345Y2968D01*
X339Y2971*
X331*
X325Y2968*
X319Y2962*
X317Y2954*
Y2948*
X319Y2939*
X325Y2934*
X331Y2931*
X339*
X345Y2934*
X351Y2939*
X364Y2954D02*
X398D01*
Y2959*
X395Y2965*
X392Y2968*
X387Y2971*
X378*
X372Y2968*
X367Y2962*
X364Y2954*
Y2948*
X367Y2939*
X372Y2934*
X378Y2931*
X387*
X392Y2934*
X398Y2939*
X411Y2971D02*
Y2931D01*
Y2959D02*
X419Y2968D01*
X425Y2971*
X434*
X439Y2968*
X442Y2959*
Y2931*
X467Y2991D02*
Y2942D01*
X469Y2934*
X475Y2931*
X481*
X458Y2971D02*
X478D01*
X489D02*
Y2931D01*
Y2954D02*
X492Y2962D01*
X498Y2968*
X504Y2971*
X512*
X552D02*
Y2931D01*
Y2962D02*
X546Y2968D01*
X541Y2971*
X532*
X526Y2968*
X521Y2962*
X518Y2954*
Y2948*
X521Y2939*
X526Y2934*
X532Y2931*
X541*
X546Y2934*
X552Y2939*
X577Y2991D02*
Y2942D01*
X579Y2934*
X585Y2931*
X591*
X568Y2971D02*
X588D01*
X614D02*
X608Y2968D01*
X602Y2962*
X599Y2954*
Y2948*
X602Y2939*
X608Y2934*
X614Y2931*
X622*
X628Y2934*
X634Y2939*
X637Y2948*
Y2954*
X634Y2962*
X628Y2968*
X622Y2971*
X614*
X650D02*
Y2931D01*
Y2954D02*
X653Y2962D01*
X658Y2968*
X664Y2971*
X673*
X725D02*
Y2931D01*
Y2954D02*
X728Y2962D01*
X734Y2968*
X739Y2971*
X748*
X753Y2954D02*
X788D01*
Y2959*
X785Y2965*
X782Y2968*
X776Y2971*
X768*
X762Y2968*
X756Y2962*
X753Y2954*
Y2948*
X756Y2939*
X762Y2934*
X768Y2931*
X776*
X782Y2934*
X788Y2939*
X801Y2971D02*
X818Y2931D01*
X835Y2971D02*
X818Y2931D01*
X909Y2991D02*
X900Y2988D01*
X894Y2979*
X892Y2965*
Y2956*
X894Y2942*
X900Y2934*
X909Y2931*
X914*
X923Y2934*
X929Y2942*
X932Y2956*
Y2965*
X929Y2979*
X923Y2988*
X914Y2991*
X909*
X948Y2936D02*
X945Y2934D01*
X948Y2931*
X951Y2934*
X948Y2936*
X970Y2991D02*
X1001D01*
X984Y2968*
X992*
X998Y2965*
X1001Y2962*
X1004Y2954*
Y2948*
X1001Y2939*
X995Y2934*
X987Y2931*
X978*
X970Y2934*
X967Y2936*
X964Y2942*
X3475Y159D02*
X3465Y149D01*
Y130*
X3475Y120*
X3515*
X3525Y130*
Y149*
X3515Y159*
X3495*
Y139*
X3525Y179D02*
X3465D01*
Y209*
X3475Y219*
X3495*
X3505Y209*
Y179*
X3475Y279D02*
X3465Y269D01*
Y249*
X3475Y239*
X3485*
X3495Y249*
Y269*
X3505Y279*
X3515*
X3525Y269*
Y249*
X3515Y239*
X3630Y140D02*
X3590D01*
X3570Y159*
X3590Y179*
X3630*
X3600*
Y140*
X3630Y199D02*
X3570D01*
X3630Y239*
X3570*
Y259D02*
Y299D01*
Y279*
X3630*
X3880Y3065D02*
X3840D01*
X3820Y3084*
X3840Y3104*
X3880*
X3850*
Y3065*
X3880Y3124D02*
X3820D01*
X3880Y3164*
X3820*
Y3184D02*
Y3224D01*
Y3204*
X3880*
X3725Y3070D02*
X3785D01*
Y3109*
X3725Y3159D02*
Y3139D01*
X3735Y3129*
X3775*
X3785Y3139*
Y3159*
X3775Y3169*
X3735*
X3725Y3159*
X3785Y3189D02*
X3725D01*
Y3219*
X3735Y3229*
X3755*
X3765Y3219*
Y3189*
Y3209D02*
X3785Y3229D01*
Y3249D02*
X3745D01*
X3725Y3269*
X3745Y3289*
X3785*
X3755*
Y3249*
X525Y80D02*
X465D01*
X525Y119*
X465*
X475Y179D02*
X465Y169D01*
Y149*
X475Y139*
X515*
X525Y149*
Y169*
X515Y179*
X1434Y869D02*
X1395D01*
Y810*
X1434*
X1395Y839D02*
X1414D01*
X1454Y869D02*
X1494Y810D01*
Y869D02*
X1454Y810D01*
X1514Y869D02*
X1554D01*
X1534*
Y810*
X1600Y520D02*
Y579D01*
X1629*
X1639Y569*
Y549*
X1629Y539*
X1600*
X1619D02*
X1639Y520D01*
X1659D02*
Y579D01*
X1689*
X1699Y569*
Y549*
X1689Y539*
X1659*
X1719Y579D02*
X1739D01*
X1729*
Y520*
X1719*
X1739*
X610Y30D02*
Y69D01*
X590Y49D02*
X630D01*
X580Y129D02*
Y89D01*
X610*
X600Y109*
Y119*
X610Y129*
X630*
X640Y119*
Y99*
X630Y89*
X580Y149D02*
X620D01*
X640Y169*
X620Y189*
X580*
X360Y69D02*
X350Y59D01*
Y40*
X360Y30*
X400*
X410Y40*
Y59*
X400Y69*
X380*
Y49*
X410Y89D02*
X350D01*
X410Y129*
X350*
Y149D02*
X410D01*
Y179*
X400Y189*
X360*
X350Y179*
Y149*
G54D16*
X2364Y3424D02*
X2385D01*
X2495D02*
Y3446D01*
X2473Y3555D02*
X2495D01*
X2364Y3534D02*
Y3555D01*
Y3424D02*
Y3446D01*
X2473Y3424D02*
X2495D01*
Y3534D02*
Y3555D01*
X2364D02*
X2385D01*
G54D17*
X3729Y2031D02*
Y2048D01*
X3650Y2031D02*
Y2048D01*
G54D18*
X1958Y429D02*
Y381D01*
X1990*
X2006Y421D02*
X2013Y429D01*
X2029*
X2037Y421*
Y413*
X2029Y405*
X2021*
X2029*
X2037Y397*
Y389*
X2029Y381*
X2013*
X2006Y389*
X2130Y976D02*
Y1023D01*
X2154*
X2162Y1015*
Y1000*
X2154Y992*
X2130*
X2146D02*
X2162Y976D01*
X2178D02*
X2193D01*
X2186*
Y1023*
X2178Y1015*
X2249Y1023D02*
X2217D01*
Y1000*
X2233Y1007*
X2241*
X2249Y1000*
Y984*
X2241Y976*
X2225*
X2217Y984*
X2130Y186D02*
Y233D01*
X2154*
X2162Y225*
Y210*
X2154Y202*
X2130*
X2146D02*
X2162Y186D01*
X2178D02*
X2193D01*
X2186*
Y233*
X2178Y225*
X2249Y186D02*
X2217D01*
X2249Y217*
Y225*
X2241Y233*
X2225*
X2217Y225*
X1314Y372D02*
X1306Y364D01*
Y348*
X1314Y340*
X1345*
X1353Y348*
Y364*
X1345Y372*
X1353Y388D02*
Y403D01*
Y396*
X1306*
X1314Y388*
X1306Y459D02*
X1314Y443D01*
X1330Y427*
X1345*
X1353Y435*
Y451*
X1345Y459*
X1337*
X1330Y451*
Y427*
X1948Y2103D02*
Y2056D01*
X1972*
X1980Y2064*
Y2095*
X1972Y2103*
X1948*
X1995Y2056D02*
X2011D01*
X2003*
Y2103*
X1995Y2095*
X2019Y2200D02*
X1972D01*
Y2224*
X1980Y2232*
X1996*
X2003Y2224*
Y2200*
Y2216D02*
X2019Y2232D01*
X1972Y2279D02*
Y2248D01*
X1996*
X1988Y2263*
Y2271*
X1996Y2279*
X2011*
X2019Y2271*
Y2255*
X2011Y2248*
X1680Y1173D02*
Y1134D01*
X1688Y1126*
X1704*
X1712Y1134*
Y1173*
X1727Y1165D02*
X1735Y1173D01*
X1751*
X1759Y1165*
Y1157*
X1751Y1150*
X1743*
X1751*
X1759Y1142*
Y1134*
X1751Y1126*
X1735*
X1727Y1134*
X387Y1389D02*
X380Y1397D01*
X364*
X356Y1389*
Y1381*
X364Y1373*
X380*
X387Y1365*
Y1357*
X380Y1349*
X364*
X356Y1357*
X403Y1397D02*
Y1349D01*
X427*
X435Y1357*
Y1365*
X427Y1373*
X403*
X427*
X435Y1381*
Y1389*
X427Y1397*
X403*
X482Y1389D02*
X474Y1397D01*
X458*
X450Y1389*
Y1357*
X458Y1349*
X474*
X482Y1357*
X498Y1349D02*
X513D01*
X506*
Y1397*
X498Y1389*
X2042Y1885D02*
X2034Y1893D01*
X2018*
X2010Y1885*
Y1854*
X2018Y1846*
X2034*
X2042Y1854*
X2081Y1846D02*
Y1893D01*
X2057Y1870*
X2089*
X3480Y641D02*
Y688D01*
X3504*
X3512Y680*
Y665*
X3504Y657*
X3480*
X3496D02*
X3512Y641D01*
X3527Y680D02*
X3535Y688D01*
X3551*
X3559Y680*
Y672*
X3551Y665*
X3559Y657*
Y649*
X3551Y641*
X3535*
X3527Y649*
Y657*
X3535Y665*
X3527Y672*
Y680*
X3535Y665D02*
X3551D01*
X3560Y470D02*
Y423D01*
X3592*
X3608D02*
X3623D01*
X3615*
Y470*
X3608Y462*
X3612Y683D02*
X3604Y691D01*
X3588*
X3580Y683*
Y652*
X3588Y644*
X3604*
X3612Y652*
X3627Y644D02*
X3643D01*
X3635*
Y691*
X3627Y683*
X3667Y644D02*
X3682D01*
X3675*
Y691*
X3667Y683*
X3688Y1943D02*
Y1935D01*
X3704Y1920*
X3720Y1935*
Y1943*
X3704Y1920D02*
Y1896D01*
X3735D02*
X3751D01*
X3743*
Y1943*
X3735Y1935*
X2400Y3403D02*
Y3364D01*
X2408Y3356*
X2424*
X2432Y3364*
Y3403*
X2471Y3356D02*
Y3403D01*
X2447Y3380*
X2479*
X738Y3593D02*
Y3554D01*
X746Y3546*
X762*
X770Y3554*
Y3593*
X785Y3546D02*
X801D01*
X793*
Y3593*
X785Y3585*
X3650Y1382D02*
Y1429D01*
X3673*
X3681Y1422*
Y1406*
X3673Y1398*
X3650*
X3666D02*
X3681Y1382D01*
X3729D02*
X3697D01*
X3729Y1414*
Y1422*
X3721Y1429*
X3705*
X3697Y1422*
X3744D02*
X3752Y1429D01*
X3768*
X3776Y1422*
Y1390*
X3768Y1382*
X3752*
X3744Y1390*
Y1422*
X1540Y1656D02*
Y1703D01*
X1564*
X1572Y1695*
Y1680*
X1564Y1672*
X1540*
X1556D02*
X1572Y1656D01*
X1588D02*
X1603D01*
X1596*
Y1703*
X1588Y1695*
X1627Y1664D02*
X1635Y1656D01*
X1651*
X1659Y1664*
Y1695*
X1651Y1703*
X1635*
X1627Y1695*
Y1687*
X1635Y1680*
X1659*
X1520Y1966D02*
Y2013D01*
X1544*
X1552Y2005*
Y1990*
X1544Y1982*
X1520*
X1536D02*
X1552Y1966D01*
X1568D02*
X1583D01*
X1576*
Y2013*
X1568Y2005*
X1607D02*
X1615Y2013D01*
X1631*
X1639Y2005*
Y1997*
X1631Y1990*
X1639Y1982*
Y1974*
X1631Y1966*
X1615*
X1607Y1974*
Y1982*
X1615Y1990*
X1607Y1997*
Y2005*
X1615Y1990D02*
X1631D01*
X1515Y2247D02*
Y2294D01*
X1539*
X1547Y2286*
Y2270*
X1539Y2263*
X1515*
X1531D02*
X1547Y2247D01*
X1562D02*
X1578D01*
X1570*
Y2294*
X1562Y2286*
X1633Y2294D02*
X1618Y2286D01*
X1602Y2270*
Y2255*
X1610Y2247*
X1625*
X1633Y2255*
Y2263*
X1625Y2270*
X1602*
X3301Y2787D02*
Y2834D01*
X3324*
X3332Y2826*
Y2810*
X3324Y2802*
X3301*
X3317D02*
X3332Y2787D01*
X3348D02*
X3364D01*
X3356*
Y2834*
X3348Y2826*
X3387Y2834D02*
X3419D01*
Y2826*
X3387Y2795*
Y2787*
X1190Y3696D02*
Y3743D01*
X1214*
X1222Y3735*
Y3720*
X1214Y3712*
X1190*
X1206D02*
X1222Y3696D01*
X1237Y3704D02*
X1245Y3696D01*
X1261*
X1269Y3704*
Y3735*
X1261Y3743*
X1245*
X1237Y3735*
Y3727*
X1245Y3720*
X1269*
X1485Y2061D02*
Y2108D01*
X1509*
X1517Y2100*
Y2085*
X1509Y2077*
X1485*
X1501D02*
X1517Y2061D01*
X1532Y2108D02*
X1564D01*
Y2100*
X1532Y2069*
Y2061*
X1790Y2286D02*
Y2333D01*
X1814*
X1822Y2325*
Y2310*
X1814Y2302*
X1790*
X1806D02*
X1822Y2286D01*
X1869Y2333D02*
X1853Y2325D01*
X1837Y2310*
Y2294*
X1845Y2286*
X1861*
X1869Y2294*
Y2302*
X1861Y2310*
X1837*
X2000Y2524D02*
X1953D01*
Y2548*
X1961Y2556*
X1977*
X1984Y2548*
Y2524*
Y2540D02*
X2000Y2556D01*
Y2595D02*
X1953D01*
X1977Y2571*
Y2603*
X2192Y2527D02*
X2145D01*
Y2551*
X2153Y2559*
X2169*
X2176Y2551*
Y2527*
Y2543D02*
X2192Y2559D01*
X2153Y2574D02*
X2145Y2582D01*
Y2598*
X2153Y2606*
X2161*
X2169Y2598*
Y2590*
Y2598*
X2176Y2606*
X2184*
X2192Y2598*
Y2582*
X2184Y2574*
X1690Y1786D02*
Y1833D01*
X1714*
X1722Y1825*
Y1810*
X1714Y1802*
X1690*
X1706D02*
X1722Y1786D01*
X1769D02*
X1737D01*
X1769Y1817*
Y1825*
X1761Y1833*
X1745*
X1737Y1825*
X2392Y2542D02*
X2345D01*
Y2566*
X2353Y2574*
X2369*
X2376Y2566*
Y2542*
Y2558D02*
X2392Y2574D01*
Y2589D02*
Y2605D01*
Y2597*
X2345*
X2353Y2589*
X1205Y641D02*
Y688D01*
X1229*
X1237Y680*
Y665*
X1229Y657*
X1205*
X1284Y641D02*
X1252D01*
X1284Y672*
Y680*
X1276Y688*
X1260*
X1252Y680*
X368Y331D02*
Y378D01*
X392*
X400Y370*
Y355*
X392Y347*
X368*
X415Y331D02*
X431D01*
X423*
Y378*
X415Y370*
X2128Y923D02*
Y876D01*
X2159*
X2207Y923D02*
X2175D01*
Y876*
X2207*
X2175Y900D02*
X2191D01*
X2222Y923D02*
Y876D01*
X2246*
X2254Y884*
Y915*
X2246Y923*
X2222*
X2301D02*
X2285Y915D01*
X2270Y900*
Y884*
X2277Y876*
X2293*
X2301Y884*
Y892*
X2293Y900*
X2270*
X2174Y143D02*
Y96D01*
X2206*
X2253Y143D02*
X2221D01*
Y96*
X2253*
X2221Y120D02*
X2237D01*
X2269Y143D02*
Y96D01*
X2292*
X2300Y104*
Y135*
X2292Y143*
X2269*
X2347D02*
X2316D01*
Y120*
X2332Y127*
X2340*
X2347Y120*
Y104*
X2340Y96*
X2324*
X2316Y104*
X1307Y3744D02*
Y3696D01*
X1338*
X1385Y3744D02*
X1354D01*
Y3696*
X1385*
X1354Y3720D02*
X1370D01*
X1401Y3744D02*
Y3696D01*
X1425*
X1433Y3704*
Y3736*
X1425Y3744*
X1401*
X1472Y3696D02*
Y3744D01*
X1448Y3720*
X1480*
X1966Y2643D02*
X2013D01*
Y2674*
X1966Y2722D02*
Y2690D01*
X2013*
Y2722*
X1990Y2690D02*
Y2706D01*
X1966Y2737D02*
X2013D01*
Y2761*
X2005Y2769*
X1974*
X1966Y2761*
Y2737*
X1974Y2785D02*
X1966Y2792D01*
Y2808*
X1974Y2816*
X1982*
X1990Y2808*
Y2800*
Y2808*
X1997Y2816*
X2005*
X2013Y2808*
Y2792*
X2005Y2785*
X2156Y2633D02*
X2203D01*
Y2664*
X2156Y2712D02*
Y2680D01*
X2203*
Y2712*
X2180Y2680D02*
Y2696D01*
X2156Y2727D02*
X2203D01*
Y2751*
X2195Y2759*
X2164*
X2156Y2751*
Y2727*
X2203Y2806D02*
Y2775D01*
X2172Y2806*
X2164*
X2156Y2798*
Y2782*
X2164Y2775*
X2336Y2641D02*
X2383D01*
Y2672*
X2336Y2720D02*
Y2688D01*
X2383*
Y2720*
X2360Y2688D02*
Y2704D01*
X2336Y2735D02*
X2383D01*
Y2759*
X2375Y2767*
X2344*
X2336Y2759*
Y2735*
X2383Y2782D02*
Y2798D01*
Y2790*
X2336*
X2344Y2782*
X2340Y3633D02*
Y3586D01*
X2372*
X2388D02*
X2403D01*
X2396*
Y3633*
X2388Y3625*
X2459Y3633D02*
X2443Y3625D01*
X2427Y3610*
Y3594*
X2435Y3586*
X2451*
X2459Y3594*
Y3602*
X2451Y3610*
X2427*
X2080Y3293D02*
Y3246D01*
X2112*
X2128D02*
X2143D01*
X2136*
Y3293*
X2128Y3285*
X2199Y3293D02*
X2167D01*
Y3270*
X2183Y3277*
X2191*
X2199Y3270*
Y3254*
X2191Y3246*
X2175*
X2167Y3254*
X2330Y3103D02*
Y3056D01*
X2362*
X2378D02*
X2393D01*
X2386*
Y3103*
X2378Y3095*
X2441Y3056D02*
Y3103D01*
X2417Y3080*
X2449*
X2420Y3008D02*
Y2961D01*
X2452*
X2468D02*
X2483D01*
X2476*
Y3008*
X2468Y3000*
X2507D02*
X2515Y3008D01*
X2531*
X2539Y3000*
Y2992*
X2531Y2985*
X2523*
X2531*
X2539Y2977*
Y2969*
X2531Y2961*
X2515*
X2507Y2969*
X3566Y3290D02*
X3613D01*
Y3322*
Y3338D02*
Y3353D01*
Y3346*
X3566*
X3574Y3338*
X3613Y3409D02*
Y3377D01*
X3582Y3409*
X3574*
X3566Y3401*
Y3385*
X3574Y3377*
X3148Y3253D02*
Y3206D01*
X3180*
X3196D02*
X3211D01*
X3203*
Y3253*
X3196Y3245*
X3235Y3206D02*
X3251D01*
X3243*
Y3253*
X3235Y3245*
X3150Y1663D02*
Y1616D01*
X3182*
X3198D02*
X3213D01*
X3206*
Y1663*
X3198Y1655*
X3237D02*
X3245Y1663D01*
X3261*
X3269Y1655*
Y1624*
X3261Y1616*
X3245*
X3237Y1624*
Y1655*
X3100Y1063D02*
Y1016D01*
X3132*
X3147Y1024D02*
X3155Y1016D01*
X3171*
X3179Y1024*
Y1055*
X3171Y1063*
X3155*
X3147Y1055*
Y1047*
X3155Y1040*
X3179*
X2900Y2983D02*
Y2936D01*
X2932*
X2947Y2975D02*
X2955Y2983D01*
X2971*
X2979Y2975*
Y2967*
X2971Y2960*
X2979Y2952*
Y2944*
X2971Y2936*
X2955*
X2947Y2944*
Y2952*
X2955Y2960*
X2947Y2967*
Y2975*
X2955Y2960D02*
X2971D01*
X2890Y2543D02*
Y2496D01*
X2922*
X2937Y2543D02*
X2969D01*
Y2535*
X2937Y2504*
Y2496*
X3260Y2403D02*
Y2356D01*
X3292*
X3339Y2403D02*
X3323Y2395D01*
X3307Y2380*
Y2364*
X3315Y2356*
X3331*
X3339Y2364*
Y2372*
X3331Y2380*
X3307*
X3060Y2293D02*
Y2246D01*
X3092*
X3139Y2293D02*
X3107D01*
Y2270*
X3123Y2277*
X3131*
X3139Y2270*
Y2254*
X3131Y2246*
X3115*
X3107Y2254*
X3000Y2443D02*
Y2396D01*
X3032*
X3071D02*
Y2443D01*
X3047Y2420*
X3079*
X3672Y3693D02*
X3656D01*
X3664*
Y3654*
X3656Y3646*
X3648*
X3640Y3654*
X3687Y3685D02*
X3695Y3693D01*
X3711*
X3719Y3685*
Y3677*
X3711Y3670*
X3703*
X3711*
X3719Y3662*
Y3654*
X3711Y3646*
X3695*
X3687Y3654*
X3837Y663D02*
X3821D01*
X3829*
Y624*
X3821Y616*
X3813*
X3805Y624*
X3884Y616D02*
X3852D01*
X3884Y647*
Y655*
X3876Y663*
X3860*
X3852Y655*
X1425Y3883D02*
X1409D01*
X1417*
Y3844*
X1409Y3836*
X1401*
X1393Y3844*
X1440Y3836D02*
X1456D01*
X1448*
Y3883*
X1440Y3875*
X2920Y1513D02*
X2936D01*
X2928*
Y1466*
X2920*
X2936*
X2991Y1505D02*
X2983Y1513D01*
X2968*
X2960Y1505*
Y1474*
X2968Y1466*
X2983*
X2991Y1474*
X3039Y1513D02*
X3007D01*
Y1490*
X3023Y1497*
X3031*
X3039Y1490*
Y1474*
X3031Y1466*
X3015*
X3007Y1474*
X2670Y2773D02*
X2686D01*
X2678*
Y2726*
X2670*
X2686*
X2741Y2765D02*
X2733Y2773D01*
X2718*
X2710Y2765*
Y2734*
X2718Y2726*
X2733*
X2741Y2734*
X2781Y2726D02*
Y2773D01*
X2757Y2750*
X2789*
X1600Y436D02*
X1616D01*
X1608*
Y389*
X1600*
X1616*
X1671Y428D02*
X1663Y436D01*
X1648*
X1640Y428*
Y397*
X1648Y389*
X1663*
X1671Y397*
X1687Y428D02*
X1695Y436D01*
X1711*
X1718Y428*
Y420*
X1711Y412*
X1703*
X1711*
X1718Y405*
Y397*
X1711Y389*
X1695*
X1687Y397*
X2940Y283D02*
X2955D01*
X2947*
Y236*
X2940*
X2955*
X3010Y276D02*
X3003Y283D01*
X2987*
X2979Y276*
Y244*
X2987Y236*
X3003*
X3010Y244*
X3058Y236D02*
X3026D01*
X3058Y268*
Y276*
X3050Y283*
X3034*
X3026Y276*
X2078Y2123D02*
X2094D01*
X2086*
Y2076*
X2078*
X2094*
X2149Y2115D02*
X2141Y2123D01*
X2126*
X2118Y2115*
Y2084*
X2126Y2076*
X2141*
X2149Y2084*
X2165Y2076D02*
X2181D01*
X2173*
Y2123*
X2165Y2115*
X2568Y3423D02*
X2537D01*
Y3400*
X2552*
X2537*
Y3376*
X2584Y3423D02*
Y3376D01*
X2615*
X2631Y3415D02*
X2639Y3423D01*
X2655*
X2662Y3415*
Y3407*
X2655Y3400*
X2647*
X2655*
X2662Y3392*
Y3384*
X2655Y3376*
X2639*
X2631Y3384*
X3638Y3013D02*
X3607D01*
Y2990*
X3622*
X3607*
Y2966*
X3654Y3013D02*
Y2966D01*
X3685*
X3732D02*
X3701D01*
X3732Y2997*
Y3005*
X3725Y3013*
X3709*
X3701Y3005*
X3676Y2383D02*
X3644D01*
Y2360*
X3660*
X3644*
Y2336*
X3692Y2383D02*
Y2336D01*
X3723*
X3739D02*
X3755D01*
X3747*
Y2383*
X3739Y2375*
X3630Y3553D02*
Y3506D01*
X3654*
X3662Y3514*
Y3545*
X3654Y3553*
X3630*
X3677Y3545D02*
X3685Y3553D01*
X3701*
X3709Y3545*
Y3537*
X3701Y3530*
X3693*
X3701*
X3709Y3522*
Y3514*
X3701Y3506*
X3685*
X3677Y3514*
X570Y753D02*
Y706D01*
X594*
X602Y714*
Y745*
X594Y753*
X570*
X641Y706D02*
Y753D01*
X617Y730*
X649*
X1813Y3625D02*
X1805Y3633D01*
X1789*
X1782Y3625*
Y3594*
X1789Y3586*
X1805*
X1813Y3594*
X1860Y3633D02*
X1829D01*
Y3610*
X1845Y3617*
X1852*
X1860Y3610*
Y3594*
X1852Y3586*
X1837*
X1829Y3594*
X1907Y3633D02*
X1876D01*
Y3610*
X1892Y3617*
X1900*
X1907Y3610*
Y3594*
X1900Y3586*
X1884*
X1876Y3594*
X2218Y3095D02*
X2210Y3103D01*
X2194*
X2187Y3095*
Y3064*
X2194Y3056*
X2210*
X2218Y3064*
X2265Y3103D02*
X2234D01*
Y3080*
X2250Y3087*
X2257*
X2265Y3080*
Y3064*
X2257Y3056*
X2242*
X2234Y3064*
X2305Y3056D02*
Y3103D01*
X2281Y3080*
X2312*
X2068Y3005D02*
X2060Y3013D01*
X2044*
X2037Y3005*
Y2974*
X2044Y2966*
X2060*
X2068Y2974*
X2115Y3013D02*
X2084D01*
Y2990*
X2100Y2997*
X2107*
X2115Y2990*
Y2974*
X2107Y2966*
X2092*
X2084Y2974*
X2131Y3005D02*
X2139Y3013D01*
X2155*
X2162Y3005*
Y2997*
X2155Y2990*
X2147*
X2155*
X2162Y2982*
Y2974*
X2155Y2966*
X2139*
X2131Y2974*
X2738Y3005D02*
X2730Y3013D01*
X2714*
X2707Y3005*
Y2974*
X2714Y2966*
X2730*
X2738Y2974*
X2785Y3013D02*
X2754D01*
Y2990*
X2770Y2997*
X2777*
X2785Y2990*
Y2974*
X2777Y2966*
X2762*
X2754Y2974*
X2832Y2966D02*
X2801D01*
X2832Y2997*
Y3005*
X2825Y3013*
X2809*
X2801Y3005*
X3101Y3060D02*
X3093Y3068D01*
X3077*
X3069Y3060*
Y3029*
X3077Y3021*
X3093*
X3101Y3029*
X3148Y3068D02*
X3117D01*
Y3045*
X3132Y3052*
X3140*
X3148Y3045*
Y3029*
X3140Y3021*
X3125*
X3117Y3029*
X3164Y3021D02*
X3180D01*
X3172*
Y3068*
X3164Y3060*
X2828Y3355D02*
X2820Y3363D01*
X2804*
X2797Y3355*
Y3324*
X2804Y3316*
X2820*
X2828Y3324*
X2867Y3316D02*
Y3363D01*
X2844Y3340*
X2875*
X2891Y3324D02*
X2899Y3316D01*
X2915*
X2922Y3324*
Y3355*
X2915Y3363*
X2899*
X2891Y3355*
Y3347*
X2899Y3340*
X2922*
X2588Y3005D02*
X2580Y3013D01*
X2564*
X2557Y3005*
Y2974*
X2564Y2966*
X2580*
X2588Y2974*
X2635Y3013D02*
X2604D01*
Y2990*
X2620Y2997*
X2627*
X2635Y2990*
Y2974*
X2627Y2966*
X2612*
X2604Y2974*
X2651Y3005D02*
X2659Y3013D01*
X2675*
X2682Y3005*
Y2974*
X2675Y2966*
X2659*
X2651Y2974*
Y3005*
X3328Y3515D02*
X3320Y3523D01*
X3304*
X3297Y3515*
Y3484*
X3304Y3476*
X3320*
X3328Y3484*
X3367Y3476D02*
Y3523D01*
X3344Y3500*
X3375*
X3391Y3523D02*
X3422D01*
Y3515*
X3391Y3484*
Y3476*
X3518Y3155D02*
X3511Y3163D01*
X3495*
X3487Y3155*
Y3124*
X3495Y3116*
X3511*
X3518Y3124*
X3558Y3116D02*
Y3163D01*
X3534Y3140*
X3566*
X3613Y3163D02*
X3597Y3155D01*
X3581Y3140*
Y3124*
X3589Y3116*
X3605*
X3613Y3124*
Y3132*
X3605Y3140*
X3581*
X2848Y3435D02*
X2840Y3443D01*
X2824*
X2817Y3435*
Y3404*
X2824Y3396*
X2840*
X2848Y3404*
X2887Y3396D02*
Y3443D01*
X2864Y3420*
X2895*
X2942Y3443D02*
X2911D01*
Y3420*
X2927Y3427*
X2935*
X2942Y3420*
Y3404*
X2935Y3396*
X2919*
X2911Y3404*
X3494Y2415D02*
X3486Y2408D01*
Y2392*
X3494Y2384*
X3525*
X3533Y2392*
Y2408*
X3525Y2415*
X3533Y2455D02*
X3486D01*
X3510Y2431*
Y2463*
X3533Y2502D02*
X3486D01*
X3510Y2478*
Y2510*
X3178Y3565D02*
X3170Y3573D01*
X3154*
X3147Y3565*
Y3534*
X3154Y3526*
X3170*
X3178Y3534*
X3217Y3526D02*
Y3573D01*
X3194Y3550*
X3225*
X3272Y3526D02*
X3241D01*
X3272Y3557*
Y3565*
X3265Y3573*
X3249*
X3241Y3565*
X3468Y3585D02*
X3460Y3593D01*
X3444*
X3437Y3585*
Y3554*
X3444Y3546*
X3460*
X3468Y3554*
X3507Y3546D02*
Y3593D01*
X3484Y3570*
X3515*
X3531Y3585D02*
X3539Y3593D01*
X3555*
X3562Y3585*
Y3577*
X3555Y3570*
X3547*
X3555*
X3562Y3562*
Y3554*
X3555Y3546*
X3539*
X3531Y3554*
X2188Y3395D02*
X2180Y3403D01*
X2164*
X2157Y3395*
Y3364*
X2164Y3356*
X2180*
X2188Y3364*
X2227Y3356D02*
Y3403D01*
X2204Y3380*
X2235*
X2251Y3395D02*
X2259Y3403D01*
X2275*
X2282Y3395*
Y3387*
X2275Y3380*
X2282Y3372*
Y3364*
X2275Y3356*
X2259*
X2251Y3364*
Y3372*
X2259Y3380*
X2251Y3387*
Y3395*
X2259Y3380D02*
X2275D01*
X3066Y1745D02*
X3058Y1753D01*
X3042*
X3034Y1745*
Y1714*
X3042Y1706*
X3058*
X3066Y1714*
X3105Y1706D02*
Y1753D01*
X3082Y1730*
X3113*
X3129Y1706D02*
X3145D01*
X3137*
Y1753*
X3129Y1745*
X3318Y1645D02*
X3310Y1653D01*
X3294*
X3287Y1645*
Y1614*
X3294Y1606*
X3310*
X3318Y1614*
X3357Y1606D02*
Y1653D01*
X3334Y1630*
X3365*
X3381Y1645D02*
X3389Y1653D01*
X3405*
X3412Y1645*
Y1614*
X3405Y1606*
X3389*
X3381Y1614*
Y1645*
X3588Y1815D02*
X3580Y1823D01*
X3564*
X3557Y1815*
Y1784*
X3564Y1776*
X3580*
X3588Y1784*
X3604Y1815D02*
X3612Y1823D01*
X3627*
X3635Y1815*
Y1807*
X3627Y1800*
X3620*
X3627*
X3635Y1792*
Y1784*
X3627Y1776*
X3612*
X3604Y1784*
X3651Y1823D02*
X3682D01*
Y1815*
X3651Y1784*
Y1776*
X3488Y1245D02*
X3480Y1253D01*
X3464*
X3457Y1245*
Y1214*
X3464Y1206*
X3480*
X3488Y1214*
X3504Y1245D02*
X3512Y1253D01*
X3527*
X3535Y1245*
Y1237*
X3527Y1230*
X3520*
X3527*
X3535Y1222*
Y1214*
X3527Y1206*
X3512*
X3504Y1214*
X3551D02*
X3559Y1206D01*
X3575*
X3582Y1214*
Y1245*
X3575Y1253*
X3559*
X3551Y1245*
Y1237*
X3559Y1230*
X3582*
X3524Y1422D02*
X3516Y1429D01*
X3500*
X3492Y1422*
Y1390*
X3500Y1382*
X3516*
X3524Y1390*
X3540Y1422D02*
X3547Y1429D01*
X3563*
X3571Y1422*
Y1414*
X3563Y1406*
X3555*
X3563*
X3571Y1398*
Y1390*
X3563Y1382*
X3547*
X3540Y1390*
X3587Y1422D02*
X3595Y1429D01*
X3610*
X3618Y1422*
Y1414*
X3610Y1406*
X3618Y1398*
Y1390*
X3610Y1382*
X3595*
X3587Y1390*
Y1398*
X3595Y1406*
X3587Y1414*
Y1422*
X3595Y1406D02*
X3610D01*
X1388Y1695D02*
X1380Y1703D01*
X1364*
X1357Y1695*
Y1664*
X1364Y1656*
X1380*
X1388Y1664*
X1404Y1695D02*
X1412Y1703D01*
X1427*
X1435Y1695*
Y1687*
X1427Y1680*
X1420*
X1427*
X1435Y1672*
Y1664*
X1427Y1656*
X1412*
X1404Y1664*
X1482Y1703D02*
X1451D01*
Y1680*
X1467Y1687*
X1475*
X1482Y1680*
Y1664*
X1475Y1656*
X1459*
X1451Y1664*
X2878Y1105D02*
X2870Y1113D01*
X2854*
X2847Y1105*
Y1074*
X2854Y1066*
X2870*
X2878Y1074*
X2894Y1105D02*
X2902Y1113D01*
X2917*
X2925Y1105*
Y1097*
X2917Y1090*
X2910*
X2917*
X2925Y1082*
Y1074*
X2917Y1066*
X2902*
X2894Y1074*
X2972Y1113D02*
X2957Y1105D01*
X2941Y1090*
Y1074*
X2949Y1066*
X2965*
X2972Y1074*
Y1082*
X2965Y1090*
X2941*
X1398Y2005D02*
X1390Y2013D01*
X1374*
X1367Y2005*
Y1974*
X1374Y1966*
X1390*
X1398Y1974*
X1414Y2005D02*
X1422Y2013D01*
X1437*
X1445Y2005*
Y1997*
X1437Y1990*
X1430*
X1437*
X1445Y1982*
Y1974*
X1437Y1966*
X1422*
X1414Y1974*
X1492Y1966D02*
X1461D01*
X1492Y1997*
Y2005*
X1485Y2013*
X1469*
X1461Y2005*
X3228Y975D02*
X3220Y983D01*
X3204*
X3197Y975*
Y944*
X3204Y936*
X3220*
X3228Y944*
X3244Y975D02*
X3252Y983D01*
X3267*
X3275Y975*
Y967*
X3267Y960*
X3260*
X3267*
X3275Y952*
Y944*
X3267Y936*
X3252*
X3244Y944*
X3315Y936D02*
Y983D01*
X3291Y960*
X3322*
X3046Y2984D02*
X3038Y2991D01*
X3022*
X3014Y2984*
Y2952*
X3022Y2944*
X3038*
X3046Y2952*
X3062Y2984D02*
X3070Y2991D01*
X3085*
X3093Y2984*
Y2976*
X3085Y2968*
X3077*
X3085*
X3093Y2960*
Y2952*
X3085Y2944*
X3070*
X3062Y2952*
X3109Y2984D02*
X3117Y2991D01*
X3132*
X3140Y2984*
Y2976*
X3132Y2968*
X3125*
X3132*
X3140Y2960*
Y2952*
X3132Y2944*
X3117*
X3109Y2952*
X1388Y2345D02*
X1380Y2353D01*
X1364*
X1357Y2345*
Y2314*
X1364Y2306*
X1380*
X1388Y2314*
X1435Y2306D02*
X1404D01*
X1435Y2337*
Y2345*
X1427Y2353*
X1412*
X1404Y2345*
X1451Y2314D02*
X1459Y2306D01*
X1475*
X1482Y2314*
Y2345*
X1475Y2353*
X1459*
X1451Y2345*
Y2337*
X1459Y2330*
X1482*
X2636Y2925D02*
X2628Y2933D01*
X2612*
X2604Y2925*
Y2894*
X2612Y2886*
X2628*
X2636Y2894*
X2652Y2925D02*
X2660Y2933D01*
X2675*
X2683Y2925*
Y2917*
X2675Y2910*
X2667*
X2675*
X2683Y2902*
Y2894*
X2675Y2886*
X2660*
X2652Y2894*
X2699Y2886D02*
X2715D01*
X2707*
Y2933*
X2699Y2925*
X3358Y2665D02*
X3350Y2673D01*
X3334*
X3327Y2665*
Y2634*
X3334Y2626*
X3350*
X3358Y2634*
X3374Y2665D02*
X3382Y2673D01*
X3397*
X3405Y2665*
Y2657*
X3397Y2650*
X3390*
X3397*
X3405Y2642*
Y2634*
X3397Y2626*
X3382*
X3374Y2634*
X3421Y2665D02*
X3429Y2673D01*
X3445*
X3452Y2665*
Y2634*
X3445Y2626*
X3429*
X3421Y2634*
Y2665*
X3178Y2845D02*
X3170Y2853D01*
X3154*
X3147Y2845*
Y2814*
X3154Y2806*
X3170*
X3178Y2814*
X3225Y2806D02*
X3194D01*
X3225Y2837*
Y2845*
X3217Y2853*
X3202*
X3194Y2845*
X3241Y2853D02*
X3272D01*
Y2845*
X3241Y2814*
Y2806*
X2620Y2461D02*
X2612Y2469D01*
X2597*
X2589Y2461*
Y2430*
X2597Y2422*
X2612*
X2620Y2430*
X2667Y2422D02*
X2636D01*
X2667Y2453*
Y2461*
X2660Y2469*
X2644*
X2636Y2461*
X2683D02*
X2691Y2469D01*
X2707*
X2715Y2461*
Y2453*
X2707Y2446*
X2715Y2438*
Y2430*
X2707Y2422*
X2691*
X2683Y2430*
Y2438*
X2691Y2446*
X2683Y2453*
Y2461*
X2691Y2446D02*
X2707D01*
X2868Y2255D02*
X2860Y2263D01*
X2844*
X2837Y2255*
Y2224*
X2844Y2216*
X2860*
X2868Y2224*
X2915Y2216D02*
X2884D01*
X2915Y2247*
Y2255*
X2907Y2263*
X2892*
X2884Y2255*
X2962Y2263D02*
X2947Y2255D01*
X2931Y2240*
Y2224*
X2939Y2216*
X2955*
X2962Y2224*
Y2232*
X2955Y2240*
X2931*
X2868Y2155D02*
X2860Y2163D01*
X2844*
X2837Y2155*
Y2124*
X2844Y2116*
X2860*
X2868Y2124*
X2915Y2116D02*
X2884D01*
X2915Y2147*
Y2155*
X2907Y2163*
X2892*
X2884Y2155*
X2955Y2116D02*
Y2163D01*
X2931Y2140*
X2962*
X3334Y2158D02*
X3326Y2150D01*
Y2134*
X3334Y2127*
X3365*
X3373Y2134*
Y2150*
X3365Y2158*
X3373Y2205D02*
Y2174D01*
X3342Y2205*
X3334*
X3326Y2197*
Y2182*
X3334Y2174*
X3326Y2252D02*
Y2221D01*
X3350*
X3342Y2237*
Y2245*
X3350Y2252*
X3365*
X3373Y2245*
Y2229*
X3365Y2221*
X3204Y2488D02*
X3196Y2480D01*
Y2464*
X3204Y2457*
X3235*
X3243Y2464*
Y2480*
X3235Y2488*
X3243Y2535D02*
Y2504D01*
X3212Y2535*
X3204*
X3196Y2527*
Y2512*
X3204Y2504*
X3243Y2582D02*
Y2551D01*
X3212Y2582*
X3204*
X3196Y2575*
Y2559*
X3204Y2551*
X3192Y2137D02*
X3184Y2145D01*
X3168*
X3160Y2137*
Y2106*
X3168Y2098*
X3184*
X3192Y2106*
X3239Y2098D02*
X3207D01*
X3239Y2129*
Y2137*
X3231Y2145*
X3215*
X3207Y2137*
X3255Y2098D02*
X3270D01*
X3262*
Y2145*
X3255Y2137*
X3364Y2478D02*
X3356Y2470D01*
Y2454*
X3364Y2447*
X3395*
X3403Y2454*
Y2470*
X3395Y2478*
X3403Y2525D02*
Y2494D01*
X3372Y2525*
X3364*
X3356Y2517*
Y2502*
X3364Y2494*
Y2541D02*
X3356Y2549D01*
Y2565*
X3364Y2572*
X3372*
X3380Y2565*
Y2557*
Y2565*
X3387Y2572*
X3395*
X3403Y2565*
Y2549*
X3395Y2541*
X3118Y2355D02*
X3110Y2363D01*
X3094*
X3087Y2355*
Y2324*
X3094Y2316*
X3110*
X3118Y2324*
X3165Y2316D02*
X3134D01*
X3165Y2347*
Y2355*
X3157Y2363*
X3142*
X3134Y2355*
X3181D02*
X3189Y2363D01*
X3205*
X3212Y2355*
Y2324*
X3205Y2316*
X3189*
X3181Y2324*
Y2355*
X1562Y1165D02*
X1554Y1173D01*
X1538*
X1530Y1165*
Y1134*
X1538Y1126*
X1554*
X1562Y1134*
X1578Y1126D02*
X1593D01*
X1586*
Y1173*
X1578Y1165*
X1617Y1134D02*
X1625Y1126D01*
X1641*
X1649Y1134*
Y1165*
X1641Y1173*
X1625*
X1617Y1165*
Y1157*
X1625Y1150*
X1649*
X1892Y865D02*
X1884Y873D01*
X1868*
X1860Y865*
Y834*
X1868Y826*
X1884*
X1892Y834*
X1908Y826D02*
X1923D01*
X1916*
Y873*
X1908Y865*
X1947D02*
X1955Y873D01*
X1971*
X1979Y865*
Y857*
X1971Y850*
X1979Y842*
Y834*
X1971Y826*
X1955*
X1947Y834*
Y842*
X1955Y850*
X1947Y857*
Y865*
X1955Y850D02*
X1971D01*
X2412Y425D02*
X2404Y433D01*
X2388*
X2380Y425*
Y394*
X2388Y386*
X2404*
X2412Y394*
X2428Y386D02*
X2443D01*
X2436*
Y433*
X2428Y425*
X2467Y433D02*
X2499D01*
Y425*
X2467Y394*
Y386*
X1072Y595D02*
X1064Y603D01*
X1048*
X1040Y595*
Y564*
X1048Y556*
X1064*
X1072Y564*
X1088Y556D02*
X1103D01*
X1096*
Y603*
X1088Y595*
X1151Y556D02*
Y603D01*
X1127Y580*
X1159*
X402Y3535D02*
X394Y3543D01*
X378*
X370Y3535*
Y3504*
X378Y3496*
X394*
X402Y3504*
X418Y3496D02*
X433D01*
X426*
Y3543*
X418Y3535*
X489Y3496D02*
X457D01*
X489Y3527*
Y3535*
X481Y3543*
X465*
X457Y3535*
X1122Y3565D02*
X1114Y3573D01*
X1098*
X1090Y3565*
Y3534*
X1098Y3526*
X1114*
X1122Y3534*
X1138Y3526D02*
X1153D01*
X1146*
Y3573*
X1138Y3565*
X1177D02*
X1185Y3573D01*
X1201*
X1209Y3565*
Y3557*
X1201Y3550*
X1193*
X1201*
X1209Y3542*
Y3534*
X1201Y3526*
X1185*
X1177Y3534*
X2472Y1665D02*
X2464Y1673D01*
X2448*
X2440Y1665*
Y1634*
X2448Y1626*
X2464*
X2472Y1634*
X2488Y1626D02*
X2503D01*
X2496*
Y1673*
X2488Y1665*
X2527D02*
X2535Y1673D01*
X2551*
X2559Y1665*
Y1634*
X2551Y1626*
X2535*
X2527Y1634*
Y1665*
X2202Y1555D02*
X2194Y1563D01*
X2178*
X2170Y1555*
Y1524*
X2178Y1516*
X2194*
X2202Y1524*
X2217D02*
X2225Y1516D01*
X2241*
X2249Y1524*
Y1555*
X2241Y1563*
X2225*
X2217Y1555*
Y1547*
X2225Y1540*
X2249*
X2002Y1615D02*
X1994Y1623D01*
X1978*
X1970Y1615*
Y1584*
X1978Y1576*
X1994*
X2002Y1584*
X2017Y1623D02*
X2049D01*
Y1615*
X2017Y1584*
Y1576*
X2112Y1635D02*
X2104Y1643D01*
X2088*
X2080Y1635*
Y1604*
X2088Y1596*
X2104*
X2112Y1604*
X2127Y1635D02*
X2135Y1643D01*
X2151*
X2159Y1635*
Y1627*
X2151Y1620*
X2159Y1612*
Y1604*
X2151Y1596*
X2135*
X2127Y1604*
Y1612*
X2135Y1620*
X2127Y1627*
Y1635*
X2135Y1620D02*
X2151D01*
X2632Y1785D02*
X2624Y1793D01*
X2608*
X2600Y1785*
Y1754*
X2608Y1746*
X2624*
X2632Y1754*
X2679Y1793D02*
X2663Y1785D01*
X2647Y1770*
Y1754*
X2655Y1746*
X2671*
X2679Y1754*
Y1762*
X2671Y1770*
X2647*
X2712Y1985D02*
X2704Y1993D01*
X2688*
X2680Y1985*
Y1954*
X2688Y1946*
X2704*
X2712Y1954*
X2759Y1993D02*
X2727D01*
Y1970*
X2743Y1977*
X2751*
X2759Y1970*
Y1954*
X2751Y1946*
X2735*
X2727Y1954*
X1822Y1795D02*
X1814Y1803D01*
X1798*
X1790Y1795*
Y1764*
X1798Y1756*
X1814*
X1822Y1764*
X1837Y1795D02*
X1845Y1803D01*
X1861*
X1869Y1795*
Y1787*
X1861Y1780*
X1853*
X1861*
X1869Y1772*
Y1764*
X1861Y1756*
X1845*
X1837Y1764*
X2320Y2255D02*
X2312Y2263D01*
X2296*
X2288Y2255*
Y2224*
X2296Y2216*
X2312*
X2320Y2224*
X2335Y2216D02*
X2351D01*
X2343*
Y2263*
X2335Y2255*
X2492Y2135D02*
X2484Y2143D01*
X2468*
X2460Y2135*
Y2104*
X2468Y2096*
X2484*
X2492Y2104*
X2539Y2096D02*
X2507D01*
X2539Y2127*
Y2135*
X2531Y2143*
X2515*
X2507Y2135*
M02*