%FSLAX23Y23*%
%MOIN*%
%SFA1B1*%

%IPPOS*%
%AMD33*
4,1,8,0.002600,0.062600,-0.002600,0.062600,-0.019800,0.045400,-0.019800,-0.045400,-0.002600,-0.062600,0.002600,-0.062600,0.019800,-0.045400,0.019800,0.045400,0.002600,0.062600,0.0*
1,1,0.034400,0.002600,0.045400*
1,1,0.034400,-0.002600,0.045400*
1,1,0.034400,-0.002600,-0.045400*
1,1,0.034400,0.002600,-0.045400*
%
%AMD34*
4,1,8,0.002600,0.017200,-0.002600,0.017200,-0.019800,0.000000,-0.019800,0.000000,-0.002600,-0.017200,0.002600,-0.017200,0.019800,0.000000,0.019800,0.000000,0.002600,0.017200,0.0*
1,1,0.034340,0.002600,0.000000*
1,1,0.034340,-0.002600,0.000000*
1,1,0.034340,-0.002600,0.000000*
1,1,0.034340,0.002600,0.000000*
%
%AMD48*
4,1,8,-0.019700,0.009800,-0.019700,-0.009800,-0.017700,-0.011800,0.017700,-0.011800,0.019700,-0.009800,0.019700,0.009800,0.017700,0.011800,-0.017700,0.011800,-0.019700,0.009800,0.0*
1,1,0.004020,-0.017700,0.009800*
1,1,0.004020,-0.017700,-0.009800*
1,1,0.004020,0.017700,-0.009800*
1,1,0.004020,0.017700,0.009800*
%
%ADD15C,0.010000*%
%ADD18C,0.007090*%
%ADD20C,0.063120*%
%ADD21R,0.020290X0.018600*%
%ADD22R,0.018600X0.020290*%
%ADD23R,0.039850X0.045600*%
%ADD24R,0.061270X0.057270*%
%ADD25R,0.045600X0.039850*%
%ADD26R,0.053150X0.041340*%
%ADD27R,0.057270X0.061270*%
%ADD28R,0.025590X0.027560*%
%ADD29R,0.028160X0.026480*%
%ADD30R,0.041340X0.051180*%
%ADD31R,0.053150X0.061020*%
%ADD32R,0.061020X0.053150*%
G04~CAMADD=33~8~0.0~0.0~395.4~1252.8~172.0~0.0~15~0.0~0.0~0.0~0.0~0~0.0~0.0~0.0~0.0~0~0.0~0.0~0.0~0.0~395.4~1252.8*
%ADD33D33*%
G04~CAMADD=34~8~0.0~0.0~395.4~343.4~171.7~0.0~15~0.0~0.0~0.0~0.0~0~0.0~0.0~0.0~0.0~0~0.0~0.0~0.0~0.0~395.4~343.4*
%ADD34D34*%
%ADD35R,0.039540X0.034340*%
%ADD36R,0.125980X0.059840*%
%ADD37R,0.016230X0.024100*%
%ADD38R,0.009840X0.014170*%
%ADD39R,0.035430X0.031500*%
%ADD40R,0.031500X0.035430*%
%ADD41R,0.031500X0.031500*%
%ADD42R,0.035430X0.025590*%
%ADD43R,0.029530X0.033470*%
%ADD44R,0.045460X0.053630*%
%ADD45R,0.053630X0.045460*%
%ADD46R,0.025590X0.013780*%
%ADD47R,0.012290X0.020160*%
G04~CAMADD=48~8~0.0~0.0~236.2~393.7~20.1~0.0~15~0.0~0.0~0.0~0.0~0~0.0~0.0~0.0~0.0~0~0.0~0.0~0.0~90.0~394.0~237.0*
%ADD48D48*%
%ADD49R,0.037720X0.035910*%
%ADD50R,0.049520X0.039850*%
%ADD51R,0.039850X0.049520*%
%ADD52R,0.059240X0.061270*%
%ADD53R,0.061270X0.059240*%
%ADD54R,0.029530X0.031500*%
%ADD55R,0.029530X0.035430*%
%ADD56R,0.039850X0.045620*%
%ADD57R,0.045620X0.039850*%
%ADD58R,0.041340X0.037400*%
%ADD59R,0.035430X0.029530*%
%ADD60R,0.039370X0.041340*%
%ADD61R,0.220870X0.220870*%
%ADD62R,0.005910X0.033470*%
%ADD63R,0.033470X0.005910*%
%ADD64R,0.045280X0.022440*%
%ADD65R,0.022440X0.045280*%
%ADD66R,0.047240X0.047240*%
%ADD67R,0.011810X0.014760*%
%ADD68R,0.014000X0.010000*%
%ADD69R,0.010000X0.014000*%
%ADD70R,0.019000X0.019000*%
%ADD71R,0.014760X0.011810*%
%ADD72R,0.070870X0.031500*%
%ADD73R,0.013780X0.025590*%
%ADD74R,0.165350X0.053150*%
%ADD75R,0.141730X0.050000*%
%ADD76R,0.023620X0.057090*%
%ADD77R,0.031500X0.035430*%
%ADD78R,0.047240X0.047240*%
%ADD79R,0.033470X0.011810*%
%ADD80R,0.011810X0.033470*%
%ADD81R,0.104330X0.104330*%
%ADD82R,0.070870X0.027560*%
%ADD83R,0.047240X0.023620*%
%ADD90R,0.027560X0.023620*%
%ADD110C,0.061810*%
%ADD111R,0.061810X0.061810*%
%ADD119C,0.005910*%
%ADD120C,0.020000*%
%ADD121C,0.015000*%
%ADD122C,0.013570*%
%ADD123C,0.013500*%
%ADD124C,0.013580*%
%ADD125C,0.019680*%
%ADD126C,0.013570*%
%ADD127C,0.060000*%
%ADD128C,0.055120*%
%ADD129C,0.065550*%
%ADD130R,0.065550X0.065550*%
%ADD131R,0.061020X0.061020*%
%ADD132C,0.061020*%
%ADD133C,0.023620*%
%ADD134C,0.031500*%
%ADD135C,0.030000*%
%LNconcentrator_pcb-1*%
%LPD*%
G36*
X2589Y3608D02*
X2588Y3608D01*
X2587Y3608*
X2586Y3607*
X2585Y3607*
X2583Y3607*
X2582Y3606*
X2582Y3606*
X2581Y3605*
X2580Y3605*
X2579Y3604*
X2574Y3609*
X2575Y3610*
X2575Y3611*
X2576Y3612*
X2576Y3612*
X2577Y3613*
X2577Y3615*
X2577Y3616*
X2578Y3617*
X2578Y3618*
X2578Y3619*
X2589Y3608*
G37*
G36*
X2427Y3610D02*
X2427Y3610D01*
X2426Y3609*
X2426Y3608*
X2425Y3607*
X2425Y3606*
X2425Y3605*
X2425Y3604*
X2425Y3603*
X2425Y3602*
X2415*
X2414Y3603*
X2414Y3604*
X2414Y3605*
X2414Y3606*
X2414Y3607*
X2413Y3608*
X2413Y3609*
X2412Y3610*
X2412Y3610*
X2411Y3611*
X2428*
X2427Y3610*
G37*
G36*
X1180Y3680D02*
X1156D01*
Y3640*
X1151*
Y3635*
X1115*
Y3600*
X1066*
Y3614*
X1030*
X993*
Y3600*
X890*
Y3673*
X894Y3677*
Y3750*
Y3822*
X890Y3826*
Y3890*
X1180*
Y3680*
G37*
G36*
X3844Y3582D02*
X3844Y3582D01*
X3843Y3582*
X3843Y3582*
X3842Y3582*
X3841Y3582*
X3840Y3583*
X3837Y3583*
X3836Y3583*
X3834Y3596*
X3835Y3596*
X3839Y3597*
X3840Y3597*
X3840Y3597*
X3841Y3597*
X3842Y3597*
X3842Y3598*
X3842Y3598*
X3844Y3582*
G37*
G36*
X3708Y3597D02*
X3709Y3597D01*
X3709Y3597*
X3710Y3597*
X3711Y3597*
X3712Y3597*
X3714Y3596*
X3716Y3596*
Y3583*
X3715Y3583*
X3712Y3582*
X3711Y3582*
X3710Y3582*
X3709Y3582*
X3709Y3582*
X3708Y3582*
X3708Y3581*
Y3598*
X3708Y3597*
G37*
G36*
X670Y3867D02*
X645D01*
Y3840*
Y3812*
X670*
Y3800*
X520*
Y3629*
X502*
Y3600*
X497*
Y3595*
X464*
Y3580*
X340*
Y3890*
X670*
Y3867*
G37*
G36*
X1563Y3590D02*
X1562Y3589D01*
X1561Y3588*
X1561Y3587*
X1560Y3586*
X1560Y3585*
X1560Y3584*
X1560Y3583*
X1559Y3581*
X1559Y3580*
X1559Y3579*
X1548Y3590*
X1549Y3590*
X1552Y3591*
X1553Y3591*
X1554Y3591*
X1555Y3591*
X1556Y3592*
X1557Y3592*
X1558Y3593*
X1559Y3594*
X1563Y3590*
G37*
G36*
X1428Y3582D02*
X1428Y3581D01*
X1428Y3580*
X1428Y3579*
X1429Y3578*
X1429Y3577*
X1430Y3576*
X1431Y3575*
X1431Y3574*
X1432Y3573*
X1416*
X1417Y3574*
X1418Y3575*
X1418Y3576*
X1419Y3577*
X1419Y3578*
X1420Y3579*
X1420Y3580*
X1420Y3581*
X1420Y3582*
X1421Y3583*
X1428*
X1428Y3582*
G37*
G36*
X1120Y3455D02*
X940D01*
Y3580*
X993*
Y3565*
X1030*
X1066*
Y3580*
X1120*
Y3455*
G37*
G36*
X2124Y3577D02*
X2124Y3577D01*
X2125Y3576*
X2126Y3576*
X2127Y3575*
X2128Y3575*
X2129Y3575*
X2130Y3575*
X2131Y3575*
X2132Y3575*
Y3565*
X2131Y3564*
X2130Y3564*
X2129Y3564*
X2128Y3564*
X2127Y3564*
X2126Y3563*
X2125Y3563*
X2124Y3562*
X2124Y3562*
X2123Y3561*
Y3578*
X2124Y3577*
G37*
G36*
X2106Y3561D02*
X2105Y3562D01*
X2105Y3562*
X2104Y3563*
X2103Y3563*
X2102Y3564*
X2101Y3564*
X2100Y3564*
X2099Y3564*
X2098Y3564*
X2097Y3565*
Y3575*
X2098Y3575*
X2099Y3575*
X2100Y3575*
X2101Y3575*
X2102Y3575*
X2103Y3576*
X2104Y3576*
X2105Y3577*
X2105Y3577*
X2106Y3578*
Y3561*
G37*
G36*
X1835Y3545D02*
X1834Y3544D01*
X1834Y3543*
X1833Y3542*
X1833Y3542*
X1832Y3541*
X1832Y3539*
X1832Y3538*
X1831Y3537*
X1831Y3536*
X1831Y3535*
X1820Y3546*
X1821Y3546*
X1822Y3546*
X1823Y3547*
X1824Y3547*
X1826Y3547*
X1827Y3548*
X1827Y3548*
X1828Y3549*
X1829Y3549*
X1830Y3550*
X1835Y3545*
G37*
G36*
X2599Y3538D02*
X2598Y3538D01*
X2597Y3538*
X2596Y3537*
X2595Y3537*
X2593Y3537*
X2592Y3536*
X2592Y3536*
X2591Y3535*
X2590Y3535*
X2589Y3534*
X2584Y3539*
X2585Y3540*
X2585Y3541*
X2586Y3542*
X2586Y3542*
X2587Y3543*
X2587Y3545*
X2587Y3546*
X2588Y3547*
X2588Y3548*
X2588Y3549*
X2599Y3538*
G37*
G36*
X2433Y3506D02*
X2433Y3505D01*
X2433Y3504*
X2433Y3503*
X2434Y3502*
X2434Y3502*
X2435Y3502*
X2436Y3502*
X2437Y3503*
X2437Y3504*
X2438Y3504*
X2439Y3505*
X2445Y3501*
X2444Y3500*
X2443Y3499*
X2443Y3498*
X2443Y3497*
X2442Y3496*
X2442Y3495*
X2442Y3495*
X2442Y3495*
X2443Y3495*
X2444Y3494*
X2445Y3494*
X2446Y3494*
X2447Y3494*
X2448Y3494*
X2449Y3486*
X2448Y3486*
X2447Y3486*
X2446Y3486*
X2445Y3486*
X2444Y3485*
X2443Y3485*
X2443Y3484*
X2443Y3484*
X2443Y3483*
X2444Y3482*
X2444Y3481*
X2445Y3480*
X2445Y3479*
X2446Y3478*
X2441Y3473*
X2440Y3474*
X2439Y3474*
X2438Y3475*
X2437Y3475*
X2436Y3476*
X2435Y3476*
X2435Y3476*
X2434Y3476*
X2434Y3475*
X2433Y3474*
X2433Y3473*
X2433Y3472*
X2433Y3471*
X2433Y3470*
X2425Y3471*
X2425Y3472*
X2425Y3473*
X2425Y3474*
X2425Y3475*
X2424Y3476*
X2424Y3477*
X2424Y3477*
X2424Y3477*
X2423Y3477*
X2422Y3477*
X2421Y3476*
X2420Y3476*
X2419Y3475*
X2418Y3474*
X2414Y3480*
X2415Y3481*
X2415Y3482*
X2416Y3483*
X2417Y3483*
X2417Y3484*
X2417Y3485*
X2417Y3485*
X2416Y3486*
X2415Y3486*
X2414Y3486*
X2413Y3486*
X2412Y3486*
X2413Y3494*
X2414Y3494*
X2415Y3494*
X2416Y3494*
X2417Y3494*
X2418Y3495*
X2417Y3496*
X2417Y3497*
X2416Y3497*
X2416Y3498*
X2415Y3499*
X2420Y3504*
X2421Y3503*
X2422Y3503*
X2422Y3502*
X2423Y3502*
X2424Y3501*
X2424Y3501*
X2425Y3502*
X2425Y3503*
X2425Y3504*
X2425Y3505*
X2425Y3506*
X2433Y3507*
X2433Y3506*
G37*
G36*
X680Y3575D02*
Y3495D01*
X540*
Y3570*
X557*
Y3600*
Y3629*
X540*
Y3710*
X680*
Y3575*
G37*
G36*
X2079Y3477D02*
X2080Y3476D01*
X2081Y3475*
X2082Y3475*
X2083Y3474*
X2084Y3474*
X2085Y3473*
X2086Y3473*
X2087Y3473*
X2088Y3473*
Y3466*
X2087Y3466*
X2086Y3466*
X2085Y3466*
X2084Y3465*
X2083Y3465*
X2082Y3464*
X2081Y3464*
X2080Y3463*
X2079Y3462*
X2078Y3461*
Y3478*
X2079Y3477*
G37*
G36*
X3706Y3385D02*
X3707Y3382D01*
X3707Y3381*
X3707Y3380*
X3707Y3379*
X3707Y3379*
X3707Y3378*
X3708Y3378*
X3691*
X3692Y3378*
X3692Y3379*
X3692Y3379*
X3692Y3380*
X3692Y3381*
X3692Y3382*
X3693Y3384*
X3693Y3386*
X3706*
X3706Y3385*
G37*
G36*
X3318Y3387D02*
X3319Y3387D01*
X3319Y3387*
X3320Y3387*
X3321Y3387*
X3322Y3387*
X3324Y3386*
X3326Y3386*
Y3373*
X3325Y3373*
X3322Y3372*
X3321Y3372*
X3320Y3372*
X3319Y3372*
X3319Y3372*
X3318Y3372*
X3318Y3371*
Y3388*
X3318Y3387*
G37*
G36*
X3708Y3377D02*
X3709Y3377D01*
X3709Y3377*
X3710Y3377*
X3711Y3377*
X3712Y3377*
X3714Y3376*
X3716Y3376*
Y3363*
X3715Y3363*
X3712Y3362*
X3711Y3362*
X3710Y3362*
X3709Y3362*
X3709Y3362*
X3708Y3362*
X3708Y3361*
Y3378*
X3708Y3377*
G37*
G36*
X3842Y3361D02*
X3842Y3361D01*
X3842Y3362*
X3841Y3362*
X3840Y3362*
X3840Y3362*
X3839Y3362*
X3838Y3363*
X3835Y3363*
X3834Y3363*
X3836Y3376*
X3837Y3376*
X3841Y3377*
X3842Y3377*
X3843Y3377*
X3843Y3377*
X3844Y3377*
X3844Y3377*
X3842Y3361*
G37*
G36*
X1770Y3374D02*
X1771Y3374D01*
X1772Y3373*
X1772Y3373*
X1773Y3372*
X1775Y3372*
X1776Y3372*
X1777Y3371*
X1778Y3371*
X1779Y3371*
X1768Y3360*
X1768Y3361*
X1768Y3362*
X1767Y3363*
X1767Y3364*
X1767Y3366*
X1766Y3367*
X1766Y3367*
X1765Y3368*
X1765Y3369*
X1764Y3370*
X1769Y3375*
X1770Y3374*
G37*
G36*
X3005Y3336D02*
X3005Y3335D01*
X3005Y3334*
X3005Y3333*
X3005Y3332*
X3006Y3331*
X3006Y3330*
X3007Y3329*
X3007Y3329*
X3008Y3328*
X2991*
X2992Y3329*
X2992Y3329*
X2993Y3330*
X2993Y3331*
X2994Y3332*
X2994Y3333*
X2994Y3334*
X2994Y3335*
X2994Y3336*
X2995Y3337*
X3005*
X3005Y3336*
G37*
G36*
X1481Y3319D02*
X1479Y3317D01*
X1478Y3316*
X1478Y3315*
X1477Y3314*
X1477Y3313*
X1477Y3312*
X1477Y3311*
X1476Y3310*
X1471*
X1470Y3311*
X1470Y3312*
X1470Y3313*
X1470Y3314*
X1469Y3315*
X1469Y3316*
X1468Y3317*
X1467Y3318*
X1466Y3319*
X1465Y3320*
X1482*
X1481Y3319*
G37*
G36*
X3007Y3310D02*
X3007Y3310D01*
X3006Y3309*
X3006Y3308*
X3005Y3307*
X3005Y3306*
X3005Y3305*
X3005Y3304*
X3005Y3303*
X3005Y3302*
X2995*
X2994Y3303*
X2994Y3304*
X2994Y3305*
X2994Y3306*
X2994Y3307*
X2993Y3308*
X2993Y3309*
X2992Y3310*
X2992Y3310*
X2991Y3311*
X3008*
X3007Y3310*
G37*
G36*
X2323Y3288D02*
X2321Y3288D01*
X2319Y3287*
X2318Y3286*
X2316Y3285*
X2315Y3285*
X2314Y3284*
X2313Y3284*
X2312Y3283*
X2306Y3286*
X2307Y3287*
X2307Y3288*
X2308Y3289*
X2308Y3290*
X2308Y3291*
X2309Y3292*
X2309Y3293*
X2309Y3294*
X2308Y3295*
X2308Y3296*
X2323Y3288*
G37*
G36*
X2453Y3268D02*
X2453Y3267D01*
X2453Y3266*
X2453Y3265*
X2453Y3264*
X2454Y3263*
X2455Y3262*
X2455Y3261*
X2456Y3260*
X2457Y3259*
X2458Y3258*
X2441Y3258*
X2442Y3259*
X2443Y3260*
X2444Y3261*
X2445Y3262*
X2445Y3263*
X2446Y3264*
X2446Y3265*
X2446Y3266*
X2447Y3267*
X2447Y3268*
X2453Y3268*
G37*
G36*
X2867Y3260D02*
X2866Y3259D01*
X2865Y3258*
X2865Y3257*
X2864Y3256*
X2864Y3255*
X2863Y3254*
X2863Y3253*
X2863Y3252*
X2863Y3251*
X2856*
X2856Y3252*
X2856Y3253*
X2856Y3254*
X2855Y3255*
X2855Y3256*
X2854Y3257*
X2854Y3258*
X2853Y3259*
X2852Y3260*
X2851Y3261*
X2868*
X2867Y3260*
G37*
G36*
X2639Y3238D02*
X2638Y3238D01*
X2637Y3238*
X2636Y3237*
X2635Y3237*
X2633Y3237*
X2632Y3236*
X2632Y3236*
X2631Y3235*
X2630Y3235*
X2629Y3234*
X2624Y3239*
X2625Y3240*
X2625Y3241*
X2626Y3242*
X2626Y3242*
X2627Y3243*
X2627Y3245*
X2627Y3246*
X2628Y3247*
X2628Y3248*
X2628Y3249*
X2639Y3238*
G37*
G36*
X2747Y3240D02*
X2746Y3239D01*
X2745Y3238*
X2745Y3237*
X2744Y3236*
X2744Y3235*
X2743Y3234*
X2743Y3233*
X2743Y3232*
X2743Y3231*
X2736*
X2736Y3232*
X2736Y3233*
X2736Y3234*
X2735Y3235*
X2735Y3236*
X2734Y3237*
X2734Y3238*
X2733Y3239*
X2732Y3240*
X2731Y3241*
X2748*
X2747Y3240*
G37*
G36*
X1725Y3240D02*
X1724Y3239D01*
X1724Y3238*
X1723Y3237*
X1723Y3237*
X1722Y3236*
X1722Y3234*
X1722Y3233*
X1721Y3232*
X1721Y3231*
X1721Y3230*
X1710Y3241*
X1711Y3241*
X1712Y3241*
X1713Y3242*
X1714Y3242*
X1716Y3242*
X1717Y3243*
X1717Y3243*
X1718Y3244*
X1719Y3244*
X1720Y3245*
X1725Y3240*
G37*
G36*
X3651Y3211D02*
X3651Y3212D01*
X3650Y3212*
X3650Y3212*
X3649Y3212*
X3648Y3212*
X3647Y3212*
X3645Y3213*
X3643Y3213*
Y3226*
X3644Y3226*
X3647Y3227*
X3648Y3227*
X3649Y3227*
X3650Y3227*
X3650Y3227*
X3651Y3227*
X3651Y3228*
Y3211*
G37*
G36*
X2059Y3167D02*
X2060Y3166D01*
X2061Y3165*
X2062Y3165*
X2063Y3164*
X2064Y3164*
X2065Y3163*
X2066Y3163*
X2067Y3163*
X2068Y3163*
Y3156*
X2067Y3156*
X2066Y3156*
X2065Y3156*
X2064Y3155*
X2063Y3155*
X2062Y3154*
X2061Y3154*
X2060Y3153*
X2059Y3152*
X2058Y3151*
Y3168*
X2059Y3167*
G37*
G36*
X2515Y3076D02*
X2515Y3075D01*
X2515Y3074*
X2515Y3073*
X2515Y3072*
X2516Y3071*
X2516Y3070*
X2517Y3069*
X2517Y3069*
X2518Y3068*
X2501*
X2502Y3069*
X2502Y3069*
X2503Y3070*
X2503Y3071*
X2504Y3072*
X2504Y3073*
X2504Y3074*
X2504Y3075*
X2504Y3076*
X2505Y3077*
X2515*
X2515Y3076*
G37*
G36*
X2750Y3071D02*
X2750Y3070D01*
X2750Y3069*
X2750Y3068*
X2750Y3067*
X2751Y3066*
X2751Y3065*
X2752Y3064*
X2752Y3064*
X2753Y3063*
X2736*
X2737Y3064*
X2737Y3064*
X2738Y3065*
X2738Y3066*
X2739Y3067*
X2739Y3068*
X2739Y3069*
X2739Y3070*
X2739Y3071*
X2740Y3072*
X2750*
X2750Y3071*
G37*
G36*
X2630D02*
X2630Y3070D01*
X2630Y3069*
X2630Y3068*
X2630Y3067*
X2631Y3066*
X2631Y3065*
X2632Y3064*
X2632Y3064*
X2633Y3063*
X2616*
X2617Y3064*
X2617Y3064*
X2618Y3065*
X2618Y3066*
X2619Y3067*
X2619Y3068*
X2619Y3069*
X2619Y3070*
X2619Y3071*
X2620Y3072*
X2630*
X2630Y3071*
G37*
G36*
X1999Y3077D02*
X2000Y3076D01*
X2001Y3075*
X2002Y3075*
X2003Y3074*
X2004Y3074*
X2005Y3073*
X2006Y3073*
X2007Y3073*
X2008Y3073*
Y3066*
X2007Y3066*
X2006Y3066*
X2005Y3066*
X2004Y3065*
X2003Y3065*
X2002Y3064*
X2001Y3064*
X2000Y3063*
X1999Y3062*
X1998Y3061*
Y3078*
X1999Y3077*
G37*
G36*
X2870Y3066D02*
X2870Y3065D01*
X2870Y3064*
X2870Y3063*
X2870Y3062*
X2871Y3061*
X2871Y3060*
X2872Y3059*
X2872Y3059*
X2873Y3058*
X2856*
X2857Y3059*
X2857Y3059*
X2858Y3060*
X2858Y3061*
X2859Y3062*
X2859Y3063*
X2859Y3064*
X2859Y3065*
X2859Y3066*
X2860Y3067*
X2870*
X2870Y3066*
G37*
G36*
X3010Y3056D02*
X3010Y3055D01*
X3010Y3054*
X3010Y3053*
X3010Y3052*
X3011Y3051*
X3011Y3050*
X3012Y3049*
X3012Y3049*
X3013Y3048*
X2996*
X2997Y3049*
X2997Y3049*
X2998Y3050*
X2998Y3051*
X2999Y3052*
X2999Y3053*
X2999Y3054*
X2999Y3055*
X2999Y3056*
X3000Y3057*
X3010*
X3010Y3056*
G37*
G36*
X1839Y2967D02*
X1840Y2966D01*
X1841Y2965*
X1842Y2965*
X1843Y2964*
X1844Y2964*
X1845Y2963*
X1846Y2963*
X1847Y2963*
X1848Y2963*
Y2956*
X1847Y2956*
X1846Y2956*
X1845Y2956*
X1844Y2955*
X1843Y2955*
X1842Y2954*
X1841Y2954*
X1840Y2953*
X1839Y2952*
X1838Y2951*
Y2968*
X1839Y2967*
G37*
G36*
X2779Y2897D02*
X2779Y2897D01*
X2780Y2896*
X2781Y2896*
X2782Y2895*
X2783Y2895*
X2784Y2895*
X2785Y2895*
X2786Y2895*
X2787Y2895*
Y2885*
X2786Y2884*
X2785Y2884*
X2784Y2884*
X2783Y2884*
X2782Y2884*
X2781Y2883*
X2780Y2883*
X2779Y2882*
X2779Y2882*
X2778Y2881*
Y2898*
X2779Y2897*
G37*
G36*
X3749Y2858D02*
X3748Y2858D01*
X3747Y2858*
X3746Y2857*
X3745Y2857*
X3743Y2857*
X3742Y2856*
X3742Y2856*
X3741Y2855*
X3740Y2855*
X3739Y2854*
X3734Y2859*
X3735Y2860*
X3735Y2861*
X3736Y2862*
X3736Y2862*
X3737Y2863*
X3737Y2865*
X3737Y2866*
X3738Y2867*
X3738Y2868*
X3738Y2869*
X3749Y2858*
G37*
G36*
X2097Y2860D02*
X2096Y2859D01*
X2095Y2858*
X2095Y2857*
X2094Y2856*
X2094Y2855*
X2093Y2854*
X2093Y2853*
X2093Y2852*
X2093Y2851*
X2086*
X2086Y2852*
X2086Y2853*
X2086Y2854*
X2085Y2855*
X2085Y2856*
X2084Y2857*
X2084Y2858*
X2083Y2859*
X2082Y2860*
X2081Y2861*
X2098*
X2097Y2860*
G37*
G36*
X2739Y2842D02*
X2739Y2842D01*
X2740Y2841*
X2741Y2841*
X2742Y2840*
X2743Y2840*
X2744Y2840*
X2745Y2840*
X2746Y2840*
X2747Y2840*
Y2830*
X2746Y2829*
X2745Y2829*
X2744Y2829*
X2743Y2829*
X2742Y2829*
X2741Y2828*
X2740Y2828*
X2739Y2827*
X2739Y2827*
X2738Y2826*
Y2843*
X2739Y2842*
G37*
G36*
X1903Y2828D02*
X1902Y2828D01*
X1901Y2827*
X1900Y2827*
X1899Y2826*
X1899Y2826*
X1898Y2825*
X1898Y2824*
X1898Y2823*
X1898Y2822*
X1898Y2821*
X1890Y2822*
X1890Y2823*
X1890Y2828*
X1890Y2829*
X1889Y2833*
X1889Y2834*
X1888Y2836*
X1903Y2828*
G37*
G36*
X2287Y2820D02*
X2286Y2819D01*
X2285Y2818*
X2285Y2817*
X2284Y2816*
X2284Y2815*
X2283Y2814*
X2283Y2813*
X2283Y2812*
X2283Y2811*
X2276*
X2276Y2812*
X2276Y2813*
X2276Y2814*
X2275Y2815*
X2275Y2816*
X2274Y2817*
X2274Y2818*
X2273Y2819*
X2272Y2820*
X2271Y2821*
X2288*
X2287Y2820*
G37*
G36*
X1817Y2710D02*
X1815Y2708D01*
X1814Y2707*
X1814Y2706*
X1813Y2705*
X1813Y2704*
X1813Y2703*
X1813Y2702*
X1812Y2701*
X1807*
X1806Y2702*
X1806Y2703*
X1806Y2704*
X1806Y2705*
X1805Y2706*
X1805Y2707*
X1804Y2708*
X1803Y2709*
X1802Y2710*
X1801Y2711*
X1818*
X1817Y2710*
G37*
G36*
X2955Y2710D02*
X2954Y2709D01*
X2954Y2708*
X2953Y2707*
X2953Y2707*
X2952Y2706*
X2952Y2704*
X2952Y2703*
X2951Y2702*
X2951Y2701*
X2951Y2700*
X2940Y2711*
X2941Y2711*
X2942Y2711*
X2943Y2712*
X2944Y2712*
X2946Y2712*
X2947Y2713*
X2947Y2713*
X2948Y2714*
X2949Y2714*
X2950Y2715*
X2955Y2710*
G37*
G36*
X2756Y2688D02*
X2755Y2687D01*
X2755Y2686*
X2754Y2686*
X2754Y2685*
X2753Y2684*
X2752Y2681*
X2752Y2680*
X2751Y2677*
X2742Y2691*
X2744Y2691*
X2745Y2691*
X2746Y2690*
X2747Y2690*
X2748Y2691*
X2749Y2691*
X2750Y2691*
X2751Y2692*
X2752Y2692*
X2753Y2693*
X2756Y2688*
G37*
G36*
X3547Y2690D02*
X3546Y2689D01*
X3545Y2688*
X3545Y2687*
X3544Y2686*
X3544Y2685*
X3543Y2684*
X3543Y2683*
X3543Y2682*
X3543Y2681*
X3536*
X3536Y2682*
X3536Y2683*
X3536Y2684*
X3535Y2685*
X3535Y2686*
X3534Y2687*
X3534Y2688*
X3533Y2689*
X3532Y2690*
X3531Y2691*
X3548*
X3547Y2690*
G37*
G36*
X2918Y2673D02*
X2917Y2673D01*
X2912Y2671*
X2911Y2670*
X2909Y2669*
X2908Y2668*
X2908Y2668*
X2902Y2670*
X2903Y2671*
X2903Y2672*
X2904Y2673*
X2904Y2674*
X2904Y2675*
X2904Y2676*
X2904Y2677*
X2904Y2678*
X2904Y2679*
X2903Y2680*
X2918Y2673*
G37*
G36*
X3111Y2645D02*
X3111Y2645D01*
X3110Y2646*
X3109Y2646*
X3108Y2647*
X3107Y2647*
X3106Y2647*
X3105Y2648*
X3104Y2648*
X3103Y2648*
X3102Y2648*
Y2658*
X3103Y2658*
X3104Y2658*
X3105Y2658*
X3106Y2658*
X3107Y2659*
X3108Y2659*
X3109Y2659*
X3110Y2660*
X3111Y2660*
X3111Y2661*
Y2645*
G37*
G36*
X3271Y2641D02*
X3270Y2642D01*
X3269Y2643*
X3268Y2644*
X3267Y2644*
X3266Y2645*
X3265Y2645*
X3264Y2646*
X3263Y2646*
X3262Y2646*
X3261Y2646*
Y2653*
X3262Y2653*
X3263Y2653*
X3264Y2653*
X3265Y2654*
X3266Y2654*
X3267Y2655*
X3268Y2655*
X3269Y2656*
X3270Y2657*
X3271Y2658*
Y2641*
G37*
G36*
X1780Y2633D02*
X1780Y2633D01*
Y2633*
X1780Y2632*
X1780Y2632*
X1780Y2631*
X1780Y2631*
X1781Y2630*
X1781Y2630*
X1782Y2629*
X1777Y2625*
X1777Y2626*
X1776Y2627*
X1775Y2627*
X1774Y2627*
X1774Y2628*
X1773Y2628*
X1773Y2628*
X1773Y2628*
X1772Y2628*
X1780Y2634*
X1780Y2633*
G37*
G36*
X1389Y2628D02*
X1388Y2628D01*
X1385Y2627*
X1384Y2627*
X1383Y2627*
X1382Y2627*
X1381Y2626*
X1380Y2626*
X1379Y2625*
X1378Y2624*
X1374Y2628*
X1375Y2629*
X1376Y2630*
X1376Y2631*
X1377Y2632*
X1377Y2633*
X1377Y2634*
X1377Y2635*
X1378Y2637*
X1378Y2638*
X1378Y2639*
X1389Y2628*
G37*
G36*
X2795Y2631D02*
X2794Y2630D01*
X2793Y2629*
X2793Y2628*
X2792Y2627*
X2792Y2626*
X2792Y2625*
X2792Y2624*
X2791Y2622*
X2791Y2621*
X2791Y2620*
X2780Y2631*
X2781Y2631*
X2784Y2632*
X2785Y2632*
X2786Y2632*
X2787Y2632*
X2788Y2633*
X2789Y2633*
X2790Y2634*
X2791Y2635*
X2795Y2631*
G37*
G36*
X2785Y2571D02*
X2784Y2570D01*
X2783Y2569*
X2783Y2568*
X2782Y2567*
X2782Y2566*
X2782Y2565*
X2782Y2564*
X2781Y2562*
X2781Y2561*
X2781Y2560*
X2770Y2571*
X2771Y2571*
X2774Y2572*
X2775Y2572*
X2776Y2572*
X2777Y2572*
X2778Y2573*
X2779Y2573*
X2780Y2574*
X2781Y2575*
X2785Y2571*
G37*
G36*
X1740Y2563D02*
X1740Y2563D01*
Y2563*
X1740Y2562*
X1740Y2562*
X1740Y2561*
X1740Y2561*
X1741Y2560*
X1741Y2560*
X1742Y2559*
X1737Y2555*
X1737Y2556*
X1736Y2557*
X1735Y2557*
X1734Y2557*
X1734Y2558*
X1733Y2558*
X1733Y2558*
X1733Y2558*
X1732Y2558*
X1740Y2564*
X1740Y2563*
G37*
G36*
X2863Y2558D02*
X2865Y2557D01*
X2866Y2556*
X2867Y2556*
X2868Y2556*
X2869Y2556*
X2871Y2555*
X2872Y2555*
X2873Y2549*
X2872Y2549*
X2872Y2549*
X2871Y2549*
X2870Y2549*
X2870Y2548*
X2869Y2548*
X2869Y2547*
X2868Y2546*
X2868Y2546*
X2868Y2545*
X2862Y2558*
X2863Y2558*
G37*
G36*
X1700Y2473D02*
X1700Y2473D01*
Y2473*
X1700Y2472*
X1700Y2472*
X1700Y2471*
X1700Y2471*
X1701Y2470*
X1701Y2470*
X1702Y2469*
X1697Y2465*
X1697Y2466*
X1696Y2467*
X1695Y2467*
X1694Y2467*
X1694Y2468*
X1693Y2468*
X1693Y2468*
X1693Y2468*
X1692Y2468*
X1700Y2474*
X1700Y2473*
G37*
G36*
X1632Y2420D02*
X1631Y2419D01*
X1631Y2419*
X1630Y2418*
X1630Y2418*
X1630Y2417*
X1630Y2417*
X1630Y2416*
Y2416*
X1630Y2416*
X1630Y2415*
X1622Y2421*
X1623Y2421*
X1623Y2421*
X1623Y2421*
X1624Y2421*
X1624Y2422*
X1625Y2422*
X1626Y2422*
X1626Y2423*
X1627Y2424*
X1632Y2420*
G37*
G36*
X3229Y2407D02*
X3230Y2406D01*
X3231Y2405*
X3232Y2405*
X3233Y2404*
X3234Y2404*
X3235Y2403*
X3236Y2403*
X3237Y2403*
X3238Y2403*
Y2396*
X3237Y2396*
X3236Y2396*
X3235Y2396*
X3234Y2395*
X3233Y2395*
X3232Y2394*
X3231Y2394*
X3230Y2393*
X3229Y2392*
X3228Y2391*
Y2408*
X3229Y2407*
G37*
G36*
X3211Y2391D02*
X3210Y2392D01*
X3209Y2393*
X3208Y2394*
X3207Y2394*
X3206Y2395*
X3205Y2395*
X3204Y2396*
X3203Y2396*
X3202Y2396*
X3201Y2396*
Y2403*
X3202Y2403*
X3203Y2403*
X3204Y2403*
X3205Y2404*
X3206Y2404*
X3207Y2405*
X3208Y2405*
X3209Y2406*
X3210Y2407*
X3211Y2408*
Y2391*
G37*
G36*
X743Y2397D02*
X743Y2396D01*
X743Y2395*
X744Y2394*
X744Y2393*
X745Y2392*
X745Y2391*
X746Y2390*
X747Y2389*
X748Y2388*
X731*
X732Y2389*
X733Y2390*
X734Y2391*
X734Y2392*
X735Y2393*
X735Y2394*
X736Y2395*
X736Y2396*
X736Y2397*
X736Y2398*
X743*
X743Y2397*
G37*
G36*
X2793Y2365D02*
X2794Y2365D01*
X2794Y2364*
X2795Y2363*
X2796Y2363*
X2797Y2362*
X2798Y2362*
X2799Y2362*
X2800Y2361*
X2801Y2361*
X2789Y2354*
X2789Y2355*
X2789Y2356*
X2789Y2357*
X2789Y2358*
X2789Y2359*
X2789Y2359*
X2789Y2360*
X2789Y2361*
X2788Y2362*
X2787Y2362*
X2792Y2366*
X2793Y2365*
G37*
G36*
X2303Y2308D02*
X2302Y2308D01*
X2298Y2306*
X2297Y2306*
X2295Y2305*
X2294Y2304*
X2293Y2303*
X2293Y2303*
X2287Y2306*
X2288Y2307*
X2289Y2308*
X2289Y2308*
X2289Y2309*
X2289Y2310*
X2289Y2311*
X2289Y2312*
X2289Y2313*
X2289Y2314*
X2289Y2315*
X2303Y2308*
G37*
G36*
X2090Y2305D02*
X2089Y2305D01*
X2089Y2304*
X2088Y2303*
X2088Y2302*
X2088Y2301*
X2087Y2300*
X2087Y2299*
X2087Y2298*
X2087Y2297*
X2077*
X2077Y2298*
X2077Y2299*
X2077Y2300*
X2077Y2301*
X2076Y2302*
X2076Y2303*
X2076Y2304*
X2075Y2305*
X2075Y2305*
X2074Y2306*
X2090*
X2090Y2305*
G37*
G36*
X2383Y2298D02*
X2381Y2298D01*
X2377Y2296*
X2376Y2296*
X2374Y2295*
X2373Y2294*
X2372Y2294*
X2372Y2293*
X2366Y2296*
X2367Y2297*
X2368Y2298*
X2368Y2298*
X2368Y2299*
X2369Y2300*
X2369Y2301*
X2369Y2302*
X2369Y2304*
X2369Y2305*
X2368Y2306*
X2383Y2298*
G37*
G36*
X3672Y2281D02*
X3671Y2282D01*
X3670Y2282*
X3669Y2283*
X3668Y2284*
X3667Y2284*
X3666Y2285*
X3664Y2285*
X3663Y2285*
X3662Y2285*
X3661Y2285*
X3661Y2292*
X3662Y2292*
X3663Y2293*
X3664Y2293*
X3665Y2293*
X3666Y2294*
X3667Y2294*
X3668Y2295*
X3669Y2296*
X3670Y2296*
X3671Y2297*
X3672Y2281*
G37*
G36*
X2753Y2276D02*
X2754Y2275D01*
X2755Y2274*
X2756Y2274*
X2758Y2273*
X2759Y2272*
X2762Y2271*
X2763Y2271*
X2749Y2264*
X2749Y2265*
X2749Y2266*
X2749Y2267*
X2749Y2268*
X2749Y2269*
X2749Y2270*
X2749Y2271*
X2749Y2271*
X2748Y2272*
X2747Y2273*
X2753Y2276*
X2753Y2276*
G37*
G36*
X1759Y2272D02*
X1759Y2272D01*
X1758Y2271*
X1758Y2270*
X1758Y2269*
X1757Y2268*
X1757Y2267*
X1757Y2265*
X1757Y2263*
X1747Y2261*
X1747Y2262*
X1747Y2263*
X1747Y2264*
X1747Y2265*
X1746Y2266*
X1746Y2267*
X1745Y2268*
X1745Y2268*
X1744Y2269*
X1743Y2269*
X1759Y2273*
X1759Y2272*
G37*
G36*
X1399Y2258D02*
X1398Y2258D01*
X1397Y2258*
X1396Y2257*
X1395Y2257*
X1393Y2257*
X1392Y2256*
X1392Y2256*
X1391Y2255*
X1390Y2255*
X1389Y2254*
X1384Y2259*
X1385Y2260*
X1385Y2261*
X1386Y2262*
X1386Y2262*
X1387Y2263*
X1387Y2265*
X1387Y2266*
X1388Y2267*
X1388Y2268*
X1388Y2269*
X1399Y2258*
G37*
G36*
X2244Y2249D02*
X2242Y2248D01*
X2236Y2245*
X2235Y2244*
X2234Y2243*
X2233Y2243*
X2227Y2245*
X2228Y2246*
X2229Y2247*
X2229Y2248*
X2229Y2248*
X2230Y2249*
X2230Y2250*
X2230Y2251*
X2229Y2253*
X2229Y2254*
X2229Y2255*
X2244Y2249*
G37*
G36*
X3573Y2227D02*
X3573Y2226D01*
X3573Y2225*
X3574Y2224*
X3574Y2223*
X3575Y2222*
X3575Y2221*
X3576Y2220*
X3577Y2219*
X3578Y2218*
X3561*
X3562Y2219*
X3563Y2220*
X3564Y2221*
X3564Y2222*
X3565Y2223*
X3565Y2224*
X3566Y2225*
X3566Y2226*
X3566Y2227*
X3566Y2228*
X3573*
X3573Y2227*
G37*
G36*
X2817Y2210D02*
X2815Y2208D01*
X2814Y2207*
X2814Y2206*
X2813Y2205*
X2813Y2204*
X2813Y2203*
X2813Y2202*
X2812Y2201*
X2807*
X2806Y2202*
X2806Y2203*
X2806Y2204*
X2806Y2205*
X2805Y2206*
X2805Y2207*
X2804Y2208*
X2803Y2209*
X2802Y2210*
X2801Y2211*
X2818*
X2817Y2210*
G37*
G36*
X2461Y2186D02*
X2460Y2187D01*
X2458Y2189*
X2457Y2190*
X2456Y2190*
X2455Y2191*
X2454Y2191*
X2453Y2191*
X2452Y2191*
X2451Y2192*
Y2197*
X2452Y2198*
X2453Y2198*
X2454Y2198*
X2455Y2198*
X2456Y2199*
X2457Y2199*
X2458Y2200*
X2459Y2201*
X2460Y2202*
X2461Y2203*
Y2186*
G37*
G36*
X3456Y2201D02*
X3457Y2201D01*
X3458Y2200*
X3459Y2200*
X3460Y2200*
X3461Y2200*
X3462Y2200*
X3463Y2200*
X3464Y2200*
X3465Y2200*
X3459Y2185*
X3458Y2186*
X3457Y2189*
X3456Y2190*
X3455Y2192*
X3454Y2193*
X3452Y2196*
X3451Y2197*
X3455Y2202*
X3456Y2201*
G37*
G36*
X2477Y2185D02*
X2475Y2183D01*
X2474Y2182*
X2474Y2181*
X2473Y2180*
X2473Y2179*
X2473Y2178*
X2473Y2177*
X2472Y2176*
X2467*
X2466Y2177*
X2466Y2178*
X2466Y2179*
X2466Y2180*
X2465Y2181*
X2465Y2182*
X2464Y2183*
X2463Y2184*
X2462Y2185*
X2461Y2186*
X2478*
X2477Y2185*
G37*
G36*
X1711Y2143D02*
X1710Y2143D01*
X1710Y2142*
X1709Y2142*
X1708Y2142*
X1707Y2141*
X1706Y2141*
X1705Y2140*
X1704Y2139*
X1703Y2138*
X1694Y2144*
X1695Y2144*
X1696Y2145*
X1696Y2146*
X1697Y2147*
X1697Y2148*
X1698Y2149*
X1698Y2150*
X1698Y2151*
Y2152*
X1698Y2152*
X1711Y2143*
G37*
G36*
X2404Y2108D02*
X2402Y2108D01*
X2401Y2107*
X2401Y2107*
X2400Y2106*
X2399Y2105*
X2399Y2105*
X2398Y2104*
X2398Y2103*
X2398Y2102*
X2398Y2101*
X2392Y2104*
X2392Y2104*
X2392Y2105*
X2391Y2106*
X2391Y2108*
X2390Y2111*
X2389Y2115*
X2404Y2108*
G37*
G36*
X3781Y2071D02*
X3780Y2072D01*
X3779Y2073*
X3778Y2074*
X3777Y2074*
X3776Y2075*
X3775Y2075*
X3774Y2076*
X3773Y2076*
X3772Y2076*
X3771Y2076*
Y2083*
X3772Y2083*
X3773Y2083*
X3774Y2083*
X3775Y2084*
X3776Y2084*
X3777Y2085*
X3778Y2085*
X3779Y2086*
X3780Y2087*
X3781Y2088*
Y2071*
G37*
G36*
X3043Y2067D02*
X3043Y2066D01*
X3043Y2065*
X3044Y2064*
X3044Y2063*
X3045Y2062*
X3045Y2061*
X3046Y2060*
X3047Y2059*
X3048Y2058*
X3031*
X3032Y2059*
X3033Y2060*
X3034Y2061*
X3034Y2062*
X3035Y2063*
X3035Y2064*
X3036Y2065*
X3036Y2066*
X3036Y2067*
X3036Y2068*
X3043*
X3043Y2067*
G37*
G36*
X1761Y2051D02*
X1763Y2047D01*
X1763Y2046*
X1764Y2044*
X1765Y2043*
X1765Y2042*
X1766Y2041*
X1763Y2036*
X1762Y2037*
X1761Y2037*
X1760Y2038*
X1759Y2038*
X1758Y2038*
X1757Y2039*
X1756Y2039*
X1755Y2039*
X1754Y2038*
X1752Y2038*
X1761Y2052*
X1761Y2051*
G37*
G36*
X2626Y2041D02*
X2626Y2040D01*
X2626Y2039*
X2626Y2038*
X2626Y2037*
X2627Y2037*
X2627Y2036*
X2628Y2035*
X2629Y2034*
X2629Y2033*
X2621Y2028*
X2620Y2029*
X2618Y2030*
X2617Y2031*
X2616Y2031*
X2615Y2032*
X2615Y2032*
X2614Y2032*
X2613Y2033*
X2612Y2033*
X2626Y2042*
X2626Y2041*
G37*
G36*
X1462Y2017D02*
X1460Y2015D01*
X1459Y2014*
X1459Y2013*
X1458Y2012*
X1458Y2011*
X1458Y2010*
X1458Y2009*
X1458Y2008*
X1452*
X1452Y2009*
X1451Y2010*
X1451Y2011*
X1451Y2012*
X1450Y2013*
X1450Y2014*
X1449Y2015*
X1448Y2016*
X1447Y2017*
X1446Y2018*
X1463*
X1462Y2017*
G37*
G36*
X3596Y2006D02*
X3591Y2002D01*
X3585Y2010*
X3585Y2010*
X3585Y2010*
X3586Y2010*
X3586Y2011*
X3589Y2013*
X3596Y2006*
G37*
G36*
X3781Y1991D02*
X3780Y1992D01*
X3779Y1993*
X3778Y1994*
X3777Y1994*
X3776Y1995*
X3775Y1995*
X3774Y1996*
X3773Y1996*
X3772Y1996*
X3771Y1996*
Y2003*
X3772Y2003*
X3773Y2003*
X3774Y2003*
X3775Y2004*
X3776Y2004*
X3777Y2005*
X3778Y2005*
X3779Y2006*
X3780Y2007*
X3781Y2008*
Y1991*
G37*
G36*
X2411Y1997D02*
X2412Y1996D01*
X2412Y1995*
X2412Y1994*
X2413Y1993*
X2413Y1992*
X2414Y1991*
X2415Y1991*
X2416Y1990*
X2417Y1989*
X2400Y1987*
X2401Y1988*
X2403Y1991*
X2404Y1992*
X2404Y1993*
X2405Y1994*
X2405Y1995*
X2405Y1996*
X2405Y1997*
X2405Y1998*
X2411Y1998*
X2411Y1997*
G37*
G36*
X3587Y1990D02*
X3587Y1990D01*
X3586Y1989*
X3586Y1988*
X3585Y1987*
X3585Y1986*
X3585Y1985*
X3585Y1984*
X3585Y1983*
X3585Y1982*
X3575*
X3574Y1983*
X3574Y1984*
X3574Y1985*
X3574Y1986*
X3574Y1987*
X3573Y1988*
X3573Y1989*
X3572Y1990*
X3572Y1990*
X3571Y1991*
X3588*
X3587Y1990*
G37*
G36*
X2329Y1994D02*
X2330Y1993D01*
X2331Y1993*
X2332Y1992*
X2333Y1992*
X2334Y1992*
X2335Y1992*
X2337Y1991*
X2338Y1991*
X2339Y1991*
X2328Y1980*
X2328Y1981*
X2327Y1984*
X2327Y1985*
X2327Y1986*
X2327Y1987*
X2326Y1988*
X2326Y1989*
X2325Y1990*
X2324Y1991*
X2328Y1995*
X2329Y1994*
G37*
G36*
X2001Y1988D02*
X2001Y1987D01*
X2002Y1986*
X2002Y1985*
X2002Y1983*
X2003Y1982*
X2003Y1982*
X2004Y1981*
X2004Y1980*
X2005Y1979*
X2000Y1974*
X1999Y1975*
X1998Y1975*
X1997Y1976*
X1997Y1976*
X1996Y1977*
X1994Y1977*
X1993Y1977*
X1992Y1978*
X1991Y1978*
X1990Y1978*
X2001Y1989*
X2001Y1988*
G37*
G36*
X2269Y1968D02*
X2268Y1968D01*
X2265Y1967*
X2264Y1967*
X2263Y1967*
X2262Y1967*
X2261Y1966*
X2260Y1966*
X2259Y1965*
X2258Y1964*
X2254Y1968*
X2255Y1969*
X2256Y1970*
X2256Y1971*
X2257Y1972*
X2257Y1973*
X2257Y1974*
X2257Y1975*
X2258Y1977*
X2258Y1978*
X2258Y1979*
X2269Y1968*
G37*
G36*
X2567Y1959D02*
X2565Y1959D01*
X2559Y1961*
X2558Y1961*
X2556Y1962*
X2555Y1962*
X2552Y1968*
X2553Y1968*
X2554Y1968*
X2555Y1968*
X2556Y1969*
X2557Y1969*
X2558Y1970*
X2558Y1971*
X2559Y1971*
X2559Y1972*
X2560Y1974*
X2567Y1959*
G37*
G36*
X2119Y1957D02*
X2121Y1955D01*
X2122Y1954*
X2123Y1954*
X2124Y1953*
X2125Y1953*
X2126Y1953*
X2127Y1953*
X2128Y1952*
Y1947*
X2127Y1946*
X2126Y1946*
X2125Y1946*
X2124Y1946*
X2123Y1945*
X2122Y1945*
X2121Y1944*
X2120Y1943*
X2119Y1942*
X2118Y1941*
Y1958*
X2119Y1957*
G37*
G36*
X1941Y1928D02*
X1942Y1925D01*
X1942Y1924*
X1942Y1923*
X1942Y1922*
X1943Y1921*
X1943Y1920*
X1944Y1919*
X1945Y1918*
X1941Y1914*
X1940Y1915*
X1939Y1916*
X1938Y1916*
X1937Y1917*
X1936Y1917*
X1935Y1917*
X1934Y1917*
X1932Y1918*
X1931Y1918*
X1930Y1918*
X1941Y1929*
X1941Y1928*
G37*
G36*
X2423Y1923D02*
X2422Y1922D01*
X2422Y1921*
X2421Y1920*
X2421Y1919*
X2421Y1918*
X2421Y1917*
X2420Y1916*
X2421Y1915*
X2421Y1914*
X2421Y1912*
X2407Y1921*
X2408Y1921*
X2412Y1923*
X2414Y1923*
X2416Y1924*
X2416Y1925*
X2417Y1925*
X2418Y1926*
X2423Y1923*
G37*
G36*
X3271Y1901D02*
X3270Y1902D01*
X3268Y1904*
X3267Y1905*
X3266Y1905*
X3265Y1906*
X3264Y1906*
X3263Y1906*
X3262Y1906*
X3261Y1907*
Y1912*
X3262Y1913*
X3263Y1913*
X3264Y1913*
X3265Y1913*
X3266Y1914*
X3267Y1914*
X3268Y1915*
X3269Y1916*
X3270Y1917*
X3271Y1918*
Y1901*
G37*
G36*
X2261D02*
X2260Y1902D01*
X2258Y1904*
X2257Y1905*
X2256Y1905*
X2255Y1906*
X2254Y1906*
X2253Y1906*
X2252Y1906*
X2251Y1907*
Y1912*
X2252Y1913*
X2253Y1913*
X2254Y1913*
X2255Y1913*
X2256Y1914*
X2257Y1914*
X2258Y1915*
X2259Y1916*
X2260Y1917*
X2261Y1918*
Y1901*
G37*
G36*
X1349Y1912D02*
X1350Y1911D01*
X1351Y1910*
X1352Y1910*
X1353Y1909*
X1354Y1909*
X1355Y1908*
X1356Y1908*
X1357Y1908*
X1358Y1908*
Y1901*
X1357Y1901*
X1356Y1901*
X1355Y1901*
X1354Y1900*
X1353Y1900*
X1352Y1899*
X1351Y1899*
X1350Y1898*
X1349Y1897*
X1348Y1896*
Y1913*
X1349Y1912*
G37*
G36*
X3481Y1908D02*
X3482Y1905D01*
X3482Y1904*
X3482Y1903*
X3482Y1902*
X3483Y1901*
X3483Y1900*
X3484Y1899*
X3485Y1898*
X3481Y1894*
X3480Y1895*
X3479Y1896*
X3478Y1896*
X3477Y1897*
X3476Y1897*
X3475Y1897*
X3475Y1897*
X3474Y1897*
X3474Y1896*
X3473Y1895*
X3473Y1894*
X3473Y1893*
X3473Y1892*
X3472Y1891*
X3467*
X3466Y1892*
X3466Y1893*
X3466Y1894*
X3466Y1895*
X3465Y1896*
X3465Y1897*
X3464Y1898*
X3463Y1899*
X3462Y1900*
X3461Y1901*
X3473*
X3481Y1909*
X3481Y1908*
G37*
G36*
X3651Y1871D02*
X3650Y1872D01*
X3649Y1873*
X3648Y1874*
X3647Y1874*
X3646Y1875*
X3645Y1875*
X3644Y1876*
X3643Y1876*
X3642Y1876*
X3641Y1876*
Y1883*
X3642Y1883*
X3643Y1883*
X3644Y1883*
X3645Y1884*
X3646Y1884*
X3647Y1885*
X3648Y1885*
X3649Y1886*
X3650Y1887*
X3651Y1888*
Y1871*
G37*
G36*
X2597Y1842D02*
X2596Y1843D01*
X2595Y1844*
X2594Y1845*
X2593Y1846*
X2592Y1846*
X2591Y1847*
X2590Y1847*
X2589Y1847*
X2588Y1847*
X2587Y1848*
X2588Y1853*
X2589Y1853*
X2590Y1854*
X2591Y1854*
X2592Y1854*
X2593Y1855*
X2594Y1855*
X2595Y1856*
X2596Y1857*
X2598Y1858*
X2597Y1842*
G37*
G36*
X2425Y1851D02*
X2424Y1850D01*
X2423Y1849*
X2423Y1848*
X2422Y1847*
X2422Y1846*
X2422Y1845*
X2422Y1844*
X2421Y1842*
X2421Y1841*
X2421Y1840*
X2410Y1851*
X2411Y1851*
X2414Y1852*
X2415Y1852*
X2416Y1852*
X2417Y1852*
X2418Y1853*
X2419Y1853*
X2420Y1854*
X2421Y1855*
X2425Y1851*
G37*
G36*
X2726Y1836D02*
X2725Y1837D01*
X2725Y1837*
X2724Y1838*
X2723Y1838*
X2722Y1839*
X2721Y1839*
X2720Y1839*
X2719Y1839*
X2718Y1839*
X2717Y1840*
Y1850*
X2718Y1850*
X2719Y1850*
X2720Y1850*
X2721Y1850*
X2722Y1850*
X2723Y1851*
X2724Y1851*
X2725Y1852*
X2725Y1852*
X2726Y1853*
Y1836*
G37*
G36*
X2268Y1828D02*
X2267Y1828D01*
X2266Y1828*
X2265Y1828*
X2264Y1828*
X2263Y1827*
X2262Y1827*
X2261Y1827*
X2260Y1826*
X2260Y1825*
X2259Y1825*
X2255Y1829*
X2255Y1830*
X2256Y1830*
X2257Y1831*
X2257Y1832*
X2257Y1833*
X2258Y1834*
X2258Y1835*
X2258Y1836*
Y1837*
X2258Y1838*
X2268Y1828*
G37*
G36*
X2339Y1828D02*
X2338Y1828D01*
X2335Y1827*
X2334Y1827*
X2333Y1827*
X2332Y1827*
X2331Y1826*
X2330Y1826*
X2329Y1825*
X2328Y1824*
X2324Y1828*
X2325Y1829*
X2326Y1830*
X2326Y1831*
X2327Y1832*
X2327Y1833*
X2327Y1834*
X2327Y1835*
X2328Y1837*
X2328Y1838*
X2328Y1839*
X2339Y1828*
G37*
G36*
X2115Y1821D02*
X2114Y1820D01*
X2113Y1819*
X2113Y1818*
X2112Y1817*
X2112Y1816*
X2112Y1815*
X2112Y1814*
X2111Y1812*
X2111Y1811*
X2111Y1810*
X2100Y1821*
X2101Y1821*
X2104Y1822*
X2105Y1822*
X2106Y1822*
X2107Y1822*
X2108Y1823*
X2109Y1823*
X2110Y1824*
X2111Y1825*
X2115Y1821*
G37*
G36*
X2029Y1757D02*
X2029Y1757D01*
X2030Y1756*
X2031Y1756*
X2032Y1755*
X2033Y1755*
X2034Y1755*
X2035Y1755*
X2036Y1755*
X2037Y1755*
Y1745*
X2036Y1744*
X2035Y1744*
X2034Y1744*
X2033Y1744*
X2032Y1744*
X2031Y1743*
X2030Y1743*
X2029Y1742*
X2029Y1742*
X2028Y1741*
Y1758*
X2029Y1757*
G37*
G36*
X2301Y1717D02*
X2301Y1716D01*
X2302Y1715*
X2302Y1714*
X2303Y1713*
X2303Y1712*
X2304Y1711*
X2305Y1710*
X2306Y1709*
X2307Y1708*
X2290Y1706*
X2291Y1708*
X2293Y1710*
X2293Y1711*
X2294Y1712*
X2294Y1713*
X2295Y1714*
X2295Y1715*
X2295Y1716*
X2295Y1717*
X2301Y1718*
X2301Y1717*
G37*
G36*
X1949Y1677D02*
X1950Y1676D01*
X1951Y1675*
X1952Y1675*
X1953Y1674*
X1954Y1674*
X1955Y1673*
X1956Y1673*
X1957Y1673*
X1958Y1673*
Y1666*
X1957Y1666*
X1956Y1666*
X1955Y1666*
X1954Y1665*
X1953Y1665*
X1952Y1664*
X1951Y1664*
X1950Y1663*
X1949Y1662*
X1948Y1661*
Y1678*
X1949Y1677*
G37*
G36*
X3099Y1637D02*
X3098Y1636D01*
X3097Y1635*
X3097Y1633*
X3096Y1632*
X3095Y1631*
X3095Y1629*
X3095Y1628*
X3095Y1627*
X3095Y1625*
X3085*
X3084Y1627*
X3084Y1628*
X3084Y1629*
X3084Y1631*
X3083Y1632*
X3082Y1633*
X3082Y1635*
X3081Y1636*
X3080Y1637*
X3078Y1638*
X3101*
X3099Y1637*
G37*
G36*
X2395Y1596D02*
X2395Y1595D01*
X2395Y1594*
X2395Y1593*
X2395Y1592*
X2396Y1591*
X2396Y1590*
X2397Y1589*
X2397Y1589*
X2398Y1588*
X2381*
X2382Y1589*
X2382Y1589*
X2383Y1590*
X2383Y1591*
X2384Y1592*
X2384Y1593*
X2384Y1594*
X2384Y1595*
X2384Y1596*
X2385Y1597*
X2395*
X2395Y1596*
G37*
G36*
X2313Y1597D02*
X2313Y1596D01*
X2313Y1595*
X2314Y1594*
X2314Y1593*
X2315Y1592*
X2315Y1591*
X2316Y1590*
X2317Y1589*
X2318Y1588*
X2301*
X2302Y1589*
X2303Y1590*
X2304Y1591*
X2304Y1592*
X2305Y1593*
X2305Y1594*
X2306Y1595*
X2306Y1596*
X2306Y1597*
X2306Y1598*
X2313*
X2313Y1597*
G37*
G36*
X3025Y1578D02*
X3025Y1576D01*
X3026Y1575*
X3026Y1573*
X3026Y1572*
X3027Y1570*
X3028Y1569*
X3028Y1568*
X3029Y1567*
X3030Y1566*
X3023Y1559*
X3022Y1560*
X3021Y1561*
X3020Y1561*
X3019Y1562*
X3017Y1563*
X3016Y1563*
X3014Y1563*
X3013Y1564*
X3011Y1564*
X3010Y1564*
X3025Y1579*
X3025Y1578*
G37*
G36*
X3455Y1532D02*
X3455Y1534D01*
X3454Y1535*
X3453Y1536*
X3452Y1537*
X3451Y1538*
X3450Y1538*
X3449Y1539*
X3447Y1539*
X3446Y1539*
X3444Y1539*
X3445Y1549*
X3447Y1549*
X3450Y1550*
X3452Y1550*
X3456Y1551*
X3457Y1551*
X3461Y1553*
X3462Y1553*
X3455Y1532*
G37*
G36*
X2629Y1539D02*
X2630Y1535D01*
X2631Y1534*
X2632Y1532*
X2632Y1531*
X2633Y1530*
X2633Y1530*
X2631Y1524*
X2630Y1525*
X2629Y1525*
X2628Y1526*
X2627Y1526*
X2626Y1526*
X2625Y1526*
X2624Y1526*
X2623Y1526*
X2622Y1526*
X2621Y1526*
X2628Y1540*
X2629Y1539*
G37*
G36*
X2401Y1512D02*
X2400Y1513D01*
X2399Y1514*
X2398Y1515*
X2397Y1515*
X2396Y1516*
X2395Y1516*
X2394Y1517*
X2393Y1517*
X2392Y1517*
X2391Y1517*
X2391Y1523*
X2392Y1523*
X2393Y1523*
X2394Y1524*
X2395Y1524*
X2396Y1524*
X2397Y1525*
X2398Y1526*
X2399Y1526*
X2400Y1527*
X2402Y1528*
X2401Y1512*
G37*
G36*
X1907Y1520D02*
X1906Y1519D01*
X1905Y1518*
X1905Y1517*
X1904Y1516*
X1904Y1515*
X1903Y1514*
X1903Y1513*
X1903Y1512*
X1903Y1511*
X1896*
X1896Y1512*
X1896Y1513*
X1896Y1514*
X1895Y1515*
X1895Y1516*
X1894Y1517*
X1894Y1518*
X1893Y1519*
X1892Y1520*
X1891Y1521*
X1908*
X1907Y1520*
G37*
G36*
X2467Y1460D02*
X2465Y1458D01*
X2464Y1457*
X2464Y1456*
X2463Y1455*
X2463Y1454*
X2463Y1453*
X2463Y1452*
X2462Y1451*
X2457*
X2456Y1452*
X2456Y1453*
X2456Y1454*
X2456Y1455*
X2455Y1456*
X2455Y1457*
X2454Y1458*
X2453Y1459*
X2452Y1460*
X2451Y1461*
X2468*
X2467Y1460*
G37*
G36*
X3239Y1435D02*
X3238Y1434D01*
X3236Y1434*
X3235Y1434*
X3234Y1434*
X3232Y1433*
X3231Y1433*
X3230Y1432*
X3229Y1431*
X3228Y1431*
X3227Y1430*
X3220Y1437*
X3221Y1438*
X3221Y1439*
X3222Y1440*
X3223Y1441*
X3223Y1442*
X3224Y1444*
X3224Y1445*
X3224Y1446*
X3224Y1448*
X3225Y1449*
X3239Y1435*
G37*
G36*
X2349Y1424D02*
X2350Y1423D01*
X2351Y1423*
X2352Y1422*
X2353Y1422*
X2354Y1422*
X2355Y1422*
X2357Y1421*
X2358Y1421*
X2359Y1421*
X2348Y1410*
X2348Y1411*
X2347Y1414*
X2347Y1415*
X2347Y1416*
X2347Y1417*
X2346Y1418*
X2346Y1419*
X2345Y1420*
X2344Y1421*
X2348Y1425*
X2349Y1424*
G37*
G36*
X2672Y1367D02*
X2672Y1366D01*
X2673Y1365*
X2673Y1364*
X2673Y1363*
X2674Y1362*
X2675Y1361*
X2676Y1360*
X2676Y1359*
X2677Y1358*
X2661Y1358*
X2662Y1359*
X2664Y1361*
X2664Y1362*
X2665Y1363*
X2665Y1364*
X2666Y1365*
X2666Y1366*
X2666Y1367*
X2666Y1368*
X2672Y1368*
X2672Y1367*
G37*
G36*
X2974Y1197D02*
X2976Y1195D01*
X2977Y1194*
X2978Y1194*
X2979Y1193*
X2980Y1193*
X2981Y1193*
X2982Y1193*
X2983Y1192*
Y1187*
X2982Y1186*
X2981Y1186*
X2980Y1186*
X2979Y1186*
X2978Y1185*
X2977Y1185*
X2976Y1184*
X2975Y1183*
X2974Y1182*
X2973Y1181*
Y1198*
X2974Y1197*
G37*
G36*
X2681Y1194D02*
X2682Y1192D01*
X2682Y1191*
X2682Y1189*
X2682Y1188*
X2683Y1187*
X2683Y1186*
X2684Y1186*
X2685Y1185*
X2681Y1181*
X2680Y1181*
X2679Y1182*
X2678Y1183*
X2677Y1183*
X2676Y1183*
X2675Y1184*
X2674Y1184*
X2672Y1184*
X2671Y1184*
X2670Y1184*
X2681Y1196*
X2681Y1194*
G37*
G36*
X3385Y1176D02*
X3385Y1175D01*
X3385Y1174*
X3385Y1173*
X3385Y1172*
X3386Y1171*
X3386Y1170*
X3387Y1169*
X3387Y1169*
X3388Y1168*
X3371*
X3372Y1169*
X3372Y1169*
X3373Y1170*
X3373Y1171*
X3374Y1172*
X3374Y1173*
X3374Y1174*
X3374Y1175*
X3374Y1176*
X3375Y1177*
X3385*
X3385Y1176*
G37*
G36*
X3294Y1177D02*
X3294Y1175D01*
X3295Y1166*
X3295Y1165*
X3295Y1164*
X3295Y1164*
X3280Y1171*
X3281Y1171*
X3282Y1171*
X3282Y1172*
X3283Y1173*
X3283Y1173*
X3284Y1174*
X3284Y1175*
X3284Y1176*
X3284Y1177*
X3284Y1178*
X3294Y1177*
G37*
G36*
X2130Y1140D02*
Y1040D01*
X2125Y1035*
X2120Y1037*
Y1043*
X2080*
X2039*
Y1030*
X1960*
Y1051*
X1920*
X1879*
Y1030*
X1800*
X1790Y1039*
X1793Y1043*
X1796Y1041*
X1801Y1040*
X1814*
Y1057*
X1789*
Y1052*
X1790Y1047*
X1792Y1044*
X1788Y1041*
X1780Y1050*
Y1140*
X1800Y1160*
X2070*
X2071Y1155*
X2067Y1153*
X2061Y1147*
X2058Y1140*
X2101*
X2098Y1147*
X2092Y1153*
X2088Y1155*
X2089Y1160*
X2110*
X2130Y1140*
G37*
G36*
X1740Y1084D02*
X1735Y1082D01*
X1733Y1083*
X1728Y1084*
X1715*
Y1062*
X1710*
Y1057*
X1680*
Y1052*
X1678Y1050*
X1640*
Y1071*
X1600*
X1559*
Y1050*
X1470*
Y1220*
X1740*
Y1084*
G37*
G36*
X2861Y1028D02*
X2861Y1027D01*
X2862Y1026*
X2862Y1025*
X2862Y1023*
X2863Y1022*
X2863Y1022*
X2864Y1021*
X2864Y1020*
X2865Y1019*
X2860Y1014*
X2859Y1015*
X2858Y1015*
X2857Y1016*
X2857Y1016*
X2856Y1017*
X2854Y1017*
X2853Y1017*
X2852Y1018*
X2851Y1018*
X2850Y1018*
X2861Y1029*
X2861Y1028*
G37*
G36*
X1680Y1034D02*
Y1030D01*
X1710*
Y1020*
X1680*
Y1015*
X1680Y1014*
X1660*
Y860*
X1620Y820*
X1470*
X1450Y840*
Y1010*
X1475Y1035*
X1559*
Y1008*
X1600*
X1640*
Y1035*
X1680*
X1680Y1034*
G37*
G36*
X3035Y1012D02*
X3035Y1011D01*
X3035Y1010*
X3035Y1008*
X3036Y1007*
X3037Y1006*
X3037Y1004*
X3038Y1003*
X3039Y1002*
X3041Y1001*
X3018*
X3020Y1002*
X3021Y1003*
X3022Y1004*
X3022Y1006*
X3023Y1007*
X3024Y1008*
X3024Y1010*
X3024Y1011*
X3024Y1012*
X3025Y1014*
X3035*
X3035Y1012*
G37*
G36*
X2851Y928D02*
X2851Y927D01*
X2852Y926*
X2852Y925*
X2852Y923*
X2853Y922*
X2853Y922*
X2854Y921*
X2854Y920*
X2855Y919*
X2850Y914*
X2849Y915*
X2848Y915*
X2847Y916*
X2847Y916*
X2846Y917*
X2844Y917*
X2843Y917*
X2842Y918*
X2841Y918*
X2840Y918*
X2851Y929*
X2851Y928*
G37*
G36*
X1990Y1000D02*
Y880D01*
X1970Y860*
X1890*
X1880Y870*
Y944*
X1915*
Y983*
X1920*
Y988*
X1960*
Y1010*
X1980*
X1990Y1000*
G37*
G36*
X2161Y801D02*
X2160Y802D01*
X2160Y802*
X2159Y803*
X2158Y803*
X2157Y804*
X2156Y804*
X2155Y804*
X2154Y804*
X2153Y804*
X2152Y805*
Y815*
X2153Y815*
X2154Y815*
X2155Y815*
X2156Y815*
X2157Y815*
X2158Y816*
X2159Y816*
X2160Y817*
X2160Y817*
X2161Y818*
Y801*
G37*
G36*
X2861Y751D02*
X2862Y750D01*
X2863Y750*
X2864Y749*
X2865Y749*
X2866Y748*
X2868Y748*
X2869Y748*
X2871Y748*
X2872Y748*
X2874Y734*
X2872Y734*
X2871Y734*
X2869Y734*
X2868Y733*
X2867Y733*
X2865Y732*
X2864Y732*
X2863Y731*
X2862Y730*
X2862Y730*
X2860Y751*
X2861Y751*
G37*
G36*
X1410Y681D02*
X1405Y680D01*
X1402Y684*
X1394Y692*
X1385Y697*
X1375Y700*
X1375*
Y660*
Y619*
X1375*
X1385Y622*
X1394Y627*
X1402Y635*
X1405Y639*
X1410Y638*
Y580*
X1010*
Y601*
X970*
X929*
Y580*
X440*
Y725*
X945*
X1280*
X1410*
Y681*
G37*
G36*
X3712Y636D02*
X3711Y636D01*
X3710Y636*
X3709Y636*
X3708Y636*
X3707Y636*
X3706Y635*
X3705Y635*
X3704Y634*
X3703Y633*
X3701Y632*
X3698Y647*
X3699Y649*
X3705Y655*
X3705Y656*
X3705Y656*
X3712Y636*
G37*
G36*
X3822Y540D02*
X3821Y541D01*
X3818Y543*
X3816Y543*
X3813Y544*
X3812Y544*
X3811Y544*
X3809Y544*
X3808Y545*
X3804Y555*
X3806Y555*
X3807Y555*
X3809Y555*
X3810Y556*
X3811Y556*
X3812Y557*
X3813Y558*
X3814Y559*
X3815Y560*
X3815Y561*
X3822Y540*
G37*
G36*
X3712Y559D02*
X3713Y558D01*
X3714Y557*
X3716Y557*
X3717Y556*
X3718Y555*
X3720Y555*
X3721Y555*
X3722Y555*
X3724Y555*
Y545*
X3722Y544*
X3721Y544*
X3720Y544*
X3718Y544*
X3717Y543*
X3716Y542*
X3714Y542*
X3713Y541*
X3712Y540*
X3711Y538*
Y561*
X3712Y559*
G37*
G36*
X1140Y410D02*
X840D01*
Y560*
X929*
Y538*
X970*
X1010*
Y560*
X1140*
Y410*
G37*
G36*
X2926Y531D02*
X2972D01*
Y521*
X2926*
Y500*
Y487*
X2972*
Y477*
X2926*
Y457*
Y444*
X2972*
Y434*
X2926*
Y430*
X2867*
X2865Y435*
X2868Y437*
X2871Y445*
X2828*
X2831Y438*
X2831Y437*
X2829Y432*
X2827Y432*
X2820Y440*
Y530*
X2826Y536*
X2828Y536*
X2829Y535*
X2830Y531*
X2828Y525*
X2871*
X2868Y532*
X2866Y534*
X2868Y539*
X2926*
Y531*
G37*
G36*
X1589Y417D02*
X1588Y416D01*
X1587Y415*
X1587Y413*
X1586Y412*
X1585Y411*
X1585Y409*
X1585Y408*
X1585Y407*
X1585Y405*
X1575*
X1574Y407*
X1574Y408*
X1574Y409*
X1574Y411*
X1573Y412*
X1572Y413*
X1572Y415*
X1571Y416*
X1570Y417*
X1568Y418*
X1591*
X1589Y417*
G37*
G36*
X3449Y370D02*
X3450Y369D01*
X3451Y368*
X3452Y367*
X3453Y367*
X3455Y366*
X3456Y366*
X3457Y365*
X3458Y365*
X3459Y365*
X3444Y350*
X3444Y351*
X3444Y352*
X3443Y353*
X3443Y354*
X3442Y356*
X3442Y357*
X3441Y358*
X3440Y359*
X3439Y360*
X3438Y361*
X3448Y371*
X3449Y370*
G37*
G36*
X1887Y393D02*
X1917D01*
Y334*
X1799*
Y393*
X1828*
Y453*
X1887*
Y393*
G37*
G36*
X3712Y340D02*
X3713Y339D01*
X3714Y338*
X3715Y338*
X3716Y337*
X3717Y337*
X3719Y337*
X3720Y336*
X3722Y336*
X3723Y336*
Y323*
X3722Y323*
X3720Y323*
X3719Y322*
X3717Y322*
X3716Y322*
X3715Y321*
X3714Y321*
X3713Y320*
X3712Y319*
X3711Y318*
Y341*
X3712Y340*
G37*
G36*
X1388Y313D02*
X1388Y312D01*
X1389Y312*
X1390Y312*
X1391Y312*
X1393Y312*
X1396Y312*
Y297*
X1394Y297*
X1389Y297*
X1388Y297*
X1388Y296*
X1388Y296*
Y313*
X1388Y313*
G37*
G36*
X1585Y226D02*
X1585Y225D01*
X1585Y224*
X1585Y223*
X1585Y222*
X1586Y221*
X1586Y220*
X1587Y219*
X1587Y219*
X1588Y218*
X1571*
X1572Y219*
X1572Y219*
X1573Y220*
X1573Y221*
X1574Y222*
X1574Y223*
X1574Y224*
X1574Y225*
X1574Y226*
X1575Y227*
X1585*
X1585Y226*
G37*
G36*
X730Y400D02*
Y280D01*
X660*
Y210*
X550*
Y357*
X605*
Y392*
X537*
Y370*
X520*
Y490*
X730*
Y400*
G37*
G36*
X1917Y216D02*
X1887D01*
Y157*
X1828*
Y216*
X1799*
Y275*
X1917*
Y216*
G37*
G36*
X1751Y721D02*
X1750Y720D01*
X2340*
Y375*
X2326*
Y340*
Y304*
X2341*
Y260*
X2326*
Y220*
Y179*
X2341*
Y143*
X1893*
X1892Y144*
X1892Y148*
X1894Y150*
X1897Y153*
X1897Y157*
Y206*
X1917*
X1921Y207*
X1924Y209*
X1926Y212*
X1927Y216*
Y275*
X1926Y279*
X1924Y283*
X1921Y285*
X1917Y286*
X1799*
X1795Y285*
X1791Y283*
X1789Y279*
X1788Y275*
Y260*
X1778*
X1751Y287*
X1745Y291*
X1737Y292*
X1712*
Y294*
X1684*
Y272*
Y250*
X1712*
Y252*
X1728*
X1755Y225*
X1762Y221*
X1770Y219*
X1788*
Y216*
X1789Y212*
X1791Y209*
X1795Y207*
X1799Y206*
X1818*
Y157*
X1819Y153*
X1821Y150*
X1823Y148*
X1823Y144*
X1823Y143*
X1660*
Y250*
X1674*
Y272*
Y294*
X1660*
Y310*
X2150*
Y650*
X1690*
Y962*
X1693Y965*
X1705*
Y987*
X1710*
Y992*
X1740*
Y997*
X1743Y1000*
X1751*
Y721*
G37*
G36*
X2670Y80D02*
X2450D01*
Y96*
X2476*
Y130*
Y163*
X2450*
Y300*
X2410*
X2409Y304*
Y335*
X2378*
Y340*
X2373*
Y375*
X2360*
Y430*
X2670*
Y80*
G37*
%LNconcentrator_pcb-2*%
%LPC*%
G36*
X1051Y3846D02*
Y3830D01*
X1068*
X1065Y3837*
X1058Y3843*
X1051Y3846*
G37*
G36*
X1041D02*
X1034Y3843D01*
X1028Y3837*
X1025Y3830*
X1041*
Y3846*
G37*
G36*
X1145Y3841D02*
Y3825D01*
X1161*
X1158Y3832*
X1152Y3838*
X1145Y3841*
G37*
G36*
X1135D02*
X1127Y3838D01*
X1121Y3832*
X1118Y3825*
X1135*
Y3841*
G37*
G36*
X965D02*
Y3825D01*
X981*
X978Y3832*
X972Y3838*
X965Y3841*
G37*
G36*
X955D02*
X947Y3838D01*
X941Y3832*
X938Y3825*
X955*
Y3841*
G37*
G36*
X1068Y3820D02*
X1051D01*
Y3803*
X1058Y3806*
X1065Y3812*
X1068Y3820*
G37*
G36*
X1041D02*
X1025D01*
X1028Y3812*
X1034Y3806*
X1041Y3803*
Y3820*
G37*
G36*
X1161Y3815D02*
X1145D01*
Y3798*
X1152Y3801*
X1158Y3807*
X1161Y3815*
G37*
G36*
X1135D02*
X1118D01*
X1121Y3807*
X1127Y3801*
X1135Y3798*
Y3815*
G37*
G36*
X981D02*
X965D01*
Y3798*
X972Y3801*
X978Y3807*
X981Y3815*
G37*
G36*
X955D02*
X938D01*
X941Y3807*
X947Y3801*
X955Y3798*
Y3815*
G37*
G36*
X904Y3822D02*
Y3755D01*
X929*
Y3795*
X928Y3802*
X926Y3809*
X921Y3814*
X916Y3819*
X909Y3821*
X904Y3822*
G37*
G36*
X1145Y3736D02*
Y3720D01*
X1161*
X1158Y3727*
X1152Y3733*
X1145Y3736*
G37*
G36*
X1135D02*
X1127Y3733D01*
X1121Y3727*
X1118Y3720*
X1135*
Y3736*
G37*
G36*
X970Y3726D02*
Y3710D01*
X986*
X983Y3717*
X977Y3723*
X970Y3726*
G37*
G36*
X960D02*
X952Y3723D01*
X946Y3717*
X943Y3710*
X960*
Y3726*
G37*
G36*
X1051Y3721D02*
Y3705D01*
X1068*
X1065Y3712*
X1058Y3718*
X1051Y3721*
G37*
G36*
X1041D02*
X1034Y3718D01*
X1028Y3712*
X1025Y3705*
X1041*
Y3721*
G37*
G36*
X1161Y3710D02*
X1145D01*
Y3693*
X1152Y3696*
X1158Y3702*
X1161Y3710*
G37*
G36*
X1135D02*
X1118D01*
X1121Y3702*
X1127Y3696*
X1135Y3693*
Y3710*
G37*
G36*
X986Y3700D02*
X970D01*
Y3683*
X977Y3686*
X983Y3692*
X986Y3700*
G37*
G36*
X960D02*
X943D01*
X946Y3692*
X952Y3686*
X960Y3683*
Y3700*
G37*
G36*
X1068Y3695D02*
X1051D01*
Y3678*
X1058Y3681*
X1065Y3687*
X1068Y3695*
G37*
G36*
X1041D02*
X1025D01*
X1028Y3687*
X1034Y3681*
X1041Y3678*
Y3695*
G37*
G36*
X929Y3745D02*
X904D01*
Y3677*
X909Y3678*
X916Y3680*
X921Y3685*
X926Y3690*
X928Y3697*
X929Y3704*
Y3745*
G37*
G36*
X1146Y3680D02*
X1115D01*
Y3645*
X1146*
Y3680*
G37*
G36*
X1066Y3650D02*
X1035D01*
Y3624*
X1066*
Y3650*
G37*
G36*
X1025D02*
X993D01*
Y3624*
X1025*
Y3650*
G37*
G36*
X635Y3867D02*
X610D01*
Y3845*
X635*
Y3867*
G37*
G36*
X555Y3861D02*
Y3845D01*
X571*
X568Y3852*
X562Y3858*
X555Y3861*
G37*
G36*
X545D02*
X537Y3858D01*
X531Y3852*
X528Y3845*
X545*
Y3861*
G37*
G36*
X475D02*
Y3845D01*
X491*
X488Y3852*
X482Y3858*
X475Y3861*
G37*
G36*
X465D02*
X457Y3858D01*
X451Y3852*
X448Y3845*
X465*
Y3861*
G37*
G36*
X385D02*
Y3845D01*
X401*
X398Y3852*
X392Y3858*
X385Y3861*
G37*
G36*
X375D02*
X367Y3858D01*
X361Y3852*
X358Y3845*
X375*
Y3861*
G37*
G36*
X571Y3835D02*
X555D01*
Y3818*
X562Y3821*
X568Y3827*
X571Y3835*
G37*
G36*
X545D02*
X528D01*
X531Y3827*
X537Y3821*
X545Y3818*
Y3835*
G37*
G36*
X491D02*
X475D01*
Y3818*
X482Y3821*
X488Y3827*
X491Y3835*
G37*
G36*
X465D02*
X448D01*
X451Y3827*
X457Y3821*
X465Y3818*
Y3835*
G37*
G36*
X401D02*
X385D01*
Y3818*
X392Y3821*
X398Y3827*
X401Y3835*
G37*
G36*
X375D02*
X358D01*
X361Y3827*
X367Y3821*
X375Y3818*
Y3835*
G37*
G36*
X635Y3835D02*
X610D01*
Y3812*
X635*
Y3835*
G37*
G36*
X475Y3771D02*
Y3755D01*
X491*
X488Y3762*
X482Y3768*
X475Y3771*
G37*
G36*
X465D02*
X457Y3768D01*
X451Y3762*
X448Y3755*
X465*
Y3771*
G37*
G36*
X385D02*
Y3755D01*
X401*
X398Y3762*
X392Y3768*
X385Y3771*
G37*
G36*
X375D02*
X367Y3768D01*
X361Y3762*
X358Y3755*
X375*
Y3771*
G37*
G36*
X491Y3745D02*
X475D01*
Y3728*
X482Y3731*
X488Y3737*
X491Y3745*
G37*
G36*
X465D02*
X448D01*
X451Y3737*
X457Y3731*
X465Y3728*
Y3745*
G37*
G36*
X401D02*
X385D01*
Y3728*
X392Y3731*
X398Y3737*
X401Y3745*
G37*
G36*
X375D02*
X358D01*
X361Y3737*
X367Y3731*
X375Y3728*
Y3745*
G37*
G36*
X473Y3696D02*
Y3680D01*
X490*
X486Y3687*
X480Y3693*
X473Y3696*
G37*
G36*
X463D02*
X456Y3693D01*
X449Y3687*
X446Y3680*
X463*
Y3696*
G37*
G36*
X395Y3691D02*
Y3675D01*
X411*
X408Y3682*
X402Y3688*
X395Y3691*
G37*
G36*
X385D02*
X377Y3688D01*
X371Y3682*
X368Y3675*
X385*
Y3691*
G37*
G36*
X490Y3670D02*
X473D01*
Y3653*
X480Y3656*
X486Y3662*
X490Y3670*
G37*
G36*
X463D02*
X446D01*
X449Y3662*
X456Y3656*
X463Y3653*
Y3670*
G37*
G36*
X411Y3665D02*
X395D01*
Y3648*
X402Y3651*
X408Y3657*
X411Y3665*
G37*
G36*
X385D02*
X368D01*
X371Y3657*
X377Y3651*
X385Y3648*
Y3665*
G37*
G36*
X435Y3631D02*
Y3615D01*
X451*
X448Y3622*
X442Y3628*
X435Y3631*
G37*
G36*
X425D02*
X417Y3628D01*
X411Y3622*
X408Y3615*
X425*
Y3631*
G37*
G36*
X492Y3629D02*
X464D01*
Y3605*
X492*
Y3629*
G37*
G36*
X451Y3605D02*
X435D01*
Y3588*
X442Y3591*
X448Y3597*
X451Y3605*
G37*
G36*
X425D02*
X408D01*
X411Y3597*
X417Y3591*
X425Y3588*
Y3605*
G37*
G36*
X1066Y3555D02*
X1035D01*
Y3529*
X1066*
Y3555*
G37*
G36*
X1025D02*
X993D01*
Y3529*
X1025*
Y3555*
G37*
G36*
X1070Y3516D02*
Y3500D01*
X1086*
X1083Y3507*
X1077Y3513*
X1070Y3516*
G37*
G36*
X1060D02*
X1052Y3513D01*
X1046Y3507*
X1043Y3500*
X1060*
Y3516*
G37*
G36*
X990D02*
Y3500D01*
X1006*
X1003Y3507*
X997Y3513*
X990Y3516*
G37*
G36*
X980D02*
X972Y3513D01*
X966Y3507*
X963Y3500*
X980*
Y3516*
G37*
G36*
X1086Y3490D02*
X1070D01*
Y3473*
X1077Y3476*
X1083Y3482*
X1086Y3490*
G37*
G36*
X1060D02*
X1043D01*
X1046Y3482*
X1052Y3476*
X1060Y3473*
Y3490*
G37*
G36*
X1006D02*
X990D01*
Y3473*
X997Y3476*
X1003Y3482*
X1006Y3490*
G37*
G36*
X980D02*
X963D01*
X966Y3482*
X972Y3476*
X980Y3473*
Y3490*
G37*
G36*
X2433Y3497D02*
X2427Y3497D01*
X2422Y3492*
X2422Y3486*
X2426Y3481*
X2433Y3480*
X2439Y3486*
X2438Y3493*
X2433Y3497*
G37*
G36*
X587Y3701D02*
Y3684D01*
X604*
X601Y3692*
X595Y3698*
X587Y3701*
G37*
G36*
X577D02*
X570Y3698D01*
X564Y3692*
X561Y3684*
X577*
Y3701*
G37*
G36*
X645Y3686D02*
Y3664D01*
X669*
X669Y3666*
X666Y3673*
X662Y3679*
X656Y3683*
X649Y3686*
X645Y3686*
G37*
G36*
X635D02*
X630Y3686D01*
X623Y3683*
X618Y3679*
X613Y3673*
X611Y3666*
X610Y3664*
X635*
Y3686*
G37*
G36*
X604Y3674D02*
X587D01*
Y3658*
X595Y3661*
X601Y3667*
X604Y3674*
G37*
G36*
X577D02*
X561D01*
X564Y3667*
X570Y3661*
X577Y3658*
Y3674*
G37*
G36*
X669Y3654D02*
X645D01*
Y3632*
X649Y3633*
X656Y3636*
X662Y3640*
X666Y3646*
X669Y3652*
X669Y3654*
G37*
G36*
X635D02*
X610D01*
X611Y3652*
X613Y3646*
X618Y3640*
X623Y3636*
X630Y3633*
X635Y3632*
Y3654*
G37*
G36*
X595Y3629D02*
X567D01*
Y3605*
X595*
Y3629*
G37*
G36*
Y3595D02*
X567D01*
Y3570*
X595*
Y3595*
G37*
G36*
X595Y3551D02*
Y3535D01*
X611*
X608Y3542*
X602Y3548*
X595Y3551*
G37*
G36*
X585D02*
X577Y3548D01*
X571Y3542*
X568Y3535*
X585*
Y3551*
G37*
G36*
X611Y3525D02*
X595D01*
Y3508*
X602Y3511*
X608Y3517*
X611Y3525*
G37*
G36*
X585D02*
X568D01*
X571Y3517*
X577Y3511*
X585Y3508*
Y3525*
G37*
G36*
X1935Y1151D02*
Y1135D01*
X1951*
X1948Y1142*
X1942Y1148*
X1935Y1151*
G37*
G36*
X1925D02*
X1917Y1148D01*
X1911Y1142*
X1908Y1135*
X1925*
Y1151*
G37*
G36*
X1825Y1146D02*
Y1130D01*
X1841*
X1838Y1137*
X1832Y1143*
X1825Y1146*
G37*
G36*
X1815D02*
X1807Y1143D01*
X1801Y1137*
X1798Y1130*
X1815*
Y1146*
G37*
G36*
X2101Y1130D02*
X2085D01*
Y1113*
X2092Y1116*
X2098Y1122*
X2101Y1130*
G37*
G36*
X2075D02*
X2058D01*
X2061Y1122*
X2067Y1116*
X2075Y1113*
Y1130*
G37*
G36*
X1951Y1125D02*
X1935D01*
Y1108*
X1942Y1111*
X1948Y1117*
X1951Y1125*
G37*
G36*
X1925D02*
X1908D01*
X1911Y1117*
X1917Y1111*
X1925Y1108*
Y1125*
G37*
G36*
X1841Y1120D02*
X1825D01*
Y1103*
X1832Y1106*
X1838Y1112*
X1841Y1120*
G37*
G36*
X1815D02*
X1798D01*
X1801Y1112*
X1807Y1106*
X1815Y1103*
Y1120*
G37*
G36*
X1836Y1084D02*
X1824D01*
Y1067*
X1849*
Y1072*
X1848Y1076*
X1845Y1080*
X1841Y1083*
X1836Y1084*
G37*
G36*
X1814D02*
X1801D01*
X1796Y1083*
X1792Y1080*
X1790Y1076*
X1789Y1072*
Y1067*
X1814*
Y1084*
G37*
G36*
X1960Y1095D02*
X1925D01*
Y1061*
X1960*
Y1095*
G37*
G36*
X1915D02*
X1879D01*
Y1061*
X1915*
Y1095*
G37*
G36*
X2120Y1084D02*
X2085D01*
Y1053*
X2120*
Y1084*
G37*
G36*
X2075D02*
X2039D01*
Y1053*
X2075*
Y1084*
G37*
G36*
X1849Y1057D02*
X1824D01*
Y1040*
X1836*
X1841Y1041*
X1845Y1043*
X1848Y1047*
X1849Y1052*
Y1057*
G37*
G36*
X1605Y1211D02*
Y1195D01*
X1621*
X1618Y1202*
X1612Y1208*
X1605Y1211*
G37*
G36*
X1595D02*
X1587Y1208D01*
X1581Y1202*
X1578Y1195*
X1595*
Y1211*
G37*
G36*
X1530D02*
Y1195D01*
X1546*
X1543Y1202*
X1537Y1208*
X1530Y1211*
G37*
G36*
X1520D02*
X1512Y1208D01*
X1506Y1202*
X1503Y1195*
X1520*
Y1211*
G37*
G36*
X1621Y1185D02*
X1605D01*
Y1168*
X1612Y1171*
X1618Y1177*
X1621Y1185*
G37*
G36*
X1595D02*
X1578D01*
X1581Y1177*
X1587Y1171*
X1595Y1168*
Y1185*
G37*
G36*
X1546D02*
X1530D01*
Y1168*
X1537Y1171*
X1543Y1177*
X1546Y1185*
G37*
G36*
X1520D02*
X1503D01*
X1506Y1177*
X1512Y1171*
X1520Y1168*
Y1185*
G37*
G36*
X1530Y1121D02*
Y1105D01*
X1546*
X1543Y1112*
X1537Y1118*
X1530Y1121*
G37*
G36*
X1520D02*
X1512Y1118D01*
X1506Y1112*
X1503Y1105*
X1520*
Y1121*
G37*
G36*
X1640Y1115D02*
X1605D01*
Y1081*
X1640*
Y1115*
G37*
G36*
X1595D02*
X1559D01*
Y1081*
X1595*
Y1115*
G37*
G36*
X1546Y1095D02*
X1530D01*
Y1078*
X1537Y1081*
X1543Y1087*
X1546Y1095*
G37*
G36*
X1520D02*
X1503D01*
X1506Y1087*
X1512Y1081*
X1520Y1078*
Y1095*
G37*
G36*
X1705Y1084D02*
X1693D01*
X1688Y1083*
X1684Y1080*
X1681Y1076*
X1680Y1072*
Y1067*
X1705*
Y1084*
G37*
G36*
X1505Y1011D02*
Y995D01*
X1521*
X1518Y1002*
X1512Y1008*
X1505Y1011*
G37*
G36*
X1495D02*
X1487Y1008D01*
X1481Y1002*
X1478Y995*
X1495*
Y1011*
G37*
G36*
X1521Y985D02*
X1505D01*
Y968*
X1512Y971*
X1518Y977*
X1521Y985*
G37*
G36*
X1495D02*
X1478D01*
X1481Y977*
X1487Y971*
X1495Y968*
Y985*
G37*
G36*
X1640Y998D02*
X1605D01*
Y964*
X1640*
Y998*
G37*
G36*
X1595D02*
X1559D01*
Y964*
X1595*
Y998*
G37*
G36*
X1605Y931D02*
Y915D01*
X1621*
X1618Y922*
X1612Y928*
X1605Y931*
G37*
G36*
X1595D02*
X1587Y928D01*
X1581Y922*
X1578Y915*
X1595*
Y931*
G37*
G36*
X1505D02*
Y915D01*
X1521*
X1518Y922*
X1512Y928*
X1505Y931*
G37*
G36*
X1495D02*
X1487Y928D01*
X1481Y922*
X1478Y915*
X1495*
Y931*
G37*
G36*
X1621Y905D02*
X1605D01*
Y888*
X1612Y891*
X1618Y897*
X1621Y905*
G37*
G36*
X1595D02*
X1578D01*
X1581Y897*
X1587Y891*
X1595Y888*
Y905*
G37*
G36*
X1521D02*
X1505D01*
Y888*
X1512Y891*
X1518Y897*
X1521Y905*
G37*
G36*
X1495D02*
X1478D01*
X1481Y897*
X1487Y891*
X1495Y888*
Y905*
G37*
G36*
X1960Y978D02*
X1925D01*
Y944*
X1960*
Y978*
G37*
G36*
X1935Y931D02*
Y915D01*
X1951*
X1948Y922*
X1942Y928*
X1935Y931*
G37*
G36*
X1925D02*
X1917Y928D01*
X1911Y922*
X1908Y915*
X1925*
Y931*
G37*
G36*
X1951Y905D02*
X1935D01*
Y888*
X1942Y891*
X1948Y897*
X1951Y905*
G37*
G36*
X1925D02*
X1908D01*
X1911Y897*
X1917Y891*
X1925Y888*
Y905*
G37*
G36*
X1365Y700D02*
X1364D01*
X1354Y697*
X1345Y692*
X1337Y684*
X1332Y675*
X1329Y665*
Y665*
X1365*
Y700*
G37*
G36*
X682Y682D02*
X615D01*
Y647*
X682*
Y682*
G37*
G36*
X605D02*
X537D01*
Y647*
X605*
Y682*
G37*
G36*
X1365Y655D02*
X1329D01*
Y654*
X1332Y644*
X1337Y635*
X1345Y627*
X1354Y622*
X1364Y619*
X1365*
Y655*
G37*
G36*
X1010Y645D02*
X975D01*
Y611*
X1010*
Y645*
G37*
G36*
X965D02*
X929D01*
Y611*
X965*
Y645*
G37*
G36*
X682Y637D02*
X615D01*
Y602*
X682*
Y637*
G37*
G36*
X605D02*
X537D01*
Y602*
X605*
Y637*
G37*
G36*
X1010Y528D02*
X975D01*
Y494*
X1010*
Y528*
G37*
G36*
X965D02*
X929D01*
Y494*
X965*
Y528*
G37*
G36*
X895Y481D02*
Y465D01*
X911*
X908Y472*
X902Y478*
X895Y481*
G37*
G36*
X885D02*
X877Y478D01*
X871Y472*
X868Y465*
X885*
Y481*
G37*
G36*
X1085Y471D02*
Y455D01*
X1101*
X1098Y462*
X1092Y468*
X1085Y471*
G37*
G36*
X1075D02*
X1067Y468D01*
X1061Y462*
X1058Y455*
X1075*
Y471*
G37*
G36*
X911Y455D02*
X895D01*
Y438*
X902Y441*
X908Y447*
X911Y455*
G37*
G36*
X885D02*
X868D01*
X871Y447*
X877Y441*
X885Y438*
Y455*
G37*
G36*
X1101Y445D02*
X1085D01*
Y428*
X1092Y431*
X1098Y437*
X1101Y445*
G37*
G36*
X1075D02*
X1058D01*
X1061Y437*
X1067Y431*
X1075Y428*
Y445*
G37*
G36*
X2871Y515D02*
X2855D01*
Y498*
X2862Y501*
X2868Y507*
X2871Y515*
G37*
G36*
X2845D02*
X2828D01*
X2831Y507*
X2837Y501*
X2845Y498*
Y515*
G37*
G36*
X2855Y471D02*
Y455D01*
X2871*
X2868Y462*
X2862Y468*
X2855Y471*
G37*
G36*
X2845D02*
X2837Y468D01*
X2831Y462*
X2828Y455*
X2845*
Y471*
G37*
G36*
X682Y437D02*
X615D01*
Y402*
X682*
Y437*
G37*
G36*
X605D02*
X537D01*
Y402*
X605*
Y437*
G37*
G36*
X682Y392D02*
X615D01*
Y357*
X682*
Y392*
G37*
G36*
X640Y300D02*
X605D01*
Y265*
X640*
Y300*
G37*
G36*
X595D02*
X559D01*
Y265*
X595*
Y300*
G37*
G36*
X640Y255D02*
X605D01*
Y219*
X640*
Y255*
G37*
G36*
X595D02*
X559D01*
Y219*
X595*
Y255*
G37*
G36*
X1740Y982D02*
X1715D01*
Y965*
X1728*
X1733Y966*
X1737Y969*
X1739Y973*
X1740Y977*
Y982*
G37*
G36*
X2275Y701D02*
Y685D01*
X2291*
X2288Y692*
X2282Y698*
X2275Y701*
G37*
G36*
X2265D02*
X2257Y698D01*
X2251Y692*
X2248Y685*
X2265*
Y701*
G37*
G36*
X2185D02*
Y685D01*
X2201*
X2198Y692*
X2192Y698*
X2185Y701*
G37*
G36*
X2175D02*
X2167Y698D01*
X2161Y692*
X2158Y685*
X2175*
Y701*
G37*
G36*
X2105D02*
Y685D01*
X2121*
X2118Y692*
X2112Y698*
X2105Y701*
G37*
G36*
X2095D02*
X2087Y698D01*
X2081Y692*
X2078Y685*
X2095*
Y701*
G37*
G36*
X2025D02*
Y685D01*
X2041*
X2038Y692*
X2032Y698*
X2025Y701*
G37*
G36*
X2015D02*
X2007Y698D01*
X2001Y692*
X1998Y685*
X2015*
Y701*
G37*
G36*
X1925D02*
Y685D01*
X1941*
X1938Y692*
X1932Y698*
X1925Y701*
G37*
G36*
X1915D02*
X1907Y698D01*
X1901Y692*
X1898Y685*
X1915*
Y701*
G37*
G36*
X1835D02*
Y685D01*
X1851*
X1848Y692*
X1842Y698*
X1835Y701*
G37*
G36*
X1825D02*
X1817Y698D01*
X1811Y692*
X1808Y685*
X1825*
Y701*
G37*
G36*
X2291Y675D02*
X2275D01*
Y658*
X2282Y661*
X2288Y667*
X2291Y675*
G37*
G36*
X2265D02*
X2248D01*
X2251Y667*
X2257Y661*
X2265Y658*
Y675*
G37*
G36*
X2201D02*
X2185D01*
Y658*
X2192Y661*
X2198Y667*
X2201Y675*
G37*
G36*
X2175D02*
X2158D01*
X2161Y667*
X2167Y661*
X2175Y658*
Y675*
G37*
G36*
X2121D02*
X2105D01*
Y658*
X2112Y661*
X2118Y667*
X2121Y675*
G37*
G36*
X2095D02*
X2078D01*
X2081Y667*
X2087Y661*
X2095Y658*
Y675*
G37*
G36*
X2041D02*
X2025D01*
Y658*
X2032Y661*
X2038Y667*
X2041Y675*
G37*
G36*
X2015D02*
X1998D01*
X2001Y667*
X2007Y661*
X2015Y658*
Y675*
G37*
G36*
X1941D02*
X1925D01*
Y658*
X1932Y661*
X1938Y667*
X1941Y675*
G37*
G36*
X1915D02*
X1898D01*
X1901Y667*
X1907Y661*
X1915Y658*
Y675*
G37*
G36*
X1851D02*
X1835D01*
Y658*
X1842Y661*
X1848Y667*
X1851Y675*
G37*
G36*
X1825D02*
X1808D01*
X1811Y667*
X1817Y661*
X1825Y658*
Y675*
G37*
G36*
X2285Y631D02*
Y615D01*
X2301*
X2298Y622*
X2292Y628*
X2285Y631*
G37*
G36*
X2275D02*
X2267Y628D01*
X2261Y622*
X2258Y615*
X2275*
Y631*
G37*
G36*
X2195D02*
Y615D01*
X2211*
X2208Y622*
X2202Y628*
X2195Y631*
G37*
G36*
X2185D02*
X2177Y628D01*
X2171Y622*
X2168Y615*
X2185*
Y631*
G37*
G36*
X2301Y605D02*
X2285D01*
Y588*
X2292Y591*
X2298Y597*
X2301Y605*
G37*
G36*
X2275D02*
X2258D01*
X2261Y597*
X2267Y591*
X2275Y588*
Y605*
G37*
G36*
X2211D02*
X2195D01*
Y588*
X2202Y591*
X2208Y597*
X2211Y605*
G37*
G36*
X2185D02*
X2168D01*
X2171Y597*
X2177Y591*
X2185Y588*
Y605*
G37*
G36*
X2195Y551D02*
Y535D01*
X2211*
X2208Y542*
X2202Y548*
X2195Y551*
G37*
G36*
X2185D02*
X2177Y548D01*
X2171Y542*
X2168Y535*
X2185*
Y551*
G37*
G36*
X2297Y543D02*
Y526D01*
X2313*
X2310Y533*
X2304Y540*
X2297Y543*
G37*
G36*
X2287D02*
X2280Y540D01*
X2273Y533*
X2270Y526*
X2287*
Y543*
G37*
G36*
X2211Y525D02*
X2195D01*
Y508*
X2202Y511*
X2208Y517*
X2211Y525*
G37*
G36*
X2185D02*
X2168D01*
X2171Y517*
X2177Y511*
X2185Y508*
Y525*
G37*
G36*
X2313Y516D02*
X2297D01*
Y499*
X2304Y503*
X2310Y509*
X2313Y516*
G37*
G36*
X2287D02*
X2270D01*
X2273Y509*
X2280Y503*
X2287Y499*
Y516*
G37*
G36*
X2315Y451D02*
Y435D01*
X2331*
X2328Y442*
X2322Y448*
X2315Y451*
G37*
G36*
X2305D02*
X2297Y448D01*
X2291Y442*
X2288Y435*
X2305*
Y451*
G37*
G36*
X2205D02*
Y435D01*
X2221*
X2218Y442*
X2212Y448*
X2205Y451*
G37*
G36*
X2195D02*
X2187Y448D01*
X2181Y442*
X2178Y435*
X2195*
Y451*
G37*
G36*
X2331Y425D02*
X2315D01*
Y408*
X2322Y411*
X2328Y417*
X2331Y425*
G37*
G36*
X2305D02*
X2288D01*
X2291Y417*
X2297Y411*
X2305Y408*
Y425*
G37*
G36*
X2221D02*
X2205D01*
Y408*
X2212Y411*
X2218Y417*
X2221Y425*
G37*
G36*
X2195D02*
X2178D01*
X2181Y417*
X2187Y411*
X2195Y408*
Y425*
G37*
G36*
X2225Y361D02*
Y345D01*
X2241*
X2238Y352*
X2232Y358*
X2225Y361*
G37*
G36*
X2215D02*
X2207Y358D01*
X2201Y352*
X2198Y345*
X2215*
Y361*
G37*
G36*
X2316Y375D02*
X2290D01*
Y345*
X2316*
Y375*
G37*
G36*
X2241Y335D02*
X2225D01*
Y318*
X2232Y321*
X2238Y327*
X2241Y335*
G37*
G36*
X2215D02*
X2198D01*
X2201Y327*
X2207Y321*
X2215Y318*
Y335*
G37*
G36*
X2316D02*
X2290D01*
Y304*
X2316*
Y335*
G37*
G36*
X2316Y260D02*
X2285D01*
Y225*
X2316*
Y260*
G37*
G36*
Y215D02*
X2285D01*
Y179*
X2316*
Y215*
G37*
G36*
X2595Y371D02*
Y355D01*
X2611*
X2608Y362*
X2602Y368*
X2595Y371*
G37*
G36*
X2585D02*
X2577Y368D01*
X2571Y362*
X2568Y355*
X2585*
Y371*
G37*
G36*
X2485D02*
Y355D01*
X2501*
X2498Y362*
X2492Y368*
X2485Y371*
G37*
G36*
X2475D02*
X2467Y368D01*
X2461Y362*
X2458Y355*
X2475*
Y371*
G37*
G36*
X2409Y375D02*
X2383D01*
Y345*
X2409*
Y375*
G37*
G36*
X2611Y345D02*
X2595D01*
Y328*
X2602Y331*
X2608Y337*
X2611Y345*
G37*
G36*
X2585D02*
X2568D01*
X2571Y337*
X2577Y331*
X2585Y328*
Y345*
G37*
G36*
X2501D02*
X2485D01*
Y328*
X2492Y331*
X2498Y337*
X2501Y345*
G37*
G36*
X2475D02*
X2458D01*
X2461Y337*
X2467Y331*
X2475Y328*
Y345*
G37*
G36*
X2595Y271D02*
Y255D01*
X2611*
X2608Y262*
X2602Y268*
X2595Y271*
G37*
G36*
X2585D02*
X2577Y268D01*
X2571Y262*
X2568Y255*
X2585*
Y271*
G37*
G36*
X2611Y245D02*
X2595D01*
Y228*
X2602Y231*
X2608Y237*
X2611Y245*
G37*
G36*
X2585D02*
X2568D01*
X2571Y237*
X2577Y231*
X2585Y228*
Y245*
G37*
G36*
X2514Y163D02*
X2486D01*
Y135*
X2514*
Y163*
G37*
G36*
X2595Y151D02*
Y135D01*
X2611*
X2608Y142*
X2602Y148*
X2595Y151*
G37*
G36*
X2585D02*
X2577Y148D01*
X2571Y142*
X2568Y135*
X2585*
Y151*
G37*
G36*
X2611Y125D02*
X2595D01*
Y108*
X2602Y111*
X2608Y117*
X2611Y125*
G37*
G36*
X2585D02*
X2568D01*
X2571Y117*
X2577Y111*
X2585Y108*
Y125*
G37*
G36*
X2514D02*
X2486D01*
Y96*
X2514*
Y125*
G37*
%LNconcentrator_pcb-3*%
%LPD*%
G54D15*
X3136Y2520D02*
Y2554D01*
X1805Y2204D02*
X1810D01*
X1752Y2257D02*
X1805Y2204D01*
X1752Y2257D02*
Y2277D01*
X1750Y2280D02*
X1752Y2277D01*
X3136Y2507D02*
Y2520D01*
X3154Y2505D02*
X3294D01*
X3140Y2520D02*
X3154Y2505D01*
X3140Y2520D02*
Y2522D01*
X2390Y1580D02*
Y1630D01*
X2615Y2041D02*
X2629Y2026D01*
X2615Y2041D02*
Y2045D01*
X2629Y1970D02*
Y2026D01*
X2615Y2045D02*
X2616Y2043D01*
X2020Y1750D02*
X2109D01*
X2023Y1690D02*
X2110D01*
X2020Y1686D02*
X2023Y1690D01*
X2109Y1750D02*
X2110Y1749D01*
X2674Y1845D02*
X2735D01*
X2669Y1850D02*
X2674Y1845D01*
X3592Y2010D02*
X3655D01*
X3580Y2000D02*
X3582D01*
X3655Y2010D02*
X3661Y2003D01*
X3582Y2000D02*
X3592Y2010D01*
X3580Y1936D02*
Y2000D01*
X2510Y3060D02*
Y3133D01*
X2115Y3570D02*
X2227D01*
X2228Y3569*
X3000Y3112D02*
Y3132D01*
Y3207D02*
Y3320D01*
X3051Y2495D02*
Y2500D01*
X3058Y2507*
X3064*
X3064Y2507*
X3136*
X3030Y2850D02*
X3038Y2842D01*
X2971Y2857D02*
Y2869D01*
Y2857D02*
X2978Y2850D01*
X3030*
X3038Y2751D02*
Y2842D01*
X3000Y3320D02*
Y3399D01*
X2081Y810D02*
X2170D01*
X2080Y808D02*
X2081Y810D01*
X3086Y1520D02*
X3095Y1510D01*
X2841Y2844D02*
X2853Y2832D01*
X3305Y1544D02*
X3310Y1540D01*
X2836Y2890D02*
X2841Y2895D01*
X3700Y550D02*
X3840D01*
X3290Y1250D02*
Y1272D01*
X3305Y1544D02*
X3310Y1540D01*
X3005Y3040D02*
Y3107D01*
X2082Y2261D02*
Y2314D01*
X3074Y1257D02*
X3075Y1258D01*
X3840Y550D02*
X3842Y551D01*
X3010Y1580D02*
X3069Y1520D01*
X3086*
X3090Y1563D02*
Y1650D01*
Y1563D02*
X3095Y1558D01*
X3095Y1412D02*
Y1510D01*
Y1410D02*
Y1412D01*
X1259Y1689D02*
X1345Y1775D01*
X1398*
X1179Y1689D02*
X1259D01*
X1692Y2085D02*
Y2134D01*
X1710Y2152*
Y2155*
X2024Y3570D02*
X2115D01*
X3000Y3112D02*
X3005Y3107D01*
X2860Y3127D02*
X2865Y3122D01*
Y3050D02*
Y3122D01*
X2740Y3132D02*
X2745Y3127D01*
Y3055D02*
Y3127D01*
X2625Y3055D02*
Y3125D01*
X2620Y3130D02*
X2625Y3125D01*
X1580Y348D02*
Y430D01*
Y348D02*
X1580Y347D01*
X1580Y271D02*
X1580Y272D01*
X1580Y210D02*
Y271D01*
X2080Y891D02*
Y988D01*
X3289Y1168D02*
Y1249D01*
X3285Y1163D02*
X3289Y1168D01*
Y1249D02*
X3290Y1250D01*
X3285Y1160D02*
Y1163D01*
X2730Y2835D02*
X2832D01*
X2841Y2844*
X2770Y2890D02*
X2836D01*
X3202Y1412D02*
X3240Y1450D01*
X3154Y1412D02*
X3202D01*
X2420Y3578D02*
Y3620D01*
X2419Y3539D02*
Y3577D01*
X2420Y3578*
X2392Y136D02*
Y229D01*
Y136D02*
X2398Y130D01*
X2200Y1389D02*
X2770Y820D01*
X1179Y1389D02*
X2200D01*
X2770Y420D02*
Y820D01*
Y420D02*
X2793Y396D01*
X2972*
X3018Y2732D02*
X3038Y2751D01*
X3376Y1250D02*
X3380Y1246D01*
Y1160D02*
Y1246D01*
X3075Y1305D02*
X3080Y1310D01*
X3256Y1305D02*
X3290Y1272D01*
X3182Y1305D02*
X3256D01*
X3310Y1430D02*
Y1540D01*
X3182Y1384D02*
X3264D01*
X3310Y1430*
X3150Y1521D02*
Y1530D01*
X3134Y1412D02*
Y1506D01*
X3150Y1521*
X3365Y1544D02*
X3455D01*
X3460Y1540*
X3219Y1544D02*
X3305D01*
X3095Y1410D02*
X3096Y1410D01*
X3110*
X3030Y1072D02*
X3030Y1072D01*
X3030Y990D02*
Y1072D01*
X3244Y1084D02*
X3247D01*
X3208Y1120D02*
X3244Y1084D01*
X3160Y1120D02*
X3208D01*
X3030Y1120D02*
X3099D01*
X3100Y1120*
X3512Y600D02*
X3513Y599D01*
X3117Y2574D02*
X3136Y2554D01*
X3006Y2633D02*
X3065Y2574D01*
X2995Y2633D02*
X3006D01*
X3065Y2574D02*
X3117D01*
X3120Y2653D02*
D01*
X2995D02*
X3120D01*
X2995Y2732D02*
X2995Y2732D01*
X3018*
X2867Y2832D02*
X2908Y2791D01*
Y2759D02*
Y2791D01*
X2853Y2832D02*
X2867D01*
X2908Y2759D02*
X2928D01*
G54D18*
X2114Y3070D02*
Y3159D01*
X2113Y3160D02*
X2114Y3159D01*
X1990Y3070D02*
X2085D01*
X3400Y2253D02*
Y2285D01*
X2260Y3232D02*
Y3235D01*
X2316Y3292*
Y3296*
X2320Y3300*
X2401Y3160D02*
X2497D01*
X2646Y3316D02*
Y3326D01*
X2510Y3166D02*
X2510Y3166D01*
Y3180*
X2646Y3316*
X2504Y3166D02*
X2505D01*
X2497Y3160D02*
X2504Y3166D01*
X3136Y2444D02*
Y2472D01*
X3140Y2475*
X2030Y1950D02*
X2056D01*
X1990Y1990D02*
X2030Y1950D01*
X1900Y1490D02*
X1920Y1470D01*
X1900Y1490D02*
Y1530D01*
X1700Y3520D02*
X1840Y3660D01*
X1700Y3440D02*
X1780Y3360D01*
X1840Y3660D02*
X2697D01*
X1700Y3440D02*
Y3520D01*
X1570Y3425D02*
X1875Y3730D01*
X1076Y3425D02*
X1570D01*
X740Y2650D02*
X1079Y2989D01*
X740Y2380D02*
Y2650D01*
X3220Y2400D02*
X3290D01*
X3150D02*
X3220D01*
X2430Y3490D02*
Y3491D01*
X2429Y3490D02*
X2429D01*
X2405D02*
X2429D01*
X2429D02*
X2430Y3489D01*
X2405Y3466D02*
X2428Y3489D01*
X2429Y3466D02*
Y3487D01*
X2430Y3489D02*
X2453Y3466D01*
X2432Y3490D02*
X2453D01*
X2430Y3489D02*
X2432Y3490D01*
X2430Y3491D02*
X2453Y3514D01*
X2429Y3490D02*
Y3514D01*
X2405D02*
X2429Y3490D01*
X2000Y3520D02*
X2380D01*
X1710Y3230D02*
X2000Y3520D01*
X3540Y2640D02*
Y2700D01*
Y2640D02*
X3590Y2590D01*
Y2479D02*
Y2590D01*
X2340Y3500D02*
X2380D01*
X2309Y3469D02*
X2340Y3500D01*
X2270Y3469D02*
X2309D01*
X2410Y3370D02*
X2439Y3399D01*
X2428Y3312D02*
X2430Y3310D01*
X2420Y3312D02*
X2428D01*
X2410Y3322D02*
X2420Y3312D01*
X2410Y3322D02*
Y3370D01*
X2430Y3308D02*
Y3310D01*
X2439Y3399D02*
Y3440D01*
X2469Y3320D02*
Y3428D01*
Y3320D02*
X2470Y3320D01*
X2459Y3438D02*
X2469Y3428D01*
X2459Y3438D02*
Y3440D01*
X3556Y2960D02*
X3647Y2869D01*
X1830Y2960D02*
X3556D01*
X2070Y3470D02*
X2210D01*
X2211Y3469*
X3647Y2869D02*
X3648D01*
X3589Y2311D02*
Y2420D01*
X3590Y2420*
X1396Y1905D02*
X1398Y1902D01*
X1340Y1905D02*
X1396D01*
X3005Y875D02*
X3430D01*
X3470Y700D02*
Y835D01*
X3430Y875D02*
X3470Y835D01*
X2850Y1030D02*
X3005Y875D01*
X1424Y3565D02*
Y3636D01*
X1421Y3640D02*
X1424Y3636D01*
X995Y3074D02*
Y3343D01*
Y3074D02*
X1079Y2989D01*
X1820Y3535D02*
X1855Y3570D01*
X2710Y3550D02*
Y3647D01*
X2697Y3660D02*
X2710Y3647D01*
X1855Y3570D02*
X1965D01*
X2310Y1580D02*
Y1644D01*
X2509Y3539D02*
X2590Y3620D01*
X2479Y3520D02*
X2570D01*
X2600Y3550*
X2479Y3500D02*
X2660D01*
X2710Y3550*
X1231Y3640D02*
X1338D01*
X2967Y2727D02*
Y2759D01*
X2967Y2759*
X2940Y2700D02*
X2967Y2727D01*
X3108Y2897D02*
X3115Y2890D01*
X3038Y2897D02*
X3108D01*
X3115Y2890D02*
X3120D01*
X1383Y2253D02*
X1400Y2270D01*
X1383Y2180D02*
Y2253D01*
X2016Y1670D02*
X2020Y1673D01*
X1940Y1670D02*
X2016D01*
X2860Y3192D02*
Y3270D01*
X2740Y3187D02*
Y3250D01*
X2620Y3189D02*
Y3230D01*
X2640Y3250*
X1894Y2698D02*
D01*
X2280Y2762D02*
Y2830D01*
X2276Y2759D02*
X2280Y2762D01*
X2090Y2781D02*
Y2870D01*
X1894Y2830D02*
X1900Y2835D01*
X1894Y2757D02*
Y2830D01*
X1900Y2835D02*
Y2840D01*
X3040Y2050D02*
Y2126D01*
X3038Y2127D02*
X3040Y2126D01*
X3294Y2404D02*
Y2452D01*
X3290Y2400D02*
X3294Y2404D01*
X3145Y2404D02*
Y2435D01*
Y2404D02*
X3150Y2400D01*
X3136Y2444D02*
X3145Y2435D01*
X3193Y2653D02*
X3196Y2650D01*
X3280*
X2940Y830D02*
X3420D01*
X2840Y930D02*
X2940Y830D01*
X3426Y656D02*
X3470Y700D01*
X3346Y656D02*
X3426D01*
X3420Y830D02*
X3440Y810D01*
Y720D02*
Y810D01*
X3419Y699D02*
X3440Y720D01*
X3346Y699D02*
X3419D01*
X2180Y1470D02*
X2800Y850D01*
Y660D02*
X2847Y612D01*
X2800Y660D02*
Y850D01*
X1920Y1470D02*
X2180D01*
X2847Y612D02*
X2972D01*
X3400Y2253D02*
X3460Y2193D01*
X3466*
X3470Y2190*
X3570Y2288D02*
Y2311D01*
Y2210D02*
Y2288D01*
X3589D02*
X3590Y2289D01*
X3679*
X3680Y2290*
X3580Y1884D02*
X3584Y1880D01*
X3660*
X3718Y2003D02*
X3722Y2000D01*
X3790*
X3722Y2080D02*
X3790D01*
X3718Y2076D02*
X3722Y2080D01*
X3637Y2850D02*
X3660D01*
X3637Y2830D02*
Y2850D01*
X3730D02*
X3750Y2870D01*
X3660Y2850D02*
X3730D01*
X2457Y3518D02*
X2477D01*
X2479Y3520*
X2453Y3514D02*
X2457Y3518D01*
X2455Y3489D02*
X2463Y3480D01*
X2479*
X2050Y3160D02*
X2113D01*
X2459Y3539D02*
X2509D01*
X2646Y3326D02*
X2650Y3330D01*
X2123Y3159D02*
X2123Y3160D01*
X2372Y3569D02*
X2399Y3541D01*
Y3539D02*
Y3541D01*
X2268Y3569D02*
X2372D01*
X3182Y1325D02*
X3515D01*
X3590Y1330D02*
X3670D01*
X3588Y1327D02*
X3590Y1330D01*
X3515Y1325D02*
X3520Y1330D01*
X3134Y1144D02*
X3149Y1130D01*
X3134Y1144D02*
Y1258D01*
X3149Y1130D02*
X3150D01*
X3110Y1131D02*
X3115Y1136D01*
X3110Y1130D02*
Y1131D01*
X3115Y1136D02*
Y1258D01*
G54D20*
X1860Y370D03*
X1856Y240D03*
G54D21*
X2085Y3070D03*
X2114D03*
X3214Y3460D03*
X3185D03*
G54D22*
X3400Y2285D03*
Y2314D03*
Y3415D03*
Y3444D03*
X3030Y1081D03*
Y1111D03*
X3247Y1046D03*
Y1076D03*
X2790Y2435D03*
Y2464D03*
X2920Y2319D03*
Y2349D03*
X3513Y466D03*
Y436D03*
G54D23*
X2270Y3167D03*
Y3232D03*
X3140Y2457D03*
Y2522D03*
X2860Y3182D03*
Y3117D03*
G54D24*
X3000Y3206D03*
Y3133D03*
X1470Y313D03*
Y386D03*
X1600Y1003D03*
Y1076D03*
X1920Y983D03*
Y1056D03*
X970Y533D03*
Y606D03*
X2020Y1683D03*
Y1756D03*
G54D25*
X3523Y1327D03*
X3588D03*
X3150Y2751D03*
X3215D03*
X497Y3600D03*
X562D03*
G54D26*
X1030Y3619D03*
Y3560D03*
G54D27*
X3376Y1250D03*
X3303D03*
X3196Y2650D03*
X3123D03*
G54D28*
X2998Y2495D03*
X3051D03*
G54D29*
X3110Y1120D03*
X3147D03*
X2892Y2440D03*
X2930D03*
X2121Y3160D03*
X2158D03*
G54D30*
X2378Y340D03*
X2321D03*
G54D31*
X2398Y220D03*
X2321D03*
X1228Y3640D03*
X1151D03*
X1557Y1775D03*
X1633D03*
X1547Y1902D03*
X1623D03*
X1541Y2180D03*
X1618D03*
G54D32*
X2080Y971D03*
Y1048D03*
X1894Y2611D03*
Y2534D03*
X2089Y2595D03*
Y2518D03*
X2277Y2592D03*
Y2515D03*
G54D33*
X899Y3750D03*
G54D34*
X640Y3659D03*
Y3750D03*
G54D35*
X640Y3840D03*
G54D36*
X610Y642D03*
Y397D03*
G54D37*
X2358Y3160D03*
X2401D03*
G54D38*
X3650Y3480D03*
Y3447D03*
G54D39*
X3090Y1569D03*
Y1510D03*
X3580Y1880D03*
Y1939D03*
X2840Y2889D03*
Y2830D03*
X2390Y1630D03*
Y1689D03*
X2300Y1640D03*
Y1699D03*
X2320Y2169D03*
Y2110D03*
X2110Y1690D03*
Y1749D03*
X1820Y1899D03*
Y1840D03*
X2400Y2179D03*
Y2120D03*
G54D40*
X2050Y1950D03*
X2109D03*
X2669Y1850D03*
X2610D03*
X2629Y1970D03*
X2570D03*
G54D41*
X1894Y2698D03*
Y2757D03*
X2276Y2685D03*
Y2750D03*
G54D42*
X1740Y1871D03*
Y1928D03*
X3513Y598D03*
Y541D03*
G54D43*
X3673Y1327D03*
X3725D03*
X3295Y2751D03*
X3346D03*
G54D44*
X1620Y2085D03*
X1689D03*
G54D45*
X1810Y2204D03*
Y2135D03*
X2086Y2185D03*
Y2254D03*
G54D46*
X2510Y3166D03*
Y3133D03*
X3290Y2316D03*
Y2283D03*
G54D47*
X2268Y3569D03*
X2228D03*
G54D48*
X1819Y1062D03*
Y987D03*
X1710D03*
Y1025D03*
Y1062D03*
G54D49*
X3224Y2200D03*
X3167D03*
G54D50*
X3368Y1544D03*
X3307D03*
G54D51*
X3038Y2900D03*
Y2839D03*
G54D52*
X1959Y3570D03*
X2030D03*
G54D53*
X2620Y3195D03*
Y3124D03*
G54D54*
X3294Y2446D03*
Y2505D03*
G54D55*
X3060Y2350D03*
X2999D03*
X3560Y3220D03*
X3499D03*
G54D56*
X3590Y2482D03*
Y2417D03*
G54D57*
X3562Y3480D03*
X3497D03*
X2252Y3470D03*
X2187D03*
X1395Y1775D03*
X1460D03*
X1395Y1902D03*
X1460D03*
X1380Y2180D03*
X1445D03*
G54D58*
X3038Y2189D03*
Y2132D03*
G54D59*
X3000Y3399D03*
Y3460D03*
G54D60*
X2740Y3120D03*
Y3179D03*
X3612Y599D03*
Y540D03*
G54D61*
X2340Y1910D03*
G54D62*
X2229Y2045D03*
X2243D03*
X2257D03*
X2271D03*
X2284D03*
X2298D03*
X2312D03*
X2326D03*
X2340D03*
X2353D03*
X2367D03*
X2381D03*
X2395D03*
X2408D03*
X2422D03*
X2436D03*
X2450D03*
Y1774D03*
X2436D03*
X2422D03*
X2408D03*
X2395D03*
X2381D03*
X2367D03*
X2353D03*
X2340D03*
X2326D03*
X2312D03*
X2298D03*
X2284D03*
X2271D03*
X2257D03*
X2243D03*
X2229D03*
G54D63*
X2475Y2020D03*
Y2006D03*
Y1992D03*
Y1978D03*
Y1965D03*
Y1951D03*
Y1937D03*
Y1923D03*
Y1910D03*
Y1896D03*
Y1882D03*
Y1868D03*
Y1854D03*
Y1841D03*
Y1827D03*
Y1813D03*
Y1799D03*
X2204D03*
Y1813D03*
Y1827D03*
Y1841D03*
Y1854D03*
Y1868D03*
Y1882D03*
Y1896D03*
Y1910D03*
Y1923D03*
Y1937D03*
Y1951D03*
Y1965D03*
Y1978D03*
Y1992D03*
Y2006D03*
Y2020D03*
G54D64*
X3500Y3378D03*
Y3321D03*
G54D65*
X3228Y3320D03*
X3171D03*
G54D66*
X2080Y891D03*
Y808D03*
X2090Y2781D03*
Y2698D03*
G54D67*
X2470Y3320D03*
X2450Y3331D03*
X2430D03*
Y3308D03*
X2450D03*
X3570Y2311D03*
X3589D03*
Y2288D03*
X3570D03*
X3550Y2300D03*
G54D68*
X2380Y3520D03*
Y3500D03*
Y3480D03*
Y3460D03*
X2479D03*
Y3480D03*
Y3500D03*
Y3520D03*
G54D69*
X2399Y3440D03*
X2419D03*
X2439D03*
X2459D03*
Y3539D03*
X2439D03*
X2419D03*
X2399D03*
G54D70*
X2405Y3514D03*
X2429D03*
X2453D03*
X2405Y3490D03*
X2429D03*
X2453D03*
X2405Y3466D03*
X2429D03*
X2453D03*
G54D71*
X3660Y2850D03*
Y2830D03*
X3637D03*
Y2850D03*
X3648Y2869D03*
G54D72*
X2972Y526D03*
X3346Y699D03*
Y656D03*
Y612D03*
Y569D03*
Y526D03*
Y482D03*
Y439D03*
X2972D03*
Y482D03*
Y569D03*
Y612D03*
Y656D03*
Y699D03*
G54D73*
X3035Y2279D03*
X3002D03*
G54D74*
X3852Y3368D03*
Y3591D03*
X3842Y328D03*
Y551D03*
G54D75*
X3860Y3480D03*
X3850Y440D03*
G54D76*
X2971Y2869D03*
X2908D03*
X3156Y1544D03*
X3219D03*
G54D77*
X3661Y2003D03*
Y2076D03*
X3718D03*
Y2003D03*
G54D78*
X1421Y3640D03*
X1338D03*
X2398Y130D03*
X2481D03*
G54D79*
X2995Y2633D03*
Y2653D03*
Y2672D03*
Y2692D03*
Y2712D03*
Y2732D03*
X2841D03*
Y2712D03*
Y2692D03*
Y2672D03*
Y2653D03*
Y2633D03*
X3182Y1286D03*
Y1305D03*
Y1325D03*
Y1345D03*
Y1364D03*
Y1384D03*
X3028D03*
Y1364D03*
Y1345D03*
Y1325D03*
Y1305D03*
Y1286D03*
G54D80*
X2967Y2759D03*
X2947D03*
X2928D03*
X2908D03*
X2888D03*
X2869D03*
Y2606D03*
X2888D03*
X2908D03*
X2928D03*
X2947D03*
X2967D03*
X3154Y1412D03*
X3134D03*
X3115D03*
X3095D03*
X3075D03*
X3056D03*
Y1258D03*
X3075D03*
X3095D03*
X3115D03*
X3134D03*
X3154D03*
G54D81*
X2918Y2682D03*
X3105Y1335D03*
G54D82*
X3346Y742D03*
Y396D03*
X2972D03*
Y742D03*
G54D83*
X1679Y347D03*
Y272D03*
X1580D03*
Y310D03*
Y347D03*
G54D90*
X1830Y2057D03*
Y1982D03*
X1909Y2020D03*
G54D110*
X3475Y3830D03*
X3375D03*
X3275D03*
X3175D03*
X3075D03*
X2975D03*
X2875D03*
X2775D03*
X2675D03*
X2575D03*
X2475D03*
X2375D03*
X2275D03*
X2175D03*
X2075D03*
X1975D03*
X1875D03*
X1775D03*
X1675D03*
X1575D03*
X3475Y3730D03*
X3375D03*
X3275D03*
X3175D03*
X3075D03*
X2975D03*
X2875D03*
X2775D03*
X2675D03*
X2575D03*
X2475D03*
X2375D03*
X2275D03*
X2175D03*
X2075D03*
X1975D03*
X1875D03*
X1775D03*
X1675D03*
G54D111*
X1575Y3730D03*
G54D119*
X2753Y2635D02*
D01*
X2753Y2635*
X2753Y2635*
X2753Y2635*
X2753Y2635*
X2753Y2635*
X2753Y2635D02*
D01*
X2753Y2635*
X2753Y2635*
X2753Y2635*
X2753Y2635*
X2753Y2635*
X3398Y2316D02*
X3400Y2314D01*
X3290Y2316D02*
X3398D01*
X2253Y3160D02*
X2260Y3166D01*
X2333Y3346D02*
X2417Y3431D01*
X1579Y2919D02*
X2050Y3390D01*
X2335D02*
X2386Y3440D01*
X2050Y3390D02*
X2335D01*
X1540Y2967D02*
X1988Y3416D01*
X2333D02*
X2378Y3460D01*
X2095Y3346D02*
X2333D01*
X1988Y3416D02*
X2333D01*
X1630Y2881D02*
X2095Y3346D01*
X2260Y3166D02*
X2353D01*
X2158Y3160D02*
X2253D01*
X2847Y2440D02*
X2892D01*
X2829Y2457D02*
X2847Y2440D01*
X2796Y2457D02*
X2829D01*
X2790Y2464D02*
X2796Y2457D01*
X2790Y2464D02*
Y2464D01*
X2892Y2440D02*
X2894Y2441D01*
X1818Y1840D02*
X1820D01*
X1787Y1871D02*
X1818Y1840D01*
X1740Y1871D02*
X1787D01*
X1820Y1899D02*
X1821D01*
X1834Y1912*
Y1914*
X1909Y1988*
Y2020*
X1911*
X1920Y2011*
Y2000D02*
Y2011D01*
X1909Y2020D02*
Y2080D01*
X1854Y2135D02*
X1909Y2080D01*
X1810Y2135D02*
X1854D01*
X1828Y2057D02*
X1830D01*
X1810Y2039D02*
X1828Y2057D01*
X1810Y2037D02*
Y2039D01*
X1920Y2000D02*
X2000Y1919D01*
X1766Y2037D02*
X1810D01*
X1754Y2050D02*
X1766Y2037D01*
X1750Y2050D02*
X1754D01*
X1850Y1800D02*
X1936Y1886D01*
X1756Y1800D02*
X1850D01*
X1673Y1883D02*
X1756Y1800D01*
X1868Y1788D02*
X1948Y1868D01*
X1751Y1788D02*
X1868D01*
X1665Y1874D02*
X1751Y1788D01*
X2298Y1700D02*
X2300Y1699D01*
X2298Y1700D02*
Y1774D01*
X2319Y2110D02*
X2320D01*
X2310Y2120D02*
X2319Y2110D01*
X2326Y2045D02*
Y2104D01*
X2320Y2110D02*
X2326Y2104D01*
X2550Y2020D02*
Y2780D01*
X2570Y2800*
X2508Y1978D02*
X2550Y2020D01*
X2656Y1937D02*
X2660Y1941D01*
X2676Y1923D02*
X2680Y1927D01*
X2660Y1941D02*
Y2730D01*
X2700Y1913D02*
Y2700D01*
X2712Y2712*
X2696Y1910D02*
X2700Y1913D01*
X2680Y1927D02*
Y2720D01*
X2660Y2730D02*
X2689Y2759D01*
X2680Y2720D02*
X2692Y2732D01*
X2722Y1896D02*
X2726Y1899D01*
X2772Y1882D02*
X2810Y1920D01*
X2726Y1899D02*
Y2603D01*
X2753Y2635D02*
X2753Y2635D01*
X2753Y2635D02*
X2753Y2635D01*
X2810Y1920D02*
Y2220D01*
X2726Y2603D02*
Y2606D01*
X2753Y2635D02*
X2753Y2635D01*
X2110Y1749D02*
X2111D01*
X2124Y1762*
Y1784*
X2181Y1841*
X2133Y1910D02*
X2161Y1937D01*
X2045Y1919D02*
X2054Y1910D01*
X2133*
X2138Y1898D02*
X2164Y1923D01*
X1930Y1930D02*
X1961Y1898D01*
X2138*
X2475Y1910D02*
X2696D01*
X2395Y2045D02*
Y2115D01*
X2400Y2120*
Y2120D02*
Y2120D01*
X1673Y1883D02*
Y2016D01*
X1617Y2085D02*
X1637Y2065D01*
Y2052D02*
Y2065D01*
Y2052D02*
X1673Y2016D01*
X1617Y2085D02*
Y2164D01*
X1555Y1838D02*
X1578Y1861D01*
X1555Y1775D02*
Y1838D01*
X1578Y1861D02*
D01*
X1584Y1867*
Y1937*
X1579Y1942D02*
X1584Y1937D01*
X1579Y1942D02*
Y2919D01*
X3400Y2323D02*
X3506D01*
X3290Y2230D02*
Y2283D01*
X2271Y1752D02*
Y1774D01*
X2260Y1570D02*
Y1741D01*
Y1570D02*
X2543Y1286D01*
X2260Y1741D02*
X2271Y1752D01*
X2350Y1560D02*
Y1720D01*
X2367Y1737D02*
Y1774D01*
X2350Y1720D02*
X2367Y1737D01*
X2000Y1919D02*
X2045D01*
X1936Y1886D02*
X2173D01*
X2182Y1896*
X2161Y1937D02*
X2204D01*
X2182Y1896D02*
X2204D01*
X1159Y2839D02*
X1233D01*
X1474Y3080D02*
Y3329D01*
X1233Y2839D02*
X1474Y3080D01*
X1120Y2801D02*
X1159Y2839D01*
X1664Y3719D02*
X1675Y3730D01*
X1548Y3579D02*
X1664Y3695D01*
Y3719*
X1090Y2801D02*
X1120D01*
X1079Y2789D02*
X1090Y2801D01*
X1540Y2180D02*
Y2967D01*
X1630Y2422D02*
Y2881D01*
X1620Y2412D02*
X1630Y2422D01*
X1620Y2410D02*
Y2412D01*
X1330Y2580D02*
X1390Y2640D01*
X1330Y2140D02*
Y2580D01*
X2276Y2676D02*
X2277Y2676D01*
Y2592D02*
Y2676D01*
Y2515D02*
X2290Y2501D01*
X2378*
X2089Y2595D02*
Y2697D01*
X2090Y2698*
Y2470D02*
Y2517D01*
X2089Y2518D02*
X2090Y2517D01*
X1894Y2698D02*
X1894Y2698D01*
X1894Y2611D02*
Y2698D01*
Y2534D02*
X1894Y2534D01*
Y2465D02*
Y2534D01*
X2390Y1695D02*
Y1747D01*
X2408Y1981D02*
X2410Y1980D01*
Y1910D02*
Y1913D01*
X3157Y2942D02*
D01*
X2597D02*
X3157D01*
X3092Y1255D02*
X3095Y1253D01*
X2888Y2653D02*
X2918Y2682D01*
X2241Y1951D02*
X2270Y1980D01*
X2410Y1840D02*
X2424Y1854D01*
X2753Y2635D02*
X2753Y2635D01*
X3092Y1255D02*
X3095Y1253D01*
X1611Y2170D02*
X1617Y2164D01*
X3660Y2830D02*
X3739D01*
X3470Y1840D02*
Y1910D01*
Y1840D02*
X3790Y1520D01*
X3020Y1910D02*
X3280D01*
X3790Y1260D02*
Y1520D01*
X3567Y1037D02*
X3790Y1260D01*
X3247Y1037D02*
X3567D01*
X3739Y2830D02*
X3860Y2710D01*
X3751Y1837D02*
X3860Y1946D01*
Y2710*
X3542Y1837D02*
X3751D01*
X3470Y1910D02*
X3542Y1837D01*
X2920Y2009D02*
Y2310D01*
Y2009D02*
X3020Y1910D01*
X3530Y2300D02*
X3550D01*
X3506Y2323D02*
X3530Y2300D01*
X2502Y2847D02*
X2503Y2846D01*
X2502Y2847D02*
X2597Y2942D01*
X2503Y1999D02*
Y2846D01*
X2475Y1978D02*
X2508D01*
X2497Y1992D02*
X2503Y1999D01*
X2570Y2800D02*
X2866D01*
X2475Y1923D02*
X2676D01*
X2082Y2261D02*
X2086Y2257D01*
X2095Y2183D02*
X2204Y2074D01*
X2086Y2183D02*
X2095D01*
X2204Y2020D02*
Y2074D01*
X2965Y1190D02*
X3029D01*
X3074Y1235*
Y1257*
X2550Y1780D02*
X2660D01*
X2706Y1800D02*
X3072Y1433D01*
X2560Y1800D02*
X2706D01*
X2532Y1827D02*
X2560Y1800D01*
X2660Y1780D02*
X3027Y1412D01*
X2516Y1813D02*
X2550Y1780D01*
X2548Y1841D02*
X2576Y1813D01*
X3306*
X3540Y1580*
X2564Y1850D02*
X2605D01*
X2606Y1850*
X2475Y1841D02*
X2548D01*
X2390Y1683D02*
Y1685D01*
X2110Y1950D02*
X2135D01*
X2150Y1965*
X2204*
X2566D02*
X2571Y1970D01*
X2475Y1965D02*
X2566D01*
X2243Y2045D02*
Y2203D01*
X2290Y2250D02*
Y2304D01*
X2340Y2282D02*
Y2330D01*
X2267Y2093D02*
Y2193D01*
X2280Y2185D02*
X2350Y2256D01*
X2256Y2088D02*
Y2198D01*
X2243Y2203D02*
X2290Y2250D01*
X2256Y2198D02*
X2340Y2282D01*
X2280Y2150D02*
Y2185D01*
X2380Y2305D02*
Y2310D01*
X2267Y2193D02*
X2380Y2305D01*
X2350Y2256D02*
X2386D01*
X2470Y2125D02*
Y2195D01*
X2428Y2083D02*
X2470Y2125D01*
X2424Y2195D02*
X2470D01*
X2402Y2173D02*
X2424Y2195D01*
X2400Y2173D02*
X2402D01*
X2408Y2083D02*
X2428D01*
X2475Y1225D02*
X3045D01*
X3056Y1236*
X2229Y1470D02*
X2475Y1225D01*
X3056Y1236D02*
Y1258D01*
X2670Y1196D02*
X2706Y1160D01*
X3040D02*
X3095Y1215D01*
X2706Y1160D02*
X3040D01*
X3095Y1215D02*
Y1253D01*
X3092Y1255D02*
X3095Y1258D01*
X2917Y2682D02*
X2918D01*
X2915Y2685D02*
X2917Y2682D01*
X2636Y1523D02*
X2636D01*
X2622Y1537D02*
X2636Y1523D01*
X2617Y1537D02*
X2622D01*
X2450Y1744D02*
X2830Y1364D01*
X3017*
X2450Y1744D02*
Y1774D01*
X2636Y1523D02*
X2814Y1345D01*
X995Y3343D02*
X1076Y3425D01*
X2436Y1658D02*
X2769Y1325D01*
X2436Y1658D02*
Y1774D01*
X2769Y1325D02*
X3028D01*
X3157Y2942D02*
X3190Y2910D01*
X3038Y2714D02*
X3190Y2865D01*
Y2910*
X2997Y2714D02*
X3038D01*
X1455Y1905D02*
Y2027D01*
X1179Y1989D02*
X1330Y2140D01*
X2800Y2350D02*
Y2354D01*
X2790Y2364D02*
Y2426D01*
Y2364D02*
X2800Y2354D01*
X1700Y2420D02*
X2141Y1978D01*
X1690Y2477D02*
Y2480D01*
Y2477D02*
X1700Y2467D01*
Y2420D02*
Y2467D01*
X1730Y2567D02*
Y2570D01*
X1740Y2410D02*
X2157Y1992D01*
X1730Y2567D02*
X1740Y2557D01*
Y2410D02*
Y2557D01*
X1770Y2637D02*
Y2640D01*
Y2637D02*
X1780Y2627D01*
Y2400D02*
Y2627D01*
Y2400D02*
X2173Y2006D01*
X2408Y1981D02*
Y2045D01*
X2312Y2007D02*
Y2045D01*
Y2007D02*
X2340Y1980D01*
X2447Y1951D02*
X2475D01*
X2410Y1913D02*
X2447Y1951D01*
X2424Y1854D02*
X2475D01*
X2326Y1826D02*
X2340Y1840D01*
X2326Y1774D02*
Y1826D01*
X2350Y1560D02*
X2389Y1520D01*
X2409D02*
X2410Y1520D01*
X2389Y1520D02*
X2409D01*
X2669Y1350D02*
Y1400D01*
X2422Y1647D02*
Y1760D01*
Y1647D02*
X2669Y1400D01*
Y1350D02*
X2670Y1350D01*
X2312Y1774D02*
X2326D01*
X2257D02*
Y1827D01*
X2270Y1840*
X2204Y1827D02*
X2257D01*
X2204Y1951D02*
X2241D01*
X2164Y1923D02*
X2204D01*
Y1910D02*
X2270D01*
X2460Y1420D02*
X2574Y1305D01*
X2543Y1286D02*
X3021D01*
X2574Y1305D02*
X3028D01*
X3021Y1286D02*
X3023Y1284D01*
X2460Y1420D02*
Y1470D01*
X2229Y1470D02*
Y1763D01*
X1810Y2400D02*
Y2720D01*
X1079Y2089D02*
X1090Y2101D01*
X2173Y2006D02*
X2204D01*
X1810Y2400D02*
X2189Y2020D01*
X2204*
X2157Y1992D02*
X2204D01*
X2141Y1978D02*
X2204D01*
X2417Y3431D02*
Y3438D01*
X2419Y3440*
X1540Y2180D02*
D01*
X1442D02*
X1540D01*
X2386Y3440D02*
X2399D01*
X1455Y1905D02*
X1457Y1902D01*
X2378Y3460D02*
X2380D01*
X2450Y3308D02*
X2450Y3308D01*
X2450Y3250D02*
Y3308D01*
X2450Y3308D02*
Y3331D01*
X2430D02*
X2450D01*
X3395Y1864D02*
X3725Y1535D01*
Y1327D02*
Y1535D01*
X3395Y1864D02*
Y2057D01*
X3414Y2076*
X3830Y2246D02*
Y2650D01*
X3661Y2078D02*
X3830Y2246D01*
X3728Y2751D02*
X3830Y2650D01*
X2090Y2470D02*
X2130Y2430D01*
X1894Y2465D02*
X1960Y2400D01*
X2360*
X2370Y2390*
Y2360D02*
Y2390D01*
X2340Y2330D02*
X2370Y2360D01*
X2271Y2045D02*
Y2090D01*
X2256Y2088D02*
X2257Y2087D01*
Y2045D02*
Y2087D01*
X2267Y2093D02*
X2271Y2090D01*
X2290Y2304D02*
X2300Y2314D01*
Y2320*
X2279Y2098D02*
Y2150D01*
Y2098D02*
X2298Y2079D01*
X2279Y2150D02*
X2280Y2150D01*
X2229Y2045D02*
Y2243D01*
X2240Y2253D02*
Y2260D01*
X2229Y2243D02*
X2240Y2253D01*
X3346Y2751D02*
X3728D01*
X3661Y2076D02*
Y2078D01*
X3414Y2076D02*
X3661D01*
X2386Y2256D02*
X2440Y2310D01*
Y2380*
X2353Y2045D02*
Y2183D01*
X2470Y2300D02*
Y2410D01*
X2353Y2183D02*
X2470Y2300D01*
X1457Y1775D02*
X1555D01*
X1457Y1902D02*
X1545D01*
X1948Y1868D02*
X2204D01*
X1625Y1896D02*
X1647Y1874D01*
X1665*
X2100Y1810D02*
X2144Y1854D01*
X2204*
X2167Y1697D02*
Y1799D01*
X2180Y1813*
X2190*
X2181Y1841D02*
X2204D01*
X1801Y1610D02*
X2080D01*
X2167Y1697*
X1635Y1769D02*
X1657Y1748D01*
X1663*
X1801Y1610*
X1635Y1769D02*
Y1775D01*
X2750Y2495D02*
X2850Y2595D01*
X2760Y2260D02*
Y2265D01*
X2750Y2275D02*
Y2495D01*
Y2275D02*
X2760Y2265D01*
X2790Y2580D02*
X2801D01*
X2770Y2560D02*
X2790Y2580D01*
X2780Y2620D02*
X2803Y2643D01*
X2813Y2653*
X2753Y2635D02*
X2753Y2635D01*
X2726Y2606D02*
X2753Y2635D01*
X2753Y2635D02*
X2790Y2670D01*
X2838*
X2841Y2672*
X2740Y2680D02*
X2743D01*
X2756Y2692*
X2712Y2712D02*
X2841D01*
X2756Y2692D02*
X2841D01*
X2692Y2732D02*
X2841D01*
X2475Y1937D02*
X2656D01*
X2801Y2580D02*
X2827Y2607D01*
Y2630*
X2130Y2430D02*
X2390D01*
X2440Y2380*
X2298Y2045D02*
Y2079D01*
X2378Y2501D02*
X2470Y2410D01*
X2850Y2595D02*
X2866D01*
X2869Y2598*
Y2606*
X2243Y2045D02*
D01*
X2813Y2653D02*
X2841D01*
X2475Y1896D02*
X2722D01*
X2830Y2633D02*
X2841D01*
X2827Y2630D02*
X2830Y2633D01*
X2856Y2548D02*
X2861Y2552D01*
X2873*
X2905Y2584*
X2689Y2759D02*
X2869D01*
X2995Y2712D02*
X2997Y2714D01*
X2475Y1992D02*
X2497D01*
X2475D02*
D01*
X2866Y2800D02*
X2885Y2780D01*
Y2770D02*
Y2780D01*
X2610Y1760D02*
X2985Y1384D01*
X2475Y1813D02*
X2516D01*
X2475Y1882D02*
X2772D01*
X2475Y1827D02*
X2532D01*
X3027Y1412D02*
X3056D01*
X2540Y1760D02*
X2610D01*
X2985Y1384D02*
X3028D01*
X2500Y1799D02*
X2540Y1760D01*
X2905Y2584D02*
Y2603D01*
X2908Y2606*
X3260Y2200D02*
X3290Y2230D01*
X3228Y2200D02*
X3260D01*
X2243Y1526D02*
Y1770D01*
Y1526D02*
X2360Y1410D01*
X3017Y1345D02*
X3020Y1342D01*
X2814Y1345D02*
X3017D01*
X2390Y1747D02*
X2395Y1752D01*
Y1770*
X2422Y1774D02*
D01*
X2475Y1799D02*
X2500D01*
X3540Y1470D02*
Y1580D01*
X3434Y1364D02*
X3540Y1470D01*
X3072Y1415D02*
Y1433D01*
Y1415D02*
X3075Y1412D01*
X3182Y1364D02*
X3434D01*
X2436Y1774D02*
D01*
X2475Y1813D02*
D01*
X2546Y1868D02*
X2564Y1850D01*
X2475Y1868D02*
X2546D01*
X2408Y2045D02*
Y2083D01*
X2385Y1690D02*
X2390Y1685D01*
X3035Y2197D02*
Y2279D01*
Y2197D02*
X3038Y2194D01*
X2888Y2606D02*
Y2653D01*
X3157Y2194D02*
X3163Y2200D01*
X3038Y2194D02*
X3157D01*
X2946Y2495D02*
X2947Y2497D01*
X2940Y2489D02*
X2946Y2495D01*
X2940Y2436D02*
Y2489D01*
X2920Y2358D02*
Y2417D01*
X2940Y2436*
X3050Y2279D02*
X3054Y2282D01*
X3035Y2279D02*
X3050D01*
X3054Y2282D02*
Y2358D01*
X3002Y2279D02*
Y2355D01*
X2999Y2358D02*
X3002Y2355D01*
X2999Y2358D02*
Y2495D01*
X2894Y2535D02*
X2928Y2569D01*
X2894Y2441D02*
Y2535D01*
X2928Y2569D02*
Y2606D01*
X2947Y2497D02*
Y2606D01*
X2967Y2597D02*
X2970Y2594D01*
X2999Y2495D02*
Y2590D01*
X2967Y2597D02*
Y2606D01*
X2970Y2594D02*
X2995D01*
X2999Y2590*
X2995Y2672D02*
X3042D01*
X3148Y2749D02*
X3150Y2751D01*
X3118Y2749D02*
X3148D01*
X3042Y2672D02*
X3118Y2749D01*
X3215Y2751D02*
X3295D01*
X2908Y2853D02*
X2947Y2813D01*
X2908Y2853D02*
Y2869D01*
X2947Y2759D02*
Y2813D01*
G54D120*
X1855Y240D02*
X1856Y240D01*
X1770Y240D02*
X1855D01*
X1679Y272D02*
X1737D01*
X1770Y240*
X1679Y347D02*
X1825D01*
X1848Y370*
X1860*
X640Y3750D02*
X899D01*
G54D121*
X1380Y305D02*
X1467D01*
X1472Y310*
G54D122*
X3650Y3480D02*
X3859D01*
X3860Y3480*
X3562D02*
X3647D01*
X3648Y3480*
X3650*
G54D123*
X3494Y3480D02*
X3500Y3474D01*
X3400Y3444D02*
Y3445D01*
X3402Y3448*
X3403*
X3435Y3480*
X3494*
X3496Y3479D02*
X3497Y3480D01*
X3500Y3378D02*
Y3474D01*
G54D124*
X3310Y3380D02*
X3366D01*
X3397Y3414D02*
X3400Y3416D01*
X3397Y3411D02*
Y3414D01*
X3366Y3380D02*
X3397Y3411D01*
X3655Y3447D02*
X3700Y3402D01*
Y3370D02*
Y3402D01*
X3214Y3425D02*
X3228Y3411D01*
X3214Y3425D02*
Y3460D01*
X3228Y3320D02*
Y3411D01*
X2999Y3460D02*
X3180D01*
X3171Y3441D02*
X3180Y3449D01*
X3171Y3320D02*
Y3441D01*
X3181Y3456D02*
Y3457D01*
X3180Y3454D02*
X3181Y3456D01*
X3184Y3460D02*
X3185D01*
X3181Y3457D02*
X3184Y3460D01*
X3180Y3449D02*
Y3454D01*
X3500Y3312D02*
X3500Y3311D01*
Y3220D02*
Y3311D01*
X3244Y3312D02*
X3500D01*
X3237Y3320D02*
X3244Y3312D01*
X2998Y3460D02*
X2999Y3460D01*
X2479Y3460D02*
X2998D01*
X3858Y3478D02*
X3860Y3480D01*
X3554Y3488D02*
X3554Y3488D01*
X3560Y3220D02*
X3660D01*
X3700Y3370D02*
X3850D01*
X3852Y3368*
X3700Y3590D02*
X3850D01*
X3852Y3591*
G54D125*
X1472Y310D02*
X1580D01*
G54D126*
X3700Y330D02*
X3810D01*
X2851Y741D02*
X2970D01*
X2850Y740D02*
X2851Y741D01*
X2970D02*
X2972Y742D01*
X3346Y396D02*
X3413D01*
X3460Y350*
X3422Y482D02*
X3430Y490D01*
X3346Y482D02*
X3422D01*
X3612Y599D02*
X3659D01*
X3710Y650*
X3513Y540D02*
X3609D01*
X3610Y540*
X3513Y466D02*
Y536D01*
X3480Y600D02*
X3510D01*
X3449Y569D02*
X3480Y600D01*
X3346Y569D02*
X3449D01*
X3836Y436D02*
X3840Y440D01*
X3513Y436D02*
X3836D01*
X3346Y439D02*
X3509D01*
G54D127*
X157Y3779D03*
X3779D03*
Y157D03*
X157D03*
G54D128*
X1141Y998D03*
X236D03*
Y3281D03*
X1141D03*
G54D129*
X879Y1189D03*
X979Y1289D03*
X1179Y1189D03*
X1079D03*
X1179Y1289D03*
X1079D03*
X1179Y1389D03*
X1079D03*
X1179Y1489D03*
X1079D03*
X1179Y1589D03*
X1079D03*
X1179Y1689D03*
X1079D03*
X1179Y1789D03*
X1079D03*
X1179Y1889D03*
X1079D03*
X1179Y1989D03*
X1079D03*
X1179Y2089D03*
X1079D03*
X1179Y2189D03*
X1079D03*
X1179Y2289D03*
X1079D03*
X1179Y2389D03*
X1079D03*
X1179Y2489D03*
X1079D03*
X1179Y2589D03*
X1079D03*
X1179Y2689D03*
X1079D03*
X1179Y2789D03*
X1079D03*
X1179Y2889D03*
X1079D03*
X1179Y2989D03*
X1079D03*
X1179Y3089D03*
G54D130*
X879Y1289D03*
X979Y1189D03*
X1079Y3089D03*
G54D131*
X1570Y660D03*
X600Y260D03*
G54D132*
X1470Y660D03*
X1370D03*
X500Y260D03*
X400D03*
G54D133*
X2320Y3300D03*
X1380Y305D03*
X965Y3705D03*
X960Y3820D03*
X430Y3610D03*
X470Y3750D03*
X380D03*
X390Y3670D03*
X468Y3675D03*
X380Y3840D03*
X470D03*
X1750Y2280D03*
X2300Y1699D03*
X2310Y2120D03*
Y2170D03*
X2615Y2045D03*
X2400Y2120D03*
X1470Y387D03*
X1990Y1990D03*
X550Y3840D03*
X2710Y3330D03*
X1510Y3280D03*
X1520Y3510D03*
X2280Y610D03*
X2190D03*
X2292Y521D03*
X2190Y530D03*
X2200Y430D03*
X2310D03*
X2220Y340D03*
X2270Y680D03*
X2180D03*
X2100D03*
X2020D03*
X1920D03*
X1830D03*
X1510Y2030D03*
X1900Y1530D03*
X1970D03*
X1750Y2000D03*
X2810Y2280D03*
X2760Y2200D03*
X3430Y1950D03*
X3280Y1970D03*
X2570Y1580D03*
X2610Y1170D03*
Y1350D03*
X2530Y3620D03*
X1970Y3440D03*
X2060Y3220D03*
X1820Y3400D03*
X1710Y3290D03*
X1780Y2930D03*
X3600Y2700D03*
X2250Y2310D03*
X2530Y1470D03*
X2410Y1360D03*
X2840Y870D03*
X2910Y1030D03*
X700Y2330D03*
X1370Y2700D03*
X1680Y2390D03*
X1670Y2530D03*
X1680Y2610D03*
X1720Y2680D03*
X1760Y2760D03*
X1548Y3579D03*
X1474Y3329D03*
X2170Y810D03*
X3005Y3040D03*
X2082Y2314D03*
X2735Y1845D03*
X2606Y1850D03*
X2390Y1683D03*
X2571Y1970D03*
X2470Y2195D03*
X2965Y1190D03*
X2670Y1196D03*
X2915Y2685D03*
X3105Y1335D03*
X1340Y1905D03*
X1710Y2155D03*
X1745Y1930D03*
X2020Y1750D03*
X2080Y1135D03*
X1930Y1130D03*
X1820Y1125D03*
X2110Y1950D03*
X2617Y1537D03*
X1424Y3565D03*
X1820Y3535D03*
X2115Y3570D03*
X1140Y3715D03*
X1046Y3700D03*
Y3825D03*
X1140Y3820D03*
X2390Y1580D03*
X2310D03*
X2865Y3050D03*
X2745Y3055D03*
X2625D03*
X2510Y3060D03*
X1750Y2050D03*
X1580Y210D03*
X1600Y1190D03*
X1525Y1100D03*
Y1190D03*
X582Y3679D03*
X590Y3530D03*
X3285Y1160D03*
X3580Y2000D03*
X3120Y2653D03*
X2730Y2835D03*
X2420Y3620D03*
X2590D03*
X2600Y3550D03*
X1065Y3495D03*
X985D03*
X3120Y2890D03*
X2770D03*
X1400Y2270D03*
X1455Y2027D03*
X1940Y1670D03*
X890Y460D03*
X1080Y450D03*
X2590Y250D03*
Y350D03*
Y130D03*
X2480Y350D03*
X1500Y910D03*
Y990D03*
X1930Y910D03*
X1600D03*
X2640Y3250D03*
X2740D03*
X2860Y3270D03*
X3000Y3320D03*
X1990Y3070D03*
X1900Y2840D03*
X2090Y2870D03*
X2280Y2830D03*
X3040Y2050D03*
X3220Y2400D03*
X3280Y2650D03*
X2800Y2350D03*
X2810Y2220D03*
X740Y2380D03*
X2850Y1030D03*
X2840Y930D03*
X2410Y1520D03*
X1930Y1930D03*
X3470Y2190D03*
X3680Y2290D03*
X3570Y2210D03*
X3660Y1880D03*
X3790Y2000D03*
Y2080D03*
X2070Y3470D03*
X1830Y2960D03*
X3750Y2870D03*
X1390Y2640D03*
X1810Y2720D03*
X1770Y2640D03*
X1730Y2570D03*
X1690Y2480D03*
X3540Y2700D03*
X1620Y2410D03*
X1710Y3230D03*
X2050Y3160D03*
X1780Y3360D03*
X2650Y3330D03*
X3310Y3380D03*
X3660Y3220D03*
X3700Y3590D03*
Y3370D03*
X3852Y3368D03*
Y3591D03*
X2450Y3250D03*
X2430Y3489D03*
X3280Y1910D03*
X3470D03*
X2380Y2310D03*
X2300Y2320D03*
X2100Y1810D03*
X2770Y2560D03*
X2740Y2680D03*
X2780Y2620D03*
X2856Y2548D03*
X2240Y2260D03*
X2760D03*
X3380Y1160D03*
X2410Y1840D03*
X2340D03*
X2410Y1910D03*
X2340D03*
X2270Y1840D03*
Y1910D03*
X2340Y1980D03*
X2410D03*
X2270D03*
X2670Y1350D03*
X2360Y1410D03*
X2460Y1470D03*
X2850Y450D03*
Y520D03*
G54D134*
X3830Y555D03*
X1580Y430D03*
X3830Y320D03*
X3030Y990D03*
X3010Y1580D03*
X3090Y1650D03*
X3470Y1540D03*
X2850Y740D03*
X3460Y350D03*
X3440Y490D03*
X3720Y650D03*
X3700Y330D03*
Y550D03*
G54D135*
X3240Y1450D03*
M02*