%FSLAX23Y23*%
%MOIN*%
%SFA1B1*%

%IPPOS*%
%AMD33*
4,1,8,0.002600,0.062600,-0.002600,0.062600,-0.019800,0.045400,-0.019800,-0.045400,-0.002600,-0.062600,0.002600,-0.062600,0.019800,-0.045400,0.019800,0.045400,0.002600,0.062600,0.0*
1,1,0.034400,0.002600,0.045400*
1,1,0.034400,-0.002600,0.045400*
1,1,0.034400,-0.002600,-0.045400*
1,1,0.034400,0.002600,-0.045400*
%
%AMD34*
4,1,8,0.002600,0.017200,-0.002600,0.017200,-0.019800,0.000000,-0.019800,0.000000,-0.002600,-0.017200,0.002600,-0.017200,0.019800,0.000000,0.019800,0.000000,0.002600,0.017200,0.0*
1,1,0.034340,0.002600,0.000000*
1,1,0.034340,-0.002600,0.000000*
1,1,0.034340,-0.002600,0.000000*
1,1,0.034340,0.002600,0.000000*
%
%AMD48*
4,1,8,-0.019700,0.009800,-0.019700,-0.009800,-0.017700,-0.011800,0.017700,-0.011800,0.019700,-0.009800,0.019700,0.009800,0.017700,0.011800,-0.017700,0.011800,-0.019700,0.009800,0.0*
1,1,0.004020,-0.017700,0.009800*
1,1,0.004020,-0.017700,-0.009800*
1,1,0.004020,0.017700,-0.009800*
1,1,0.004020,0.017700,0.009800*
%
%ADD20C,0.063120*%
%ADD21R,0.020290X0.018600*%
%ADD22R,0.018600X0.020290*%
%ADD23R,0.039850X0.045600*%
%ADD24R,0.061270X0.057270*%
%ADD25R,0.045600X0.039850*%
%ADD26R,0.053150X0.041340*%
%ADD27R,0.057270X0.061270*%
%ADD28R,0.025590X0.027560*%
%ADD29R,0.028160X0.026480*%
%ADD30R,0.041340X0.051180*%
%ADD31R,0.053150X0.061020*%
%ADD32R,0.061020X0.053150*%
G04~CAMADD=33~8~0.0~0.0~395.4~1252.8~172.0~0.0~15~0.0~0.0~0.0~0.0~0~0.0~0.0~0.0~0.0~0~0.0~0.0~0.0~0.0~395.4~1252.8*
%ADD33D33*%
G04~CAMADD=34~8~0.0~0.0~395.4~343.4~171.7~0.0~15~0.0~0.0~0.0~0.0~0~0.0~0.0~0.0~0.0~0~0.0~0.0~0.0~0.0~395.4~343.4*
%ADD34D34*%
%ADD35R,0.039540X0.034340*%
%ADD36R,0.125980X0.059840*%
%ADD37R,0.016230X0.024100*%
%ADD38R,0.009840X0.014170*%
%ADD39R,0.035430X0.031500*%
%ADD40R,0.031500X0.035430*%
%ADD41R,0.031500X0.031500*%
%ADD42R,0.035430X0.025590*%
%ADD43R,0.029530X0.033470*%
%ADD44R,0.045460X0.053630*%
%ADD45R,0.053630X0.045460*%
%ADD46R,0.025590X0.013780*%
%ADD47R,0.012290X0.020160*%
G04~CAMADD=48~8~0.0~0.0~236.2~393.7~20.1~0.0~15~0.0~0.0~0.0~0.0~0~0.0~0.0~0.0~0.0~0~0.0~0.0~0.0~90.0~394.0~237.0*
%ADD48D48*%
%ADD49R,0.037720X0.035910*%
%ADD50R,0.049520X0.039850*%
%ADD51R,0.039850X0.049520*%
%ADD52R,0.059240X0.061270*%
%ADD53R,0.061270X0.059240*%
%ADD54R,0.029530X0.031500*%
%ADD55R,0.029530X0.035430*%
%ADD56R,0.039850X0.045620*%
%ADD57R,0.045620X0.039850*%
%ADD58R,0.041340X0.037400*%
%ADD59R,0.035430X0.029530*%
%ADD60R,0.039370X0.041340*%
%ADD61R,0.220870X0.220870*%
%ADD62R,0.005910X0.033470*%
%ADD63R,0.033470X0.005910*%
%ADD64R,0.045280X0.022440*%
%ADD65R,0.022440X0.045280*%
%ADD66R,0.047240X0.047240*%
%ADD67R,0.011810X0.014760*%
%ADD68R,0.014000X0.010000*%
%ADD69R,0.010000X0.014000*%
%ADD70R,0.019000X0.019000*%
%ADD71R,0.014760X0.011810*%
%ADD72R,0.070870X0.031500*%
%ADD73R,0.013780X0.025590*%
%ADD74R,0.165350X0.053150*%
%ADD75R,0.141730X0.050000*%
%ADD76R,0.023620X0.057090*%
%ADD77R,0.031500X0.035430*%
%ADD78R,0.047240X0.047240*%
%ADD79R,0.033470X0.011810*%
%ADD80R,0.011810X0.033470*%
%ADD81R,0.104330X0.104330*%
%ADD82R,0.070870X0.027560*%
%ADD83R,0.047240X0.023620*%
%ADD90R,0.027560X0.023620*%
%ADD110C,0.061810*%
%ADD111R,0.061810X0.061810*%
%ADD127C,0.060000*%
%ADD128C,0.055120*%
%ADD129C,0.065550*%
%ADD130R,0.065550X0.065550*%
%ADD131R,0.061020X0.061020*%
%ADD132C,0.061020*%
%LNconcentrator_pcb-1*%
%LPD*%
G54D20*
X1860Y370D03*
X1856Y240D03*
G54D21*
X2085Y3070D03*
X2114D03*
X3214Y3460D03*
X3185D03*
G54D22*
X3400Y2285D03*
Y2314D03*
Y3415D03*
Y3444D03*
X3030Y1081D03*
Y1111D03*
X3247Y1046D03*
Y1076D03*
X2790Y2435D03*
Y2464D03*
X2920Y2319D03*
Y2349D03*
X3513Y466D03*
Y436D03*
G54D23*
X2270Y3167D03*
Y3232D03*
X3140Y2457D03*
Y2522D03*
X2860Y3182D03*
Y3117D03*
G54D24*
X3000Y3206D03*
Y3133D03*
X1470Y313D03*
Y386D03*
X1600Y1003D03*
Y1076D03*
X1920Y983D03*
Y1056D03*
X970Y533D03*
Y606D03*
X2020Y1683D03*
Y1756D03*
G54D25*
X3523Y1327D03*
X3588D03*
X3150Y2751D03*
X3215D03*
X497Y3600D03*
X562D03*
G54D26*
X1030Y3619D03*
Y3560D03*
G54D27*
X3376Y1250D03*
X3303D03*
X3196Y2650D03*
X3123D03*
G54D28*
X2998Y2495D03*
X3051D03*
G54D29*
X3110Y1120D03*
X3147D03*
X2892Y2440D03*
X2930D03*
X2121Y3160D03*
X2158D03*
G54D30*
X2378Y340D03*
X2321D03*
G54D31*
X2398Y220D03*
X2321D03*
X1228Y3640D03*
X1151D03*
X1557Y1775D03*
X1633D03*
X1547Y1902D03*
X1623D03*
X1541Y2180D03*
X1618D03*
G54D32*
X2080Y971D03*
Y1048D03*
X1894Y2611D03*
Y2534D03*
X2089Y2595D03*
Y2518D03*
X2277Y2592D03*
Y2515D03*
G54D33*
X899Y3750D03*
G54D34*
X640Y3659D03*
Y3750D03*
G54D35*
X640Y3840D03*
G54D36*
X610Y642D03*
Y397D03*
G54D37*
X2358Y3160D03*
X2401D03*
G54D38*
X3650Y3480D03*
Y3447D03*
G54D39*
X3090Y1569D03*
Y1510D03*
X3580Y1880D03*
Y1939D03*
X2840Y2889D03*
Y2830D03*
X2390Y1630D03*
Y1689D03*
X2300Y1640D03*
Y1699D03*
X2320Y2169D03*
Y2110D03*
X2110Y1690D03*
Y1749D03*
X1820Y1899D03*
Y1840D03*
X2400Y2179D03*
Y2120D03*
G54D40*
X2050Y1950D03*
X2109D03*
X2669Y1850D03*
X2610D03*
X2629Y1970D03*
X2570D03*
G54D41*
X1894Y2698D03*
Y2757D03*
X2276Y2685D03*
Y2750D03*
G54D42*
X1740Y1871D03*
Y1928D03*
X3513Y598D03*
Y541D03*
G54D43*
X3673Y1327D03*
X3725D03*
X3295Y2751D03*
X3346D03*
G54D44*
X1620Y2085D03*
X1689D03*
G54D45*
X1810Y2204D03*
Y2135D03*
X2086Y2185D03*
Y2254D03*
G54D46*
X2510Y3166D03*
Y3133D03*
X3290Y2316D03*
Y2283D03*
G54D47*
X2268Y3569D03*
X2228D03*
G54D48*
X1819Y1062D03*
Y987D03*
X1710D03*
Y1025D03*
Y1062D03*
G54D49*
X3224Y2200D03*
X3167D03*
G54D50*
X3368Y1544D03*
X3307D03*
G54D51*
X3038Y2900D03*
Y2839D03*
G54D52*
X1959Y3570D03*
X2030D03*
G54D53*
X2620Y3195D03*
Y3124D03*
G54D54*
X3294Y2446D03*
Y2505D03*
G54D55*
X3060Y2350D03*
X2999D03*
X3560Y3220D03*
X3499D03*
G54D56*
X3590Y2482D03*
Y2417D03*
G54D57*
X3562Y3480D03*
X3497D03*
X2252Y3470D03*
X2187D03*
X1395Y1775D03*
X1460D03*
X1395Y1902D03*
X1460D03*
X1380Y2180D03*
X1445D03*
G54D58*
X3038Y2189D03*
Y2132D03*
G54D59*
X3000Y3399D03*
Y3460D03*
G54D60*
X2740Y3120D03*
Y3179D03*
X3612Y599D03*
Y540D03*
G54D61*
X2340Y1910D03*
G54D62*
X2229Y2045D03*
X2243D03*
X2257D03*
X2271D03*
X2284D03*
X2298D03*
X2312D03*
X2326D03*
X2340D03*
X2353D03*
X2367D03*
X2381D03*
X2395D03*
X2408D03*
X2422D03*
X2436D03*
X2450D03*
Y1774D03*
X2436D03*
X2422D03*
X2408D03*
X2395D03*
X2381D03*
X2367D03*
X2353D03*
X2340D03*
X2326D03*
X2312D03*
X2298D03*
X2284D03*
X2271D03*
X2257D03*
X2243D03*
X2229D03*
G54D63*
X2475Y2020D03*
Y2006D03*
Y1992D03*
Y1978D03*
Y1965D03*
Y1951D03*
Y1937D03*
Y1923D03*
Y1910D03*
Y1896D03*
Y1882D03*
Y1868D03*
Y1854D03*
Y1841D03*
Y1827D03*
Y1813D03*
Y1799D03*
X2204D03*
Y1813D03*
Y1827D03*
Y1841D03*
Y1854D03*
Y1868D03*
Y1882D03*
Y1896D03*
Y1910D03*
Y1923D03*
Y1937D03*
Y1951D03*
Y1965D03*
Y1978D03*
Y1992D03*
Y2006D03*
Y2020D03*
G54D64*
X3500Y3378D03*
Y3321D03*
G54D65*
X3228Y3320D03*
X3171D03*
G54D66*
X2080Y891D03*
Y808D03*
X2090Y2781D03*
Y2698D03*
G54D67*
X2470Y3320D03*
X2450Y3331D03*
X2430D03*
Y3308D03*
X2450D03*
X3570Y2311D03*
X3589D03*
Y2288D03*
X3570D03*
X3550Y2300D03*
G54D68*
X2380Y3520D03*
Y3500D03*
Y3480D03*
Y3460D03*
X2479D03*
Y3480D03*
Y3500D03*
Y3520D03*
G54D69*
X2399Y3440D03*
X2419D03*
X2439D03*
X2459D03*
Y3539D03*
X2439D03*
X2419D03*
X2399D03*
G54D70*
X2405Y3514D03*
X2429D03*
X2453D03*
X2405Y3490D03*
X2429D03*
X2453D03*
X2405Y3466D03*
X2429D03*
X2453D03*
G54D71*
X3660Y2850D03*
Y2830D03*
X3637D03*
Y2850D03*
X3648Y2869D03*
G54D72*
X2972Y526D03*
X3346Y699D03*
Y656D03*
Y612D03*
Y569D03*
Y526D03*
Y482D03*
Y439D03*
X2972D03*
Y482D03*
Y569D03*
Y612D03*
Y656D03*
Y699D03*
G54D73*
X3035Y2279D03*
X3002D03*
G54D74*
X3852Y3368D03*
Y3591D03*
X3842Y328D03*
Y551D03*
G54D75*
X3860Y3480D03*
X3850Y440D03*
G54D76*
X2971Y2869D03*
X2908D03*
X3156Y1544D03*
X3219D03*
G54D77*
X3661Y2003D03*
Y2076D03*
X3718D03*
Y2003D03*
G54D78*
X1421Y3640D03*
X1338D03*
X2398Y130D03*
X2481D03*
G54D79*
X2995Y2633D03*
Y2653D03*
Y2672D03*
Y2692D03*
Y2712D03*
Y2732D03*
X2841D03*
Y2712D03*
Y2692D03*
Y2672D03*
Y2653D03*
Y2633D03*
X3182Y1286D03*
Y1305D03*
Y1325D03*
Y1345D03*
Y1364D03*
Y1384D03*
X3028D03*
Y1364D03*
Y1345D03*
Y1325D03*
Y1305D03*
Y1286D03*
G54D80*
X2967Y2759D03*
X2947D03*
X2928D03*
X2908D03*
X2888D03*
X2869D03*
Y2606D03*
X2888D03*
X2908D03*
X2928D03*
X2947D03*
X2967D03*
X3154Y1412D03*
X3134D03*
X3115D03*
X3095D03*
X3075D03*
X3056D03*
Y1258D03*
X3075D03*
X3095D03*
X3115D03*
X3134D03*
X3154D03*
G54D81*
X2918Y2682D03*
X3105Y1335D03*
G54D82*
X3346Y742D03*
Y396D03*
X2972D03*
Y742D03*
G54D83*
X1679Y347D03*
Y272D03*
X1580D03*
Y310D03*
Y347D03*
G54D90*
X1830Y2057D03*
Y1982D03*
X1909Y2020D03*
G54D110*
X3475Y3830D03*
X3375D03*
X3275D03*
X3175D03*
X3075D03*
X2975D03*
X2875D03*
X2775D03*
X2675D03*
X2575D03*
X2475D03*
X2375D03*
X2275D03*
X2175D03*
X2075D03*
X1975D03*
X1875D03*
X1775D03*
X1675D03*
X1575D03*
X3475Y3730D03*
X3375D03*
X3275D03*
X3175D03*
X3075D03*
X2975D03*
X2875D03*
X2775D03*
X2675D03*
X2575D03*
X2475D03*
X2375D03*
X2275D03*
X2175D03*
X2075D03*
X1975D03*
X1875D03*
X1775D03*
X1675D03*
G54D111*
X1575Y3730D03*
G54D127*
X157Y3779D03*
X3779D03*
Y157D03*
X157D03*
G54D128*
X1141Y998D03*
X236D03*
Y3281D03*
X1141D03*
G54D129*
X879Y1189D03*
X979Y1289D03*
X1179Y1189D03*
X1079D03*
X1179Y1289D03*
X1079D03*
X1179Y1389D03*
X1079D03*
X1179Y1489D03*
X1079D03*
X1179Y1589D03*
X1079D03*
X1179Y1689D03*
X1079D03*
X1179Y1789D03*
X1079D03*
X1179Y1889D03*
X1079D03*
X1179Y1989D03*
X1079D03*
X1179Y2089D03*
X1079D03*
X1179Y2189D03*
X1079D03*
X1179Y2289D03*
X1079D03*
X1179Y2389D03*
X1079D03*
X1179Y2489D03*
X1079D03*
X1179Y2589D03*
X1079D03*
X1179Y2689D03*
X1079D03*
X1179Y2789D03*
X1079D03*
X1179Y2889D03*
X1079D03*
X1179Y2989D03*
X1079D03*
X1179Y3089D03*
G54D130*
X879Y1289D03*
X979Y1189D03*
X1079Y3089D03*
G54D131*
X1570Y660D03*
X600Y260D03*
G54D132*
X1470Y660D03*
X1370D03*
X500Y260D03*
X400D03*
M02*