M48
;Layer_Color=9474304
;FILE_FORMAT=2:4
INCH,TZ
;TYPE=PLATED
T1F00S00C0.0118
T2F00S00C0.0150
T3F00S00C0.0157
T4F00S00C0.0402
T5F00S00C0.0437
;TYPE=NON_PLATED
T6F00S00C0.1102
T7F00S00C0.1339
%
T01
X8900Y4600
X10800Y4500
X13800Y3050
X14700Y3874
X15000Y9100
Y9900
X15250Y11000
Y11900
X16000
Y9100
X19300
Y11300
X18200Y11250
X20800Y11350
X21700Y8100
X21800Y6800
X21900Y6100
Y5300
X22000Y4300
X23100
X22924Y5215
X22800Y6100
X22700Y6800
X21000
X20200
X19200
X18300
X15800Y2100
X22200Y3400
X24800Y3500
X25900
Y2500
Y1300
X28500Y4500
Y5200
X28400Y8700
Y9300
X28500Y10300
X29100
X29650Y11900
X31050Y13350
X26700Y13500
X26100
Y11700
X26700Y11965
X26173Y15373
X25300Y14700
X24600
X24100Y15200
Y13600
X23600Y14100
X19700Y15300
X19000
X32850Y11600
X33800
X34300Y19500
X34700Y19100
X32800
Y19700
X35800Y20000
X36600Y18800
X37900Y20000
Y20800
X36800Y22900
X35700Y22100
X34700Y21900
X32200Y24000
X32800Y26500
X35400Y27000
X36000
X37500Y28700
X31200Y28900
X31202Y26533
X29150Y26850
X27400Y26800
X27800Y26200
X27700Y25600
X28566Y25482
X28000Y23500
X28100Y22800
Y22200
X27600Y22000
Y22600
X24700Y21950
X24000Y21200
X23100
Y21700
X23000Y23200
X22500Y23100
X22400Y22600
X23800Y23100
X20827Y23150
X17500Y22800
X17100Y21550
X17500Y20500
Y20000
X17450Y19300
X19300
X19900Y19900
X21100Y19500
X21000Y18100
X20200Y17500
X19400Y16700
X23000Y16995
X23900Y16836
Y15800
X23100
X25700
X26064Y18500
X27350Y18450
X25714Y19700
X26150Y20450
X24100Y19800
Y19100
Y18400
X23400
Y19100
X22700
Y18400
Y19800
X23400
X30400Y20500
X30050Y30400
X28650Y30500
X27450Y30550
X26250
X25100Y30600
X27700Y28900
X27300Y28350
X22800Y28300
X20900Y28700
X19000Y28400
X18300Y29600
X17800Y29300
X17600Y27600
X18100Y27200
X17700Y26400
X17200Y26800
X16800Y26100
X16700Y25300
X16900Y24800
X16800Y23900
X16200Y24100
X17300Y25700
X19900Y30700
X13700Y27000
X13900Y26400
X14000Y22700
X14551Y20270
X15100Y20300
X13400Y19050
X7000Y23300
X7400Y23800
X5900Y35300
X5826Y36800
X4685Y36750
X4700Y37500
X3800
X3900Y36700
X4300Y36100
X4700Y38400
X5500
X3800
X9600Y38200
X10465Y38250
X11400Y38200
Y37150
X10465Y37000
X9650Y37050
X9850Y34950
X10650
X14246Y35654
X15480Y35790
X15200Y35100
X14740Y33290
X15100Y32800
X17100Y32900
Y32300
X17800Y33600
X18200Y34000
Y35350
X19700Y34400
X20700Y34700
X21150Y35700
X24200Y36200
X25300
X25900
X26000Y35500
X24310Y34891
X24500Y32500
X23200Y33000
X20600Y32200
X20500Y31600
X26400Y32500
X26500Y33300
X27100
X27400Y32500
X28600Y32700
X30000Y33200
X33100Y33800
X37000Y33700
X38521Y33688
Y35912
X37000Y35900
X36600Y32200
T02
X32400Y14500
T03
X15800Y4300
X28500Y7400
X30300Y9900
X34400Y4900
X34600Y3500
X37000Y3300
X38300Y3200
Y5550
X37000Y5500
X37200Y6500
X34700Y15400
X30900Y16500
X30100Y15800
T04
X4000Y2600
X5000
X6000
X13700Y6600
X14700
X15700
X15750Y37300
Y38300
X16750
X17750
X18750
X19750
X20750
X21750
X22750
X23750
X24750
X25750
X26750
X27750
X28750
X29750
X30750
Y37300
X29750
X28750
X27750
X26750
X25750
X24750
X23750
X22750
X21750
X20750
X19750
X18750
X17750
X16750
X31750
Y38300
X32750
X33750
X34750
Y37300
X33750
X32750
T05
X8795Y11900
Y12900
X9795
Y11900
X10795
X11795
Y12900
X10795
Y13900
X11795
Y14900
X10795
Y15900
X11795
Y16900
X10795
Y17900
X11795
Y18900
X10795
Y19900
X11795
Y20900
X10795
Y21900
X11795
Y22900
X10795
Y23900
X11795
Y24900
X10795
Y25900
X11795
Y26900
X10795
Y27900
X11795
Y28900
X10795
Y29900
X11795
Y30900
X10795
T06
X2362Y9982
X11417
Y32817
X2362
T07
X1575Y1575
X37795
X1575Y37795
X37795
M30
