%FSLAX23Y23*%
%MOIN*%
%SFA1B1*%

%IPPOS*%
%ADD74R,0.165350X0.053150*%
%ADD110C,0.061810*%
%ADD111R,0.061810X0.061810*%
%ADD112C,0.137800*%
%ADD113C,0.114170*%
%ADD114C,0.047640*%
%ADD115C,0.044090*%
%ADD116C,0.015750*%
%ADD117C,0.019680*%
%ADD118C,0.018940*%
%LNconcentrator_pcb-1*%
%LPD*%
G54D74*
X3852Y3591D03*
Y3368D03*
X3842Y551D03*
Y328D03*
G54D110*
X3475Y3830D03*
X3375D03*
X3275D03*
X3175D03*
X3075D03*
X2975D03*
X2875D03*
X2775D03*
X2675D03*
X2575D03*
X2475D03*
X2375D03*
X2275D03*
X2175D03*
X2075D03*
X1975D03*
X1875D03*
X1775D03*
X1675D03*
X1575D03*
X3475Y3730D03*
X3375D03*
X3275D03*
X3175D03*
X3075D03*
X2975D03*
X2875D03*
X2775D03*
X2675D03*
X2575D03*
X2475D03*
X2375D03*
X2275D03*
X2175D03*
X2075D03*
X1975D03*
X1875D03*
X1775D03*
X1675D03*
G54D111*
X1575Y3730D03*
G54D112*
X157Y3779D03*
X3779D03*
Y157D03*
X157D03*
G54D113*
X1141Y998D03*
X236D03*
Y3281D03*
X1141D03*
G54D114*
X879Y1189D03*
Y1289D03*
X979D03*
Y1189D03*
X1179D03*
X1079D03*
X1179Y1289D03*
X1079D03*
X1179Y1389D03*
X1079D03*
X1179Y1489D03*
X1079D03*
X1179Y1589D03*
X1079D03*
X1179Y1689D03*
X1079D03*
X1179Y1789D03*
X1079D03*
X1179Y1889D03*
X1079D03*
X1179Y1989D03*
X1079D03*
X1179Y2089D03*
X1079D03*
X1179Y2189D03*
X1079D03*
X1179Y2289D03*
X1079D03*
X1179Y2389D03*
X1079D03*
X1179Y2489D03*
X1079D03*
X1179Y2589D03*
X1079D03*
X1179Y2689D03*
X1079D03*
X1179Y2789D03*
X1079D03*
X1179Y2889D03*
X1079D03*
X1179Y2989D03*
X1079D03*
X1179Y3089D03*
X1079D03*
G54D115*
X1570Y660D03*
X1470D03*
X1370D03*
X600Y260D03*
X500D03*
X400D03*
G54D116*
X2320Y3300D03*
X1380Y305D03*
X965Y3705D03*
X960Y3820D03*
X430Y3610D03*
X470Y3750D03*
X380D03*
X390Y3670D03*
X468Y3675D03*
X380Y3840D03*
X470D03*
X1750Y2280D03*
X2300Y1699D03*
X2310Y2120D03*
Y2170D03*
X2615Y2045D03*
X2400Y2120D03*
X1470Y387D03*
X1990Y1990D03*
X550Y3840D03*
X2710Y3330D03*
X1510Y3280D03*
X1520Y3510D03*
X2280Y610D03*
X2190D03*
X2292Y521D03*
X2190Y530D03*
X2200Y430D03*
X2310D03*
X2220Y340D03*
X2270Y680D03*
X2180D03*
X2100D03*
X2020D03*
X1920D03*
X1830D03*
X1510Y2030D03*
X1900Y1530D03*
X1970D03*
X1750Y2000D03*
X2810Y2280D03*
X2760Y2200D03*
X3430Y1950D03*
X3280Y1970D03*
X2570Y1580D03*
X2610Y1170D03*
Y1350D03*
X2530Y3620D03*
X1970Y3440D03*
X2060Y3220D03*
X1820Y3400D03*
X1710Y3290D03*
X1780Y2930D03*
X3600Y2700D03*
X2250Y2310D03*
X2530Y1470D03*
X2410Y1360D03*
X2840Y870D03*
X2910Y1030D03*
X700Y2330D03*
X1370Y2700D03*
X1680Y2390D03*
X1670Y2530D03*
X1680Y2610D03*
X1720Y2680D03*
X1760Y2760D03*
X1548Y3579D03*
X1474Y3329D03*
X2170Y810D03*
X3005Y3040D03*
X2082Y2314D03*
X2735Y1845D03*
X2606Y1850D03*
X2390Y1683D03*
X2571Y1970D03*
X2470Y2195D03*
X2965Y1190D03*
X2670Y1196D03*
X2915Y2685D03*
X3105Y1335D03*
X1340Y1905D03*
X1710Y2155D03*
X1745Y1930D03*
X2020Y1750D03*
X2080Y1135D03*
X1930Y1130D03*
X1820Y1125D03*
X2110Y1950D03*
X2617Y1537D03*
X1424Y3565D03*
X1820Y3535D03*
X2115Y3570D03*
X1140Y3715D03*
X1046Y3700D03*
Y3825D03*
X1140Y3820D03*
X2390Y1580D03*
X2310D03*
X2865Y3050D03*
X2745Y3055D03*
X2625D03*
X2510Y3060D03*
X1750Y2050D03*
X1580Y210D03*
X1600Y1190D03*
X1525Y1100D03*
Y1190D03*
X582Y3679D03*
X590Y3530D03*
X3285Y1160D03*
X3580Y2000D03*
X3120Y2653D03*
X2730Y2835D03*
X2420Y3620D03*
X2590D03*
X2600Y3550D03*
X1065Y3495D03*
X985D03*
X3120Y2890D03*
X2770D03*
X1400Y2270D03*
X1455Y2027D03*
X1940Y1670D03*
X890Y460D03*
X1080Y450D03*
X2590Y250D03*
Y350D03*
Y130D03*
X2480Y350D03*
X1500Y910D03*
Y990D03*
X1930Y910D03*
X1600D03*
X2640Y3250D03*
X2740D03*
X2860Y3270D03*
X3000Y3320D03*
X1990Y3070D03*
X1900Y2840D03*
X2090Y2870D03*
X2280Y2830D03*
X3040Y2050D03*
X3220Y2400D03*
X3280Y2650D03*
X2800Y2350D03*
X2810Y2220D03*
X740Y2380D03*
X2850Y1030D03*
X2840Y930D03*
X2410Y1520D03*
X1930Y1930D03*
X3470Y2190D03*
X3680Y2290D03*
X3570Y2210D03*
X3660Y1880D03*
X3790Y2000D03*
Y2080D03*
X2070Y3470D03*
X1830Y2960D03*
X3750Y2870D03*
X1390Y2640D03*
X1810Y2720D03*
X1770Y2640D03*
X1730Y2570D03*
X1690Y2480D03*
X3540Y2700D03*
X1620Y2410D03*
X1710Y3230D03*
X2050Y3160D03*
X1780Y3360D03*
X2650Y3330D03*
X3310Y3380D03*
X3660Y3220D03*
X3700Y3590D03*
Y3370D03*
X3852Y3368D03*
Y3591D03*
X2450Y3250D03*
X2430Y3489D03*
X3280Y1910D03*
X3470D03*
X2380Y2310D03*
X2300Y2320D03*
X2100Y1810D03*
X2770Y2560D03*
X2740Y2680D03*
X2780Y2620D03*
X2856Y2548D03*
X2240Y2260D03*
X2760D03*
X3380Y1160D03*
X2410Y1840D03*
X2340D03*
X2410Y1910D03*
X2340D03*
X2270Y1840D03*
Y1910D03*
X2340Y1980D03*
X2410D03*
X2270D03*
X2670Y1350D03*
X2360Y1410D03*
X2460Y1470D03*
X2850Y450D03*
Y520D03*
G54D117*
X3830Y555D03*
X1580Y430D03*
X3830Y320D03*
X3030Y990D03*
X3010Y1580D03*
X3090Y1650D03*
X3470Y1540D03*
X2850Y740D03*
X3460Y350D03*
X3440Y490D03*
X3720Y650D03*
X3700Y330D03*
Y550D03*
G54D118*
X3240Y1450D03*
M02*