%FSLAX23Y23*%
%MOIN*%
%SFA1B1*%

%IPPOS*%
%ADD17C,0.005000*%
%LNconcentrator_pcb-1*%
%LPD*%
G54D17*
X3454Y3830D02*
X3495D01*
X3475Y3809D02*
Y3850D01*
X3354Y3830D02*
X3395D01*
X3375Y3809D02*
Y3850D01*
X3254Y3830D02*
X3295D01*
X3275Y3809D02*
Y3850D01*
X3154Y3830D02*
X3195D01*
X3175Y3809D02*
Y3850D01*
X3054Y3830D02*
X3095D01*
X3075Y3809D02*
Y3850D01*
X2954Y3830D02*
X2995D01*
X2975Y3809D02*
Y3850D01*
X2854Y3830D02*
X2895D01*
X2875Y3809D02*
Y3850D01*
X2754Y3830D02*
X2795D01*
X2775Y3809D02*
Y3850D01*
X2654Y3830D02*
X2695D01*
X2675Y3809D02*
Y3850D01*
X2554Y3830D02*
X2595D01*
X2575Y3809D02*
Y3850D01*
X2454Y3830D02*
X2495D01*
X2475Y3809D02*
Y3850D01*
X2354Y3830D02*
X2395D01*
X2375Y3809D02*
Y3850D01*
X2254Y3830D02*
X2295D01*
X2275Y3809D02*
Y3850D01*
X2154Y3830D02*
X2195D01*
X2175Y3809D02*
Y3850D01*
X2054Y3830D02*
X2095D01*
X2075Y3809D02*
Y3850D01*
X1954Y3830D02*
X1995D01*
X1975Y3809D02*
Y3850D01*
X1854Y3830D02*
X1895D01*
X1875Y3809D02*
Y3850D01*
X1754Y3830D02*
X1795D01*
X1775Y3809D02*
Y3850D01*
X1654Y3830D02*
X1695D01*
X1675Y3809D02*
Y3850D01*
X1554Y3830D02*
X1595D01*
X1575Y3809D02*
Y3850D01*
X3454Y3730D02*
X3495D01*
X3475Y3709D02*
Y3750D01*
X3354Y3730D02*
X3395D01*
X3375Y3709D02*
Y3750D01*
X3254Y3730D02*
X3295D01*
X3275Y3709D02*
Y3750D01*
X3154Y3730D02*
X3195D01*
X3175Y3709D02*
Y3750D01*
X3054Y3730D02*
X3095D01*
X3075Y3709D02*
Y3750D01*
X2954Y3730D02*
X2995D01*
X2975Y3709D02*
Y3750D01*
X2854Y3730D02*
X2895D01*
X2875Y3709D02*
Y3750D01*
X2754Y3730D02*
X2795D01*
X2775Y3709D02*
Y3750D01*
X2654Y3730D02*
X2695D01*
X2675Y3709D02*
Y3750D01*
X2554Y3730D02*
X2595D01*
X2575Y3709D02*
Y3750D01*
X2454Y3730D02*
X2495D01*
X2475Y3709D02*
Y3750D01*
X2354Y3730D02*
X2395D01*
X2375Y3709D02*
Y3750D01*
X2254Y3730D02*
X2295D01*
X2275Y3709D02*
Y3750D01*
X2154Y3730D02*
X2195D01*
X2175Y3709D02*
Y3750D01*
X2054Y3730D02*
X2095D01*
X2075Y3709D02*
Y3750D01*
X1954Y3730D02*
X1995D01*
X1975Y3709D02*
Y3750D01*
X1854Y3730D02*
X1895D01*
X1875Y3709D02*
Y3750D01*
X1754Y3730D02*
X1795D01*
X1775Y3709D02*
Y3750D01*
X1654Y3730D02*
X1695D01*
X1675Y3709D02*
Y3750D01*
X1554Y3730D02*
X1595D01*
X1575Y3709D02*
Y3750D01*
X90Y3779D02*
X224D01*
X157Y3712D02*
Y3846D01*
X3712Y3779D02*
X3846D01*
X3779Y3712D02*
Y3846D01*
X3712Y157D02*
X3846D01*
X3779Y90D02*
Y224D01*
X90Y157D02*
X224D01*
X157Y90D02*
Y224D01*
X1086Y998D02*
X1196D01*
X1141Y943D02*
Y1053D01*
X181Y998D02*
X291D01*
X236Y943D02*
Y1053D01*
X181Y3281D02*
X291D01*
X236Y3226D02*
Y3336D01*
X1086Y3281D02*
X1196D01*
X1141Y3226D02*
Y3336D01*
X857Y1189D02*
X901D01*
X879Y1168D02*
Y1211D01*
X857Y1289D02*
X901D01*
X879Y1268D02*
Y1311D01*
X957Y1289D02*
X1001D01*
X979Y1268D02*
Y1311D01*
X957Y1189D02*
X1001D01*
X979Y1168D02*
Y1211D01*
X1157Y1189D02*
X1201D01*
X1179Y1168D02*
Y1211D01*
X1057Y1189D02*
X1101D01*
X1079Y1168D02*
Y1211D01*
X1157Y1289D02*
X1201D01*
X1179Y1268D02*
Y1311D01*
X1057Y1289D02*
X1101D01*
X1079Y1268D02*
Y1311D01*
X1157Y1389D02*
X1201D01*
X1179Y1368D02*
Y1411D01*
X1057Y1389D02*
X1101D01*
X1079Y1368D02*
Y1411D01*
X1157Y1489D02*
X1201D01*
X1179Y1468D02*
Y1511D01*
X1057Y1489D02*
X1101D01*
X1079Y1468D02*
Y1511D01*
X1157Y1589D02*
X1201D01*
X1179Y1568D02*
Y1611D01*
X1057Y1589D02*
X1101D01*
X1079Y1568D02*
Y1611D01*
X1157Y1689D02*
X1201D01*
X1179Y1668D02*
Y1711D01*
X1057Y1689D02*
X1101D01*
X1079Y1668D02*
Y1711D01*
X1157Y1789D02*
X1201D01*
X1179Y1768D02*
Y1811D01*
X1057Y1789D02*
X1101D01*
X1079Y1768D02*
Y1811D01*
X1157Y1889D02*
X1201D01*
X1179Y1868D02*
Y1911D01*
X1057Y1889D02*
X1101D01*
X1079Y1868D02*
Y1911D01*
X1157Y1989D02*
X1201D01*
X1179Y1968D02*
Y2011D01*
X1057Y1989D02*
X1101D01*
X1079Y1968D02*
Y2011D01*
X1157Y2089D02*
X1201D01*
X1179Y2068D02*
Y2111D01*
X1057Y2089D02*
X1101D01*
X1079Y2068D02*
Y2111D01*
X1157Y2189D02*
X1201D01*
X1179Y2168D02*
Y2211D01*
X1057Y2189D02*
X1101D01*
X1079Y2168D02*
Y2211D01*
X1157Y2289D02*
X1201D01*
X1179Y2268D02*
Y2311D01*
X1057Y2289D02*
X1101D01*
X1079Y2268D02*
Y2311D01*
X1157Y2389D02*
X1201D01*
X1179Y2368D02*
Y2411D01*
X1057Y2389D02*
X1101D01*
X1079Y2368D02*
Y2411D01*
X1157Y2489D02*
X1201D01*
X1179Y2468D02*
Y2511D01*
X1057Y2489D02*
X1101D01*
X1079Y2468D02*
Y2511D01*
X1157Y2589D02*
X1201D01*
X1179Y2568D02*
Y2611D01*
X1057Y2589D02*
X1101D01*
X1079Y2568D02*
Y2611D01*
X1157Y2689D02*
X1201D01*
X1179Y2668D02*
Y2711D01*
X1057Y2689D02*
X1101D01*
X1079Y2668D02*
Y2711D01*
X1157Y2789D02*
X1201D01*
X1179Y2768D02*
Y2811D01*
X1057Y2789D02*
X1101D01*
X1079Y2768D02*
Y2811D01*
X1157Y2889D02*
X1201D01*
X1179Y2868D02*
Y2911D01*
X1057Y2889D02*
X1101D01*
X1079Y2868D02*
Y2911D01*
X1157Y2989D02*
X1201D01*
X1179Y2968D02*
Y3011D01*
X1057Y2989D02*
X1101D01*
X1079Y2968D02*
Y3011D01*
X1157Y3089D02*
X1201D01*
X1179Y3068D02*
Y3111D01*
X1057Y3089D02*
X1101D01*
X1079Y3068D02*
Y3111D01*
X1549Y660D02*
X1590D01*
X1570Y639D02*
Y680D01*
X1449Y660D02*
X1490D01*
X1470Y639D02*
Y680D01*
X1349Y660D02*
X1390D01*
X1370Y639D02*
Y680D01*
X579Y260D02*
X620D01*
X600Y239D02*
Y280D01*
X479Y260D02*
X520D01*
X500Y239D02*
Y280D01*
X379Y260D02*
X420D01*
X400Y239D02*
Y280D01*
X2314Y3300D02*
X2325D01*
X2320Y3294D02*
Y3305D01*
X1374Y305D02*
X1385D01*
X1380Y299D02*
Y310D01*
X959Y3705D02*
X970D01*
X965Y3699D02*
Y3710D01*
X954Y3820D02*
X965D01*
X960Y3814D02*
Y3825D01*
X424Y3610D02*
X435D01*
X430Y3604D02*
Y3615D01*
X464Y3750D02*
X475D01*
X470Y3744D02*
Y3755D01*
X374Y3750D02*
X385D01*
X380Y3744D02*
Y3755D01*
X384Y3670D02*
X395D01*
X390Y3664D02*
Y3675D01*
X462Y3675D02*
X474D01*
X468Y3669D02*
Y3680D01*
X374Y3840D02*
X385D01*
X380Y3834D02*
Y3845D01*
X464Y3840D02*
X475D01*
X470Y3834D02*
Y3845D01*
X1744Y2280D02*
X1755D01*
X1750Y2274D02*
Y2285D01*
X2294Y1699D02*
X2305D01*
X2300Y1693D02*
Y1705D01*
X2304Y2120D02*
X2315D01*
X2310Y2114D02*
Y2125D01*
X2304Y2170D02*
X2315D01*
X2310Y2164D02*
Y2175D01*
X2609Y2045D02*
X2620D01*
X2615Y2039D02*
Y2050D01*
X2394Y2120D02*
X2405D01*
X2400Y2114D02*
Y2125D01*
X1464Y387D02*
X1475D01*
X1470Y381D02*
Y393D01*
X1984Y1990D02*
X1995D01*
X1990Y1984D02*
Y1995D01*
X544Y3840D02*
X555D01*
X550Y3834D02*
Y3845D01*
X2704Y3330D02*
X2715D01*
X2710Y3324D02*
Y3335D01*
X1504Y3280D02*
X1515D01*
X1510Y3274D02*
Y3285D01*
X1514Y3510D02*
X1525D01*
X1520Y3504D02*
Y3515D01*
X2274Y610D02*
X2285D01*
X2280Y604D02*
Y615D01*
X2184Y610D02*
X2195D01*
X2190Y604D02*
Y615D01*
X2286Y521D02*
X2298D01*
X2292Y515D02*
Y527D01*
X2184Y530D02*
X2195D01*
X2190Y524D02*
Y535D01*
X2194Y430D02*
X2205D01*
X2200Y424D02*
Y435D01*
X2304Y430D02*
X2315D01*
X2310Y424D02*
Y435D01*
X2214Y340D02*
X2225D01*
X2220Y334D02*
Y345D01*
X2264Y680D02*
X2275D01*
X2270Y674D02*
Y685D01*
X2174Y680D02*
X2185D01*
X2180Y674D02*
Y685D01*
X2094Y680D02*
X2105D01*
X2100Y674D02*
Y685D01*
X2014Y680D02*
X2025D01*
X2020Y674D02*
Y685D01*
X1914Y680D02*
X1925D01*
X1920Y674D02*
Y685D01*
X1824Y680D02*
X1835D01*
X1830Y674D02*
Y685D01*
X1504Y2030D02*
X1515D01*
X1510Y2024D02*
Y2035D01*
X1894Y1530D02*
X1905D01*
X1900Y1524D02*
Y1535D01*
X1964Y1530D02*
X1975D01*
X1970Y1524D02*
Y1535D01*
X1744Y2000D02*
X1755D01*
X1750Y1994D02*
Y2005D01*
X2804Y2280D02*
X2815D01*
X2810Y2274D02*
Y2285D01*
X2754Y2200D02*
X2765D01*
X2760Y2194D02*
Y2205D01*
X3424Y1950D02*
X3435D01*
X3430Y1944D02*
Y1955D01*
X3274Y1970D02*
X3285D01*
X3280Y1964D02*
Y1975D01*
X2564Y1580D02*
X2575D01*
X2570Y1574D02*
Y1585D01*
X2604Y1170D02*
X2615D01*
X2610Y1164D02*
Y1175D01*
X2604Y1350D02*
X2615D01*
X2610Y1344D02*
Y1355D01*
X2524Y3620D02*
X2535D01*
X2530Y3614D02*
Y3625D01*
X1964Y3440D02*
X1975D01*
X1970Y3434D02*
Y3445D01*
X2054Y3220D02*
X2065D01*
X2060Y3214D02*
Y3225D01*
X1814Y3400D02*
X1825D01*
X1820Y3394D02*
Y3405D01*
X1704Y3290D02*
X1715D01*
X1710Y3284D02*
Y3295D01*
X1774Y2930D02*
X1785D01*
X1780Y2924D02*
Y2935D01*
X3594Y2700D02*
X3605D01*
X3600Y2694D02*
Y2705D01*
X2244Y2310D02*
X2255D01*
X2250Y2304D02*
Y2315D01*
X2524Y1470D02*
X2535D01*
X2530Y1464D02*
Y1475D01*
X2404Y1360D02*
X2415D01*
X2410Y1354D02*
Y1365D01*
X2834Y870D02*
X2845D01*
X2840Y864D02*
Y875D01*
X2904Y1030D02*
X2915D01*
X2910Y1024D02*
Y1035D01*
X694Y2330D02*
X705D01*
X700Y2324D02*
Y2335D01*
X1364Y2700D02*
X1375D01*
X1370Y2694D02*
Y2705D01*
X1674Y2390D02*
X1685D01*
X1680Y2384D02*
Y2395D01*
X1664Y2530D02*
X1675D01*
X1670Y2524D02*
Y2535D01*
X1674Y2610D02*
X1685D01*
X1680Y2604D02*
Y2615D01*
X1714Y2680D02*
X1725D01*
X1720Y2674D02*
Y2685D01*
X1754Y2760D02*
X1765D01*
X1760Y2754D02*
Y2765D01*
X1542Y3579D02*
X1553D01*
X1548Y3573D02*
Y3584D01*
X1468Y3329D02*
X1479D01*
X1474Y3323D02*
Y3334D01*
X2164Y810D02*
X2175D01*
X2170Y804D02*
Y815D01*
X2999Y3040D02*
X3010D01*
X3005Y3034D02*
Y3045D01*
X2076Y2314D02*
X2088D01*
X2082Y2309D02*
Y2320D01*
X2729Y1845D02*
X2740D01*
X2735Y1839D02*
Y1850D01*
X2600Y1850D02*
X2612D01*
X2606Y1844D02*
Y1855D01*
X2384Y1683D02*
X2395D01*
X2390Y1677D02*
Y1689D01*
X2565Y1970D02*
X2577D01*
X2571Y1964D02*
Y1975D01*
X2464Y2195D02*
X2475D01*
X2470Y2189D02*
Y2200D01*
X2959Y1190D02*
X2970D01*
X2965Y1184D02*
Y1195D01*
X2664Y1196D02*
X2675D01*
X2670Y1190D02*
Y1202D01*
X2909Y2685D02*
X2920D01*
X2915Y2679D02*
Y2690D01*
X3099Y1335D02*
X3110D01*
X3105Y1329D02*
Y1340D01*
X3822Y555D02*
X3837D01*
X3830Y547D02*
Y562D01*
X1334Y1905D02*
X1345D01*
X1340Y1899D02*
Y1910D01*
X1704Y2155D02*
X1715D01*
X1710Y2149D02*
Y2160D01*
X1739Y1930D02*
X1750D01*
X1745Y1924D02*
Y1935D01*
X2014Y1750D02*
X2025D01*
X2020Y1744D02*
Y1755D01*
X2074Y1135D02*
X2085D01*
X2080Y1129D02*
Y1140D01*
X1924Y1130D02*
X1935D01*
X1930Y1124D02*
Y1135D01*
X1814Y1125D02*
X1825D01*
X1820Y1119D02*
Y1130D01*
X2104Y1950D02*
X2115D01*
X2110Y1944D02*
Y1955D01*
X2611Y1537D02*
X2623D01*
X2617Y1531D02*
Y1543D01*
X1418Y3565D02*
X1430D01*
X1424Y3559D02*
Y3571D01*
X1814Y3535D02*
X1825D01*
X1820Y3529D02*
Y3540D01*
X2109Y3570D02*
X2120D01*
X2115Y3564D02*
Y3575D01*
X1134Y3715D02*
X1145D01*
X1140Y3709D02*
Y3720D01*
X1040Y3700D02*
X1052D01*
X1046Y3694D02*
Y3705D01*
X1040Y3825D02*
X1052D01*
X1046Y3819D02*
Y3830D01*
X1134Y3820D02*
X1145D01*
X1140Y3814D02*
Y3825D01*
X2384Y1580D02*
X2395D01*
X2390Y1574D02*
Y1585D01*
X2304Y1580D02*
X2315D01*
X2310Y1574D02*
Y1585D01*
X2859Y3050D02*
X2870D01*
X2865Y3044D02*
Y3055D01*
X2739Y3055D02*
X2750D01*
X2745Y3049D02*
Y3060D01*
X2619Y3055D02*
X2630D01*
X2625Y3049D02*
Y3060D01*
X2504Y3060D02*
X2515D01*
X2510Y3054D02*
Y3065D01*
X1744Y2050D02*
X1755D01*
X1750Y2044D02*
Y2055D01*
X1574Y210D02*
X1585D01*
X1580Y204D02*
Y215D01*
X1572Y430D02*
X1587D01*
X1580Y422D02*
Y437D01*
X1594Y1190D02*
X1605D01*
X1600Y1184D02*
Y1195D01*
X1519Y1100D02*
X1530D01*
X1525Y1094D02*
Y1105D01*
X1519Y1190D02*
X1530D01*
X1525Y1184D02*
Y1195D01*
X576Y3679D02*
X588D01*
X582Y3674D02*
Y3685D01*
X584Y3530D02*
X595D01*
X590Y3524D02*
Y3535D01*
X3279Y1160D02*
X3290D01*
X3285Y1154D02*
Y1165D01*
X3574Y2000D02*
X3585D01*
X3580Y1994D02*
Y2005D01*
X3114Y2653D02*
X3126D01*
X3120Y2647D02*
Y2659D01*
X2724Y2835D02*
X2735D01*
X2730Y2829D02*
Y2840D01*
X3232Y1450D02*
X3247D01*
X3240Y1442D02*
Y1457D01*
X2414Y3620D02*
X2425D01*
X2420Y3614D02*
Y3625D01*
X2584Y3620D02*
X2595D01*
X2590Y3614D02*
Y3625D01*
X2594Y3550D02*
X2605D01*
X2600Y3544D02*
Y3555D01*
X3822Y320D02*
X3837D01*
X3830Y312D02*
Y327D01*
X1059Y3495D02*
X1070D01*
X1065Y3489D02*
Y3500D01*
X979Y3495D02*
X990D01*
X985Y3489D02*
Y3500D01*
X3114Y2890D02*
X3125D01*
X3120Y2884D02*
Y2895D01*
X2764Y2890D02*
X2775D01*
X2770Y2884D02*
Y2895D01*
X1394Y2270D02*
X1405D01*
X1400Y2264D02*
Y2275D01*
X1449Y2027D02*
X1461D01*
X1455Y2021D02*
Y2032D01*
X1934Y1670D02*
X1945D01*
X1940Y1664D02*
Y1675D01*
X884Y460D02*
X895D01*
X890Y454D02*
Y465D01*
X1074Y450D02*
X1085D01*
X1080Y444D02*
Y455D01*
X2584Y250D02*
X2595D01*
X2590Y244D02*
Y255D01*
X2584Y350D02*
X2595D01*
X2590Y344D02*
Y355D01*
X2584Y130D02*
X2595D01*
X2590Y124D02*
Y135D01*
X2474Y350D02*
X2485D01*
X2480Y344D02*
Y355D01*
X1494Y910D02*
X1505D01*
X1500Y904D02*
Y915D01*
X1494Y990D02*
X1505D01*
X1500Y984D02*
Y995D01*
X1924Y910D02*
X1935D01*
X1930Y904D02*
Y915D01*
X1594Y910D02*
X1605D01*
X1600Y904D02*
Y915D01*
X2634Y3250D02*
X2645D01*
X2640Y3244D02*
Y3255D01*
X2734Y3250D02*
X2745D01*
X2740Y3244D02*
Y3255D01*
X2854Y3270D02*
X2865D01*
X2860Y3264D02*
Y3275D01*
X2994Y3320D02*
X3005D01*
X3000Y3314D02*
Y3325D01*
X1984Y3070D02*
X1995D01*
X1990Y3064D02*
Y3075D01*
X1894Y2840D02*
X1905D01*
X1900Y2834D02*
Y2845D01*
X2084Y2870D02*
X2095D01*
X2090Y2864D02*
Y2875D01*
X2274Y2830D02*
X2285D01*
X2280Y2824D02*
Y2835D01*
X3034Y2050D02*
X3045D01*
X3040Y2044D02*
Y2055D01*
X3214Y2400D02*
X3225D01*
X3220Y2394D02*
Y2405D01*
X3274Y2650D02*
X3285D01*
X3280Y2644D02*
Y2655D01*
X2794Y2350D02*
X2805D01*
X2800Y2344D02*
Y2355D01*
X2804Y2220D02*
X2815D01*
X2810Y2214D02*
Y2225D01*
X734Y2380D02*
X745D01*
X740Y2374D02*
Y2385D01*
X2844Y1030D02*
X2855D01*
X2850Y1024D02*
Y1035D01*
X2834Y930D02*
X2845D01*
X2840Y924D02*
Y935D01*
X2404Y1520D02*
X2415D01*
X2410Y1514D02*
Y1525D01*
X1924Y1930D02*
X1935D01*
X1930Y1924D02*
Y1935D01*
X3464Y2190D02*
X3475D01*
X3470Y2184D02*
Y2195D01*
X3674Y2290D02*
X3685D01*
X3680Y2284D02*
Y2295D01*
X3564Y2210D02*
X3575D01*
X3570Y2204D02*
Y2215D01*
X3654Y1880D02*
X3665D01*
X3660Y1874D02*
Y1885D01*
X3784Y2000D02*
X3795D01*
X3790Y1994D02*
Y2005D01*
X3784Y2080D02*
X3795D01*
X3790Y2074D02*
Y2085D01*
X2064Y3470D02*
X2075D01*
X2070Y3464D02*
Y3475D01*
X1824Y2960D02*
X1835D01*
X1830Y2954D02*
Y2965D01*
X3744Y2870D02*
X3755D01*
X3750Y2864D02*
Y2875D01*
X1384Y2640D02*
X1395D01*
X1390Y2634D02*
Y2645D01*
X1804Y2720D02*
X1815D01*
X1810Y2714D02*
Y2725D01*
X1764Y2640D02*
X1775D01*
X1770Y2634D02*
Y2645D01*
X1724Y2570D02*
X1735D01*
X1730Y2564D02*
Y2575D01*
X1684Y2480D02*
X1695D01*
X1690Y2474D02*
Y2485D01*
X3534Y2700D02*
X3545D01*
X3540Y2694D02*
Y2705D01*
X1614Y2410D02*
X1625D01*
X1620Y2404D02*
Y2415D01*
X1704Y3230D02*
X1715D01*
X1710Y3224D02*
Y3235D01*
X2044Y3160D02*
X2055D01*
X2050Y3154D02*
Y3165D01*
X1774Y3360D02*
X1785D01*
X1780Y3354D02*
Y3365D01*
X2644Y3330D02*
X2655D01*
X2650Y3324D02*
Y3335D01*
X3304Y3380D02*
X3315D01*
X3310Y3374D02*
Y3385D01*
X3654Y3220D02*
X3665D01*
X3660Y3214D02*
Y3225D01*
X3694Y3590D02*
X3705D01*
X3700Y3584D02*
Y3595D01*
X3694Y3370D02*
X3705D01*
X3700Y3364D02*
Y3375D01*
X3846Y3368D02*
X3858D01*
X3852Y3362D02*
Y3374D01*
X3846Y3591D02*
X3858D01*
X3852Y3585D02*
Y3597D01*
X2444Y3250D02*
X2455D01*
X2450Y3244D02*
Y3255D01*
X2425Y3489D02*
X2436D01*
X2430Y3483D02*
Y3495D01*
X3274Y1910D02*
X3285D01*
X3280Y1904D02*
Y1915D01*
X3464Y1910D02*
X3475D01*
X3470Y1904D02*
Y1915D01*
X2374Y2310D02*
X2385D01*
X2380Y2304D02*
Y2315D01*
X2294Y2320D02*
X2305D01*
X2300Y2314D02*
Y2325D01*
X2094Y1810D02*
X2105D01*
X2100Y1804D02*
Y1815D01*
X2764Y2560D02*
X2775D01*
X2770Y2554D02*
Y2565D01*
X2734Y2680D02*
X2745D01*
X2740Y2674D02*
Y2685D01*
X2774Y2620D02*
X2785D01*
X2780Y2614D02*
Y2625D01*
X2850Y2548D02*
X2862D01*
X2856Y2542D02*
Y2554D01*
X2234Y2260D02*
X2245D01*
X2240Y2254D02*
Y2265D01*
X2754Y2260D02*
X2765D01*
X2760Y2254D02*
Y2265D01*
X3374Y1160D02*
X3385D01*
X3380Y1154D02*
Y1165D01*
X2404Y1840D02*
X2415D01*
X2410Y1834D02*
Y1845D01*
X2334Y1840D02*
X2345D01*
X2340Y1834D02*
Y1845D01*
X2404Y1910D02*
X2415D01*
X2410Y1904D02*
Y1915D01*
X2334Y1910D02*
X2345D01*
X2340Y1904D02*
Y1915D01*
X2264Y1840D02*
X2275D01*
X2270Y1834D02*
Y1845D01*
X2264Y1910D02*
X2275D01*
X2270Y1904D02*
Y1915D01*
X2334Y1980D02*
X2345D01*
X2340Y1974D02*
Y1985D01*
X2404Y1980D02*
X2415D01*
X2410Y1974D02*
Y1985D01*
X2264Y1980D02*
X2275D01*
X2270Y1974D02*
Y1985D01*
X2664Y1350D02*
X2675D01*
X2670Y1344D02*
Y1355D01*
X2354Y1410D02*
X2365D01*
X2360Y1404D02*
Y1415D01*
X2454Y1470D02*
X2465D01*
X2460Y1464D02*
Y1475D01*
X3022Y990D02*
X3037D01*
X3030Y982D02*
Y997D01*
X3002Y1580D02*
X3017D01*
X3010Y1572D02*
Y1587D01*
X3082Y1650D02*
X3097D01*
X3090Y1642D02*
Y1657D01*
X3462Y1540D02*
X3477D01*
X3470Y1532D02*
Y1547D01*
X2842Y740D02*
X2857D01*
X2850Y732D02*
Y747D01*
X3452Y350D02*
X3467D01*
X3460Y342D02*
Y357D01*
X3432Y490D02*
X3447D01*
X3440Y482D02*
Y497D01*
X3712Y650D02*
X3727D01*
X3720Y642D02*
Y657D01*
X3692Y330D02*
X3707D01*
X3700Y322D02*
Y337D01*
X3692Y550D02*
X3707D01*
X3700Y542D02*
Y557D01*
X2844Y450D02*
X2855D01*
X2850Y444D02*
Y455D01*
X2844Y520D02*
X2855D01*
X2850Y514D02*
Y525D01*
M02*