%FSLAX23Y23*%
%MOIN*%
%SFA1B1*%

%IPPOS*%
%ADD74R,0.165350X0.053150*%
%ADD110C,0.061810*%
%ADD111R,0.061810X0.061810*%
%ADD127C,0.060000*%
%ADD128C,0.055120*%
%ADD129C,0.065550*%
%ADD130R,0.065550X0.065550*%
%ADD131R,0.061020X0.061020*%
%ADD132C,0.061020*%
%LNconcentrator_pcb-1*%
%LPD*%
G54D74*
X3852Y3591D03*
Y3368D03*
X3842Y551D03*
Y328D03*
G54D110*
X3475Y3830D03*
X3375D03*
X3275D03*
X3175D03*
X3075D03*
X2975D03*
X2875D03*
X2775D03*
X2675D03*
X2575D03*
X2475D03*
X2375D03*
X2275D03*
X2175D03*
X2075D03*
X1975D03*
X1875D03*
X1775D03*
X1675D03*
X1575D03*
X3475Y3730D03*
X3375D03*
X3275D03*
X3175D03*
X3075D03*
X2975D03*
X2875D03*
X2775D03*
X2675D03*
X2575D03*
X2475D03*
X2375D03*
X2275D03*
X2175D03*
X2075D03*
X1975D03*
X1875D03*
X1775D03*
X1675D03*
G54D111*
X1575Y3730D03*
G54D127*
X157Y3779D03*
X3779D03*
Y157D03*
X157D03*
G54D128*
X1141Y998D03*
X236D03*
Y3281D03*
X1141D03*
G54D129*
X879Y1189D03*
X979Y1289D03*
X1179Y1189D03*
X1079D03*
X1179Y1289D03*
X1079D03*
X1179Y1389D03*
X1079D03*
X1179Y1489D03*
X1079D03*
X1179Y1589D03*
X1079D03*
X1179Y1689D03*
X1079D03*
X1179Y1789D03*
X1079D03*
X1179Y1889D03*
X1079D03*
X1179Y1989D03*
X1079D03*
X1179Y2089D03*
X1079D03*
X1179Y2189D03*
X1079D03*
X1179Y2289D03*
X1079D03*
X1179Y2389D03*
X1079D03*
X1179Y2489D03*
X1079D03*
X1179Y2589D03*
X1079D03*
X1179Y2689D03*
X1079D03*
X1179Y2789D03*
X1079D03*
X1179Y2889D03*
X1079D03*
X1179Y2989D03*
X1079D03*
X1179Y3089D03*
G54D130*
X879Y1289D03*
X979Y1189D03*
X1079Y3089D03*
G54D131*
X1570Y660D03*
X600Y260D03*
G54D132*
X1470Y660D03*
X1370D03*
X500Y260D03*
X400D03*
M02*