%FSLAX23Y23*%
%MOIN*%
%SFA1B1*%

%IPPOS*%
%ADD13C,0.007870*%
%LNconcentrator_pcb-1*%
%LPD*%
G54D13*
X1929Y153D02*
Y456D01*
X1787Y153D02*
X1929D01*
X1787D02*
Y456D01*
X1929*
X2128Y3055D02*
Y3084D01*
X2071D02*
X2128D01*
X2071Y3055D02*
Y3084D01*
Y3055D02*
X2128D01*
X3385Y2328D02*
X3414D01*
X3385Y2271D02*
Y2328D01*
Y2271D02*
X3414D01*
Y2328*
X2230Y3275D02*
X2309D01*
X2230Y3124D02*
Y3275D01*
Y3124D02*
X2309D01*
Y3275*
X2949Y3085D02*
X3050D01*
Y3254*
X2949D02*
X3050D01*
X2949Y3085D02*
Y3254D01*
X1419Y434D02*
X1520D01*
X1419Y265D02*
Y434D01*
Y265D02*
X1520D01*
Y434*
X3630Y1288D02*
Y1367D01*
X3480D02*
X3630D01*
X3480Y1288D02*
Y1367D01*
Y1288D02*
X3630D01*
X3258Y2712D02*
Y2791D01*
X3108D02*
X3258D01*
X3108Y2712D02*
Y2791D01*
Y2712D02*
X3258D01*
X3255Y1199D02*
Y1300D01*
Y1199D02*
X3424D01*
Y1300*
X3255D02*
X3424D01*
X3075Y2599D02*
Y2700D01*
Y2599D02*
X3244D01*
Y2700*
X3075D02*
X3244D01*
X1549Y1124D02*
X1650D01*
X1549Y955D02*
Y1124D01*
Y955D02*
X1650D01*
Y1124*
X1869Y1104D02*
X1970D01*
X1869Y935D02*
Y1104D01*
Y935D02*
X1970D01*
Y1104*
X919Y654D02*
X1020D01*
X919Y485D02*
Y654D01*
Y485D02*
X1020D01*
Y654*
X1969Y1804D02*
X2070D01*
X1969Y1635D02*
Y1804D01*
Y1635D02*
X2070D01*
Y1804*
X3068Y2473D02*
Y2518D01*
X2981D02*
X3068D01*
X2981Y2473D02*
Y2518D01*
Y2473D02*
X3068D01*
X3169Y1099D02*
Y1141D01*
X3088D02*
X3169D01*
X3088Y1099D02*
Y1141D01*
Y1099D02*
X3169D01*
X2951Y2418D02*
Y2461D01*
X2870D02*
X2951D01*
X2870Y2418D02*
Y2461D01*
Y2418D02*
X2951D01*
X605Y3560D02*
Y3639D01*
X454D02*
X605D01*
X454Y3560D02*
Y3639D01*
Y3560D02*
X605D01*
X616Y3618D02*
Y3881D01*
Y3618D02*
X923D01*
Y3881*
X616D02*
X923D01*
X1810Y2084D02*
X1929D01*
Y1955D02*
Y2084D01*
X1810Y1955D02*
X1929D01*
X1810D02*
Y2084D01*
X2180Y3138D02*
Y3181D01*
X2099D02*
X2180D01*
X2099Y3138D02*
Y3181D01*
Y3138D02*
X2180D01*
X2415Y3142D02*
Y3177D01*
X2344D02*
X2415D01*
X2344Y3142D02*
Y3177D01*
Y3142D02*
X2415D01*
X3385Y3458D02*
X3414D01*
X3385Y3401D02*
Y3458D01*
Y3401D02*
X3414D01*
Y3458*
X3100Y2565D02*
X3179D01*
X3100Y2414D02*
Y2565D01*
Y2414D02*
X3179D01*
Y2565*
X3060Y1486D02*
X3119D01*
Y1593*
X3060D02*
X3119D01*
X3060Y1486D02*
Y1593D01*
X3550Y1963D02*
X3609D01*
X3550Y1856D02*
Y1963D01*
Y1856D02*
X3609D01*
Y1963*
X2810Y2806D02*
X2869D01*
Y2913*
X2810D02*
X2869D01*
X2810Y2806D02*
Y2913D01*
X2360Y1713D02*
X2419D01*
X2360Y1606D02*
Y1713D01*
Y1606D02*
X2419D01*
Y1713*
X2270Y1723D02*
X2329D01*
X2270Y1616D02*
Y1723D01*
Y1616D02*
X2329D01*
Y1723*
X2290Y2086D02*
X2349D01*
Y2193*
X2290D02*
X2349D01*
X2290Y2086D02*
Y2193D01*
X2133Y1920D02*
Y1979D01*
X2026D02*
X2133D01*
X2026Y1920D02*
Y1979D01*
Y1920D02*
X2133D01*
X2080Y1773D02*
X2139D01*
X2080Y1666D02*
Y1773D01*
Y1666D02*
X2139D01*
Y1773*
X2586Y1820D02*
Y1879D01*
Y1820D02*
X2693D01*
Y1879*
X2586D02*
X2693D01*
X2546Y1940D02*
Y1999D01*
Y1940D02*
X2653D01*
Y1999*
X2546D02*
X2653D01*
X1790Y1816D02*
X1849D01*
Y1923*
X1790D02*
X1849D01*
X1790Y1816D02*
Y1923D01*
X2370Y2096D02*
X2429D01*
Y2203*
X2370D02*
X2429D01*
X2370Y2096D02*
Y2203D01*
X1870Y2777D02*
X1918D01*
X1870Y2679D02*
Y2777D01*
Y2679D02*
X1918D01*
Y2777*
X2255Y2770D02*
X2298D01*
X2255Y2666D02*
Y2770D01*
Y2666D02*
X2298D01*
Y2770*
X1717Y1945D02*
X1762D01*
X1717Y1854D02*
Y1945D01*
Y1854D02*
X1762D01*
Y1945*
X1722Y2048D02*
Y2121D01*
X1587D02*
X1722D01*
X1587Y2048D02*
Y2121D01*
Y2048D02*
X1722D01*
X1773Y2102D02*
X1846D01*
Y2237*
X1773D02*
X1846D01*
X1773Y2102D02*
Y2237D01*
X2049Y2287D02*
X2123D01*
X2049Y2153D02*
Y2287D01*
Y2153D02*
X2123D01*
Y2287*
X3490Y524D02*
X3536D01*
Y614*
X3490D02*
X3536D01*
X3490Y524D02*
Y614D01*
X2492Y3122D02*
X2527D01*
Y3177*
X2492D02*
X2527D01*
X2492Y3122D02*
Y3177D01*
X2218Y3553D02*
Y3584D01*
Y3553D02*
X2278D01*
Y3584*
X2218D02*
X2278D01*
X3272Y2272D02*
X3307D01*
Y2327*
X3272D02*
X3307D01*
X3272Y2272D02*
Y2327D01*
X3138Y2172D02*
Y2228D01*
Y2172D02*
X3253D01*
Y2228*
X3138D02*
X3253D01*
X3262Y1505D02*
Y1584D01*
Y1505D02*
X3412D01*
Y1584*
X3262D02*
X3412D01*
X2998Y2794D02*
X3078D01*
Y2944*
X2998D02*
X3078D01*
X2998Y2794D02*
Y2944D01*
X2079Y3519D02*
Y3620D01*
X1910D02*
X2079D01*
X1910Y3519D02*
Y3620D01*
Y3519D02*
X2079D01*
X2569Y3075D02*
X2670D01*
Y3244*
X2569D02*
X2670D01*
X2569Y3075D02*
Y3244D01*
X3271Y2525D02*
X3317D01*
X3271Y2426D02*
Y2525D01*
Y2426D02*
X3317D01*
Y2525*
X3171Y3445D02*
Y3474D01*
Y3445D02*
X3228D01*
Y3474*
X3171D02*
X3228D01*
X2980Y2327D02*
Y2372D01*
Y2327D02*
X3079D01*
Y2372*
X2980D02*
X3079D01*
X3015Y1125D02*
X3045D01*
X3015Y1067D02*
Y1125D01*
Y1067D02*
X3045D01*
Y1125*
X3232Y1090D02*
X3261D01*
X3232Y1032D02*
Y1090D01*
Y1032D02*
X3261D01*
Y1090*
X2775Y2478D02*
X2804D01*
X2775Y2421D02*
Y2478D01*
Y2421D02*
X2804D01*
Y2478*
X2905Y2363D02*
X2935D01*
X2905Y2305D02*
Y2363D01*
Y2305D02*
X2935D01*
Y2363*
X3550Y2374D02*
X3629D01*
Y2525*
X3550D02*
X3629D01*
X3550Y2374D02*
Y2525D01*
X1502Y3673D02*
Y3886D01*
Y3673D02*
X3547D01*
Y3886*
X1502D02*
X3547D01*
X3454Y3440D02*
Y3519D01*
Y3440D02*
X3605D01*
Y3519*
X3454D02*
X3605D01*
X2144Y3430D02*
Y3509D01*
Y3430D02*
X2295D01*
Y3509*
X2144D02*
X2295D01*
X1503Y1736D02*
Y1815D01*
X1353D02*
X1503D01*
X1353Y1736D02*
Y1815D01*
Y1736D02*
X1503D01*
X1503Y1862D02*
Y1942D01*
X1353D02*
X1503D01*
X1353Y1862D02*
Y1942D01*
Y1862D02*
X1503D01*
X1488Y2140D02*
Y2219D01*
X1337D02*
X1488D01*
X1337Y2140D02*
Y2219D01*
Y2140D02*
X1488D01*
X3481Y3197D02*
Y3242D01*
Y3197D02*
X3579D01*
Y3242*
X3481D02*
X3579D01*
X2977Y3479D02*
X3022D01*
X2977Y3380D02*
Y3479D01*
Y3380D02*
X3022D01*
Y3479*
X2820Y3074D02*
X2899D01*
Y3225*
X2820D02*
X2899D01*
X2820Y3074D02*
Y3225D01*
X3473Y3306D02*
X3526D01*
Y3393*
X3473D02*
X3526D01*
X3473Y3306D02*
Y3393D01*
X3156Y3293D02*
Y3346D01*
Y3293D02*
X3243D01*
Y3346*
X3156D02*
X3243D01*
X2120Y2671D02*
Y2808D01*
X2059Y2671D02*
X2120D01*
X2059D02*
Y2808D01*
X2120*
X2991Y2261D02*
Y2297D01*
Y2261D02*
X3046D01*
Y2297*
X2991D02*
X3046D01*
X3765Y3338D02*
X4316D01*
Y3621*
X3765D02*
X4316D01*
X3765Y3338D02*
Y3621D01*
X2892Y2837D02*
X2987D01*
X2892D02*
Y2902D01*
X2987*
Y2837D02*
Y2902D01*
X3235Y1512D02*
Y1577D01*
X3140D02*
X3235D01*
X3140Y1512D02*
Y1577D01*
Y1512D02*
X3235D01*
X3528Y422D02*
Y480D01*
X3498Y422D02*
X3528D01*
X3498D02*
Y480D01*
X3528*
X3755Y298D02*
X4306D01*
Y581*
X3755D02*
X4306D01*
X3755Y298D02*
Y581D01*
M02*