%FSLAX23Y23*%
%MOIN*%
%SFA1B1*%

%IPPOS*%
%ADD11C,0.003940*%
%LNconcentrator_pcb-1*%
%LPD*%
G54D11*
X1858Y285D02*
Y325D01*
X1838Y305D02*
X1877D01*
X2100Y3050D02*
Y3089D01*
X2080Y3070D02*
X2119D01*
X2100Y3050D02*
Y3089D01*
X2080Y3070D02*
X2119D01*
X3380Y2300D02*
X3419D01*
X3400Y2280D02*
Y2319D01*
X3380Y2300D02*
X3419D01*
X3400Y2280D02*
Y2319D01*
X2250Y3200D02*
X2289D01*
X2270Y3180D02*
Y3219D01*
X2980Y3170D02*
X3019D01*
X3000Y3150D02*
Y3189D01*
X1450Y350D02*
X1489D01*
X1470Y330D02*
Y369D01*
X3555Y1307D02*
Y1347D01*
X3536Y1327D02*
X3575D01*
X3183Y2732D02*
Y2771D01*
X3163Y2751D02*
X3202D01*
X3340Y1230D02*
Y1269D01*
X3320Y1250D02*
X3359D01*
X3160Y2630D02*
Y2669D01*
X3140Y2650D02*
X3179D01*
X1580Y1040D02*
X1619D01*
X1600Y1020D02*
Y1059D01*
X1900Y1020D02*
X1939D01*
X1920Y1000D02*
Y1039D01*
X950Y570D02*
X989D01*
X970Y550D02*
Y589D01*
X2000Y1720D02*
X2039D01*
X2020Y1700D02*
Y1739D01*
X3025Y2476D02*
Y2515D01*
X3005Y2495D02*
X3044D01*
X3128Y1100D02*
Y1139D01*
X3109Y1120D02*
X3148D01*
X2911Y2420D02*
Y2459D01*
X2891Y2440D02*
X2930D01*
X530Y3580D02*
Y3619D01*
X510Y3600D02*
X549D01*
X770Y3730D02*
Y3769D01*
X750Y3750D02*
X789D01*
X1850Y2020D02*
X1889D01*
X1870Y2000D02*
Y2039D01*
X2140Y3140D02*
Y3179D01*
X2120Y3160D02*
X2159D01*
X2380Y3140D02*
Y3179D01*
X2360Y3160D02*
X2399D01*
X3380Y3430D02*
X3419D01*
X3400Y3410D02*
Y3449D01*
X3380Y3430D02*
X3419D01*
X3400Y3410D02*
Y3449D01*
X3120Y2490D02*
X3159D01*
X3140Y2470D02*
Y2509D01*
X3070Y1540D02*
X3109D01*
X3090Y1520D02*
Y1559D01*
X3560Y1910D02*
X3599D01*
X3580Y1890D02*
Y1929D01*
X2820Y2860D02*
X2859D01*
X2840Y2840D02*
Y2879D01*
X2370Y1660D02*
X2409D01*
X2390Y1640D02*
Y1679D01*
X2280Y1670D02*
X2319D01*
X2300Y1650D02*
Y1689D01*
X2300Y2140D02*
X2339D01*
X2320Y2120D02*
Y2159D01*
X2080Y1930D02*
Y1969D01*
X2060Y1950D02*
X2099D01*
X2090Y1720D02*
X2129D01*
X2110Y1700D02*
Y1739D01*
X2640Y1830D02*
Y1869D01*
X2620Y1850D02*
X2659D01*
X2600Y1950D02*
Y1989D01*
X2580Y1970D02*
X2619D01*
X1800Y1870D02*
X1839D01*
X1820Y1850D02*
Y1889D01*
X2380Y2150D02*
X2419D01*
X2400Y2130D02*
Y2169D01*
X1874Y2728D02*
X1914D01*
X1894Y2708D02*
Y2748D01*
X2257Y2718D02*
X2296D01*
X2276Y2698D02*
Y2737D01*
X1733Y1900D02*
X1746D01*
X1740Y1893D02*
Y1906D01*
X1655Y2065D02*
Y2104D01*
X1635Y2085D02*
X1674D01*
X1790Y2170D02*
X1829D01*
X1810Y2150D02*
Y2189D01*
X2066Y2220D02*
X2106D01*
X2086Y2200D02*
Y2240D01*
X3506Y569D02*
X3520D01*
X3513Y562D02*
Y576D01*
X2490Y3150D02*
X2529D01*
X2510Y3130D02*
Y3169D01*
X2248Y3549D02*
Y3588D01*
X2228Y3569D02*
X2268D01*
X3270Y2300D02*
X3309D01*
X3290Y2280D02*
Y2319D01*
X3195Y2180D02*
Y2220D01*
X3176Y2200D02*
X3215D01*
X3337Y1525D02*
Y1564D01*
X3317Y1544D02*
X3357D01*
X3018Y2869D02*
X3058D01*
X3038Y2850D02*
Y2889D01*
X1995Y3550D02*
Y3589D01*
X1975Y3570D02*
X2014D01*
X2600Y3160D02*
X2639D01*
X2620Y3140D02*
Y3179D01*
X3274Y2476D02*
X3314D01*
X3294Y2456D02*
Y2495D01*
X3200Y3440D02*
Y3479D01*
X3180Y3460D02*
X3219D01*
X3030Y2330D02*
Y2369D01*
X3010Y2350D02*
X3049D01*
X3010Y1096D02*
X3050D01*
X3030Y1076D02*
Y1116D01*
X3227Y1061D02*
X3266D01*
X3247Y1041D02*
Y1080D01*
X2770Y2450D02*
X2809D01*
X2790Y2430D02*
Y2469D01*
X2900Y2334D02*
X2940D01*
X2920Y2314D02*
Y2354D01*
X3570Y2450D02*
X3609D01*
X3590Y2430D02*
Y2469D01*
X2525Y3760D02*
Y3799D01*
X2505Y3780D02*
X2544D01*
X3530Y3460D02*
Y3499D01*
X3510Y3480D02*
X3549D01*
X2220Y3450D02*
Y3489D01*
X2200Y3470D02*
X2239D01*
X1428Y1755D02*
Y1795D01*
X1408Y1775D02*
X1447D01*
X1428Y1882D02*
Y1922D01*
X1408Y1902D02*
X1447D01*
X1413Y2160D02*
Y2199D01*
X1393Y2180D02*
X1432D01*
X3530Y3200D02*
Y3239D01*
X3510Y3220D02*
X3550D01*
X2980Y3430D02*
X3019D01*
X3000Y3410D02*
Y3449D01*
X2840Y3150D02*
X2879D01*
X2860Y3130D02*
Y3169D01*
X3480Y3350D02*
X3519D01*
X3500Y3330D02*
Y3369D01*
X3200Y3300D02*
Y3339D01*
X3180Y3320D02*
X3219D01*
X2090Y2720D02*
Y2759D01*
X2070Y2740D02*
X2109D01*
X3018Y2259D02*
Y2298D01*
X2999Y2279D02*
X3038D01*
X4102Y3480D02*
X4141D01*
X4122Y3460D02*
Y3499D01*
X2920Y2869D02*
X2959D01*
X2940Y2850D02*
Y2889D01*
X3188Y1525D02*
Y1564D01*
X3168Y1544D02*
X3207D01*
X3513Y431D02*
Y471D01*
X3493Y451D02*
X3533D01*
X4092Y440D02*
X4131D01*
X4112Y420D02*
Y459D01*
M02*